<svg width="39" height="33" viewBox="0 0 39 33" fill="none" xmlns="http://www.w3.org/2000/svg">
<path d="M1.875 0.015625C0.835938 0.015625 0 0.851562 0 1.89062V5.64062C0 6.67969 0.835938 7.51562 1.875 7.51562H5.625C6.66406 7.51562 7.5 6.67969 7.5 5.64062V1.89062C7.5 0.851562 6.66406 0.015625 5.625 0.015625H1.875ZM13.75 1.26562C12.3672 1.26562 11.25 2.38281 11.25 3.76562C11.25 5.14844 12.3672 6.26562 13.75 6.26562H36.25C37.6328 6.26562 38.75 5.14844 38.75 3.76562C38.75 2.38281 37.6328 1.26562 36.25 1.26562H13.75ZM13.75 13.7656C12.3672 13.7656 11.25 14.8828 11.25 16.2656C11.25 17.6484 12.3672 18.7656 13.75 18.7656H36.25C37.6328 18.7656 38.75 17.6484 38.75 16.2656C38.75 14.8828 37.6328 13.7656 36.25 13.7656H13.75ZM13.75 26.2656C12.3672 26.2656 11.25 27.3828 11.25 28.7656C11.25 30.1484 12.3672 31.2656 13.75 31.2656H36.25C37.6328 31.2656 38.75 30.1484 38.75 28.7656C38.75 27.3828 37.6328 26.2656 36.25 26.2656H13.75ZM0 14.3906V18.1406C0 19.1797 0.835938 20.0156 1.875 20.0156H5.625C6.66406 20.0156 7.5 19.1797 7.5 18.1406V14.3906C7.5 13.3516 6.66406 12.5156 5.625 12.5156H1.875C0.835938 12.5156 0 13.3516 0 14.3906ZM1.875 25.0156C0.835938 25.0156 0 25.8516 0 26.8906V30.6406C0 31.6797 0.835938 32.5156 1.875 32.5156H5.625C6.66406 32.5156 7.5 31.6797 7.5 30.6406V26.8906C7.5 25.8516 6.66406 25.0156 5.625 25.0156H1.875Z" fill="#F2F2F2"/>
</svg>
