<svg width="32" height="32" viewBox="0 0 32 32" fill="none" xmlns="http://www.w3.org/2000/svg">
<path d="M24 10.9C24 17.9 16 24 16 24C16 24 8 17.9 8 10.9C8 6.5 11.6 3 16 3C20.4 3 24 6.5 24 10.9Z" stroke="white" stroke-width="2" stroke-miterlimit="10" stroke-linecap="round" stroke-linejoin="round"/>
<path d="M16 13C17.1046 13 18 12.1046 18 11C18 9.89543 17.1046 9 16 9C14.8954 9 14 9.89543 14 11C14 12.1046 14.8954 13 16 13Z" stroke="white" stroke-width="2" stroke-miterlimit="10" stroke-linecap="round" stroke-linejoin="round"/>
<path d="M19.2 21H25L29 29H3L7 21H12.8" stroke="white" stroke-width="2" stroke-miterlimit="10" stroke-linecap="round" stroke-linejoin="round"/>
</svg>
