<svg width="101" height="101" viewBox="0 0 101 101" fill="none" xmlns="http://www.w3.org/2000/svg">
<path d="M50.2721 50.4435C45.6887 50.4435 41.9387 48.972 39.0221 46.029C36.1054 43.0861 34.6471 39.3023 34.6471 34.6777C34.6471 30.0531 36.1054 26.2693 39.0221 23.3263C41.9387 20.3834 45.6887 18.9119 50.2721 18.9119C54.8554 18.9119 58.6054 20.3834 61.5221 23.3263C64.4387 26.2693 65.8971 30.0531 65.8971 34.6777C65.8971 39.3023 64.4387 43.0861 61.5221 46.029C58.6054 48.972 54.8554 50.4435 50.2721 50.4435ZM16.9387 84.1822V74.3023C16.9387 71.6397 17.5984 69.3624 18.9179 67.4705C20.2373 65.5786 21.9387 64.1422 24.0221 63.1612C28.6748 61.0591 33.1366 59.4825 37.4075 58.4314C41.6783 57.3804 45.9665 56.8549 50.2721 56.8549C54.5776 56.8549 58.8484 57.3979 63.0846 58.484C67.3207 59.5701 71.7624 61.1359 76.4097 63.1816C78.5833 64.1714 80.326 65.6066 81.6378 67.4873C82.9495 69.368 83.6054 71.6397 83.6054 74.3023V84.1822H16.9387ZM23.1887 77.8759H77.3554V74.3023C77.3554 73.1812 77.0255 72.1126 76.3658 71.0966C75.7061 70.0806 74.8901 69.3273 73.9179 68.8369C69.4734 66.6647 65.4109 65.1757 61.7304 64.3699C58.0498 63.5641 54.2304 63.1612 50.2721 63.1612C46.3137 63.1612 42.4596 63.5641 38.7096 64.3699C34.9596 65.1757 30.8971 66.6647 26.5221 68.8369C25.5498 69.3273 24.7512 70.0806 24.1262 71.0966C23.5012 72.1126 23.1887 73.1812 23.1887 74.3023V77.8759ZM50.2721 44.1372C52.9804 44.1372 55.22 43.2438 56.9908 41.457C58.7616 39.6702 59.6471 37.4104 59.6471 34.6777C59.6471 31.945 58.7616 29.6852 56.9908 27.8984C55.22 26.1116 52.9804 25.2182 50.2721 25.2182C47.5637 25.2182 45.3241 26.1116 43.5533 27.8984C41.7825 29.6852 40.8971 31.945 40.8971 34.6777C40.8971 37.4104 41.7825 39.6702 43.5533 41.457C45.3241 43.2438 47.5637 44.1372 50.2721 44.1372Z" fill="white"/>
</svg>
