<svg width="150" height="150" viewBox="0 0 150 150" fill="none" xmlns="http://www.w3.org/2000/svg">
<path d="M112.5 51.0937C112.5 83.9062 75 112.5 75 112.5C75 112.5 37.5 83.9062 37.5 51.0937C37.5 30.4687 54.375 14.0625 75 14.0625C95.625 14.0625 112.5 30.4687 112.5 51.0937Z" stroke="white" stroke-width="2" stroke-miterlimit="10" stroke-linecap="round" stroke-linejoin="round"/>
<path d="M75 60.9375C80.1778 60.9375 84.375 56.7403 84.375 51.5625C84.375 46.3848 80.1778 42.1875 75 42.1875C69.8222 42.1875 65.625 46.3848 65.625 51.5625C65.625 56.7403 69.8222 60.9375 75 60.9375Z" stroke="white" stroke-width="2" stroke-miterlimit="10" stroke-linecap="round" stroke-linejoin="round"/>
<path d="M90 98.4375H117.188L135.938 135.938H14.0625L32.8125 98.4375H60" stroke="white" stroke-width="2" stroke-miterlimit="10" stroke-linecap="round" stroke-linejoin="round"/>
</svg>
