<svg width="40" height="41" viewBox="0 0 40 41" fill="none" xmlns="http://www.w3.org/2000/svg">
<g clip-path="url(#clip0_182_792)">
<path d="M8.57143 0.015625C3.83929 0.015625 0 3.375 0 7.51562V32.5156C0 36.6562 3.83929 40.0156 8.57143 40.0156H34.2857H37.1429C38.7232 40.0156 40 38.8984 40 37.5156C40 36.1328 38.7232 35.0156 37.1429 35.0156V30.0156C38.7232 30.0156 40 28.8984 40 27.5156V2.51562C40 1.13281 38.7232 0.015625 37.1429 0.015625H34.2857H8.57143ZM8.57143 30.0156H31.4286V35.0156H8.57143C6.99107 35.0156 5.71429 33.8984 5.71429 32.5156C5.71429 31.1328 6.99107 30.0156 8.57143 30.0156ZM11.4286 11.2656C11.4286 10.5781 12.0714 10.0156 12.8571 10.0156H30C30.7857 10.0156 31.4286 10.5781 31.4286 11.2656C31.4286 11.9531 30.7857 12.5156 30 12.5156H12.8571C12.0714 12.5156 11.4286 11.9531 11.4286 11.2656ZM12.8571 15.0156H30C30.7857 15.0156 31.4286 15.5781 31.4286 16.2656C31.4286 16.9531 30.7857 17.5156 30 17.5156H12.8571C12.0714 17.5156 11.4286 16.9531 11.4286 16.2656C11.4286 15.5781 12.0714 15.0156 12.8571 15.0156Z" fill="#F2F2F2"/>
</g>
<defs>
<clipPath id="clip0_182_792">
<rect width="40" height="40" fill="white" transform="translate(0 0.015625)"/>
</clipPath>
</defs>
</svg>
