<svg width="50" height="41" viewBox="0 0 50 41" fill="none" xmlns="http://www.w3.org/2000/svg">
<g filter="url(#filter0_d_1460_12)">
<path d="M19.6216 0.693519C17.7269 0.982948 16.0485 2.35969 15.5035 4.08062C15.391 4.41699 15.3564 5.05842 15.3132 6.9358L15.2699 9.36075L14.7422 9.59542C14.1539 9.86138 13.7126 10.3151 13.5656 10.8235C13.505 11.0191 13.4791 11.7701 13.4964 12.8339L13.5223 14.5235L13.7646 14.899C14.0241 15.2901 14.5778 15.7047 15.0623 15.869C15.218 15.9159 15.6419 15.9629 16.0053 15.9629L16.6714 15.9707L16.7666 16.2992C17.2597 18.0671 18.3412 19.5377 19.9071 20.5781L20.4002 20.9066V22.0252C20.4002 22.651 20.3743 23.2064 20.3483 23.2768C20.2964 23.3863 19.7946 23.402 15.5381 23.402C10.2607 23.402 10.477 23.3785 9.8714 23.9261C9.42153 24.3407 9.32636 24.6301 9.32636 25.6627V26.5701L8.72076 27.0629C7.7864 27.8295 7.1462 28.7681 6.8607 29.8085C6.79149 30.051 6.38487 32.1083 5.9523 34.3925C5.39861 37.2868 5.17367 38.6479 5.20827 38.906C5.28614 39.5631 5.76197 40.1654 6.47139 40.5018C6.76553 40.6426 7.39709 40.6504 25.2018 40.6504C42.8853 40.6504 43.638 40.6426 43.9494 40.5096C44.6675 40.181 45.1433 39.5553 45.2039 38.8512C45.2472 38.3975 43.7764 30.4969 43.4909 29.6208C43.1708 28.6586 42.7642 28.0485 41.8644 27.235L41.0512 26.4918L41.1031 25.7722C41.1896 24.6223 40.8436 23.9339 40.013 23.5662C39.6497 23.402 39.5286 23.402 34.8741 23.402H30.1071L30.0552 23.2221C30.0293 23.1282 30.0033 22.5728 30.0033 21.9939V20.9301L30.756 20.3903C31.4221 19.9054 32.1316 19.2405 32.5122 18.732C32.6247 18.5834 32.7891 18.5443 33.611 18.4426C35.1855 18.2627 35.3672 18.0906 35.3672 16.7686V15.9081L35.7392 15.7125C36.2324 15.4466 36.5265 15.1493 36.7687 14.68C36.9591 14.3123 36.9677 14.195 36.9677 12.6462C36.9677 11.0035 36.9677 11.0035 36.7255 10.5576C36.4486 10.0413 35.9122 9.59542 35.4364 9.46244L35.1077 9.37639V8.75842C35.1077 8.41424 35.0644 8.06223 35.0038 7.96836C34.7789 7.57724 34.4069 7.49902 34.0349 7.76498C33.8099 7.92143 33.8099 7.92143 33.8099 9.07914V10.2369L33.2476 10.409C32.9362 10.495 32.6593 10.5732 32.642 10.5732C32.616 10.5732 32.5987 9.66582 32.5987 8.55504C32.5987 6.2005 32.5641 6.03623 31.8893 5.37132C31.2405 4.72988 30.8685 4.62819 29.0949 4.62819C27.4857 4.62819 27.2954 4.6673 26.3957 5.22269C25.4873 5.78591 24.9076 5.77809 23.9733 5.19923C23.1168 4.6673 22.9178 4.62819 21.3173 4.62819C19.6821 4.62819 19.3274 4.70642 18.7132 5.19141C18.4969 5.3635 18.2114 5.69204 18.0816 5.91107L17.848 6.31001L17.8221 8.44553C17.7961 10.2994 17.7788 10.581 17.6664 10.5419C17.5971 10.5185 17.3289 10.4402 17.0694 10.3698L16.5936 10.2525V7.85102C16.5936 6.52904 16.6368 5.18358 16.6801 4.87069C16.8358 3.79119 17.4933 2.87597 18.4969 2.32058C19.388 1.82777 19.587 1.81212 25.2104 1.81212C28.2557 1.81212 30.4272 1.84341 30.7041 1.89035C31.6817 2.05462 32.6074 2.63348 33.1611 3.41572C33.5071 3.90853 33.6975 4.44045 33.7753 5.13665C33.8359 5.73897 34.0349 6.03623 34.3809 6.03623C34.9346 6.03623 35.1509 5.69204 35.0644 4.94891C34.8827 3.22016 33.8359 1.83559 32.1835 1.10811C31.1453 0.646585 31.0069 0.638762 25.1585 0.654407C22.2343 0.654407 19.7427 0.677874 19.6216 0.693519ZM23.1773 6.13792C24.6048 7.01403 25.7295 7.02967 27.157 6.18485L27.8058 5.80155H29.1036C30.5484 5.80155 30.7906 5.87195 31.128 6.36477C31.2924 6.60726 31.301 6.76371 31.301 8.9931C31.301 11.6058 31.3356 11.7935 31.8115 12.0125C31.9499 12.0829 32.1748 12.1377 32.2959 12.1377H32.5295L32.4949 14.0307C32.4603 15.8768 32.4603 15.9472 32.2181 16.573C32.0797 16.9328 31.9239 17.277 31.872 17.3396C31.8028 17.4257 31.3962 17.5039 30.4359 17.6134L29.1036 17.762L28.7402 17.4569C28.2038 17.0111 27.8578 16.9407 26.7936 17.058C25.7728 17.1675 25.5478 17.2379 25.2191 17.5195C24.2415 18.3565 24.5875 19.7802 25.8593 20.1244C26.1188 20.2026 26.413 20.2026 27.1224 20.1322C28.2298 20.0227 28.671 19.8271 29.0084 19.2952C29.2679 18.9041 29.2852 18.8963 30.1677 18.8259C30.929 18.7555 30.929 18.7711 30.012 19.4282C29.2074 20.0149 27.8751 20.6016 26.8888 20.8128C23.4455 21.5637 19.6302 19.835 18.3758 16.9563C17.9692 16.0489 17.8913 15.5248 17.8913 13.7569V12.1377H18.1076C18.445 12.1377 18.8256 11.9265 18.9727 11.6684C19.0765 11.4806 19.1025 11.0347 19.1025 9.07132C19.1025 6.42735 19.1198 6.32565 19.6994 5.98147C19.9763 5.8172 20.0888 5.80155 21.3086 5.80155H22.6323L23.1773 6.13792ZM15.6679 11.3007C15.7371 11.3242 15.9707 11.3711 16.1956 11.3946L16.5936 11.4493V13.1233V14.7973H16.0658C15.4689 14.7973 15.1401 14.6565 14.9152 14.328C14.7162 14.0229 14.7076 11.3085 14.9065 10.9643C15.0969 10.6358 15.2353 10.6358 15.391 10.9643C15.4775 11.1208 15.5987 11.2772 15.6679 11.3007ZM35.4883 10.9174C35.6527 11.113 35.67 11.2381 35.67 12.5992C35.67 14.2263 35.6354 14.3749 35.1423 14.6409C34.9519 14.7504 34.7183 14.7973 34.3377 14.7973H33.8099V13.1233V11.4493L34.2685 11.3946C34.7876 11.332 34.9865 11.199 35.0644 10.8705C35.1336 10.6045 35.2461 10.6123 35.4883 10.9174ZM34.0695 16.5965C34.0695 17.0736 34.0435 17.2223 33.9484 17.2223C33.8878 17.2223 33.7148 17.2457 33.5677 17.2692L33.2995 17.3161L33.4552 16.8624C33.5504 16.6043 33.6456 16.3071 33.6715 16.1819C33.7061 16.0411 33.784 15.9707 33.8965 15.9707C34.0522 15.9707 34.0695 16.0254 34.0695 16.5965ZM27.8231 18.2548C27.9702 18.3878 27.9529 18.6694 27.7972 18.7868C27.5896 18.9432 26.2313 19.0684 26.0669 18.9432C25.9025 18.818 25.8939 18.5208 26.0583 18.4035C26.3005 18.2235 27.6588 18.1062 27.8231 18.2548ZM23.3936 21.9939C24.8557 22.2834 26.6552 22.1817 28.1259 21.7202L28.7056 21.5324V22.432V23.3238H25.2018H21.6979V22.4242V21.5246L22.1565 21.681C22.4073 21.7671 22.9697 21.9079 23.3936 21.9939ZM39.5199 24.6536C39.6064 24.6927 39.7102 24.8257 39.7621 24.9508C39.8227 25.0994 39.7189 26.9299 39.4247 31.1462C39.1998 34.4394 39.0095 37.1381 39.0095 37.146C39.0008 37.1616 33.7667 37.1772 27.3733 37.1851C16.0745 37.2085 15.7371 37.2164 15.5641 37.3572C15.3305 37.5527 15.3218 37.9751 15.5554 38.1863C15.7284 38.3428 15.8409 38.3428 28.2298 38.3428C39.0441 38.3428 40.7744 38.3584 40.982 38.4601C41.3973 38.6479 41.4578 39.0233 41.1204 39.3206L40.9128 39.5161H25.245C14.3615 39.5161 9.52534 39.4927 9.40422 39.4301C8.963 39.2189 9.03221 38.5775 9.51669 38.4288C9.67242 38.3819 10.503 38.3428 11.4633 38.3428C12.3976 38.3428 13.2109 38.3115 13.306 38.2646C13.5396 38.155 13.6607 37.7796 13.531 37.5527C13.3752 37.2555 13.0724 37.1694 12.2073 37.1694H11.42L11.3681 36.6062C11.2556 35.4407 10.6241 25.8739 10.6241 25.3889C10.6241 24.9821 10.6587 24.8648 10.8144 24.7318C11.0047 24.5753 11.0307 24.5753 25.1845 24.5753C34.2598 24.5753 39.4161 24.6066 39.5199 24.6536ZM9.75893 32.2022C9.89736 34.3534 10.0358 36.3402 10.0704 36.6218L10.1223 37.1381L9.54265 37.2242C8.82458 37.3337 8.3747 37.5997 8.0546 38.0846C7.85562 38.3975 7.81236 38.5462 7.82101 38.992V39.5161H7.44035C7.12024 39.5161 7.00777 39.4692 6.76553 39.2502C6.60116 39.1016 6.47139 38.906 6.47139 38.8043C6.47139 38.4914 8.01999 30.4187 8.16707 29.9728C8.3574 29.3861 8.63425 28.909 9.08412 28.4005C9.37827 28.0641 9.45613 28.0094 9.47344 28.1345C9.49074 28.2206 9.61186 30.051 9.75893 32.2022ZM41.4405 28.5335C41.8039 28.9637 42.0807 29.4487 42.2624 29.965C42.4008 30.3796 43.9321 38.4366 43.9321 38.7652C43.9321 38.9138 43.837 39.0703 43.638 39.2502C43.3871 39.477 43.2833 39.5161 42.9545 39.5161H42.5566L42.6085 39.1016C42.6431 38.773 42.6171 38.6009 42.47 38.2958C42.1326 37.6075 41.6655 37.3024 40.7917 37.2085L40.2899 37.1538L40.3331 36.8643C40.3591 36.7079 40.5062 34.6741 40.6619 32.3352C40.8436 29.5347 40.9733 28.1032 41.0339 28.1189C41.0772 28.1345 41.2675 28.3223 41.4405 28.5335Z" fill="#F2F2F2" stroke="#F2F2F2" stroke-width="0.6" stroke-miterlimit="3.32551"/>
<path d="M24.5875 25.5216C22.5372 25.6937 20.7377 26.7967 19.76 28.4863C18.4883 30.6687 19.016 33.4144 21.0318 35.1041C22.5891 36.4104 24.7 36.9032 26.7591 36.426C27.754 36.1992 28.6797 35.7064 29.4929 34.9789C30.3408 34.2201 30.8079 33.5396 31.0934 32.6322C31.7509 30.5827 31.1713 28.5802 29.4929 27.0783C28.1952 25.9127 26.4736 25.373 24.5875 25.5216ZM26.4563 26.8045C28.2125 27.2269 29.5794 28.5411 29.9601 30.1681C30.1158 30.8565 30.1158 31.2007 29.9601 31.889C29.5621 33.5787 28.2212 34.8537 26.3697 35.2996C25.7728 35.4482 24.5097 35.4248 23.9127 35.2683L23.411 35.1275L23.6099 34.9241C24.1117 34.447 24.5875 34.3062 26.413 34.1106C27.4339 34.0089 27.9097 33.8055 28.1346 33.3753C28.2904 33.078 28.7056 31.0677 28.7056 30.5905C28.7056 30.262 28.472 29.9491 28.0827 29.7692C27.6242 29.5501 27.3647 29.6675 26.4044 30.5201C25.9285 30.9504 25.47 31.3024 25.3921 31.3024C25.3143 31.3024 25.2105 31.232 25.1585 31.1459C25.072 31.0051 25.1672 30.8878 25.9804 30.129C26.8283 29.3311 26.8888 29.2529 26.8888 28.9635C26.8888 28.7053 26.8283 28.588 26.5601 28.3298C26.1535 27.9465 26.0842 27.9465 24.4232 28.2125C22.9351 28.455 22.7361 28.5098 22.4593 28.7835C22.1651 29.0652 22.0786 29.3468 21.9143 30.5983C21.7412 31.8265 21.6461 32.0846 21.1616 32.5305L20.7982 32.8668L20.6857 32.6165C20.3829 31.9751 20.2878 30.7391 20.4868 30.043C20.902 28.5489 22.044 27.4068 23.6359 26.9062C24.2155 26.7263 24.4837 26.6871 25.1585 26.6871C25.6084 26.6871 26.1967 26.7419 26.4563 26.8045ZM24.5356 29.7926C23.93 30.3558 23.8349 30.5279 23.8349 31.0286C23.8349 31.6544 24.1809 32.1081 24.8298 32.3584C25.4873 32.6009 26.0237 32.4601 26.7504 31.8499L27.2954 31.3884L27.1657 32.069C27.0965 32.4444 27.0186 32.773 26.984 32.8043C26.9494 32.8356 26.3611 32.9294 25.6776 33.0155C23.9127 33.2345 23.5753 33.3597 22.6842 34.1419L22.2344 34.5252L21.8796 34.2358L21.5249 33.9463L22.0094 33.4613C22.8227 32.6556 22.987 32.2645 23.2206 30.6375C23.2985 30.0742 23.3763 29.6049 23.3936 29.5893C23.4369 29.5501 24.527 29.3702 24.8125 29.3546C25.0028 29.3468 24.9769 29.3937 24.5356 29.7926Z" fill="#F2F2F2" stroke="#F2F2F2" stroke-width="0.6" stroke-miterlimit="3.32551"/>
</g>
<defs>
<filter id="filter0_d_1460_12" x="0.905029" y="0.350586" width="48.5996" height="48.5996" filterUnits="userSpaceOnUse" color-interpolation-filters="sRGB">
<feFlood flood-opacity="0" result="BackgroundImageFix"/>
<feColorMatrix in="SourceAlpha" type="matrix" values="0 0 0 0 0 0 0 0 0 0 0 0 0 0 0 0 0 0 127 0" result="hardAlpha"/>
<feOffset dy="4"/>
<feGaussianBlur stdDeviation="2"/>
<feComposite in2="hardAlpha" operator="out"/>
<feColorMatrix type="matrix" values="0 0 0 0 0 0 0 0 0 0 0 0 0 0 0 0 0 0 0.25 0"/>
<feBlend mode="normal" in2="BackgroundImageFix" result="effect1_dropShadow_1460_12"/>
<feBlend mode="normal" in="SourceGraphic" in2="effect1_dropShadow_1460_12" result="shape"/>
</filter>
</defs>
</svg>
