<svg width="121" height="126" viewBox="0 0 121 126" fill="none" xmlns="http://www.w3.org/2000/svg">
<path d="M119.859 63.0919C119.859 96.9089 93.3109 124.268 60.6287 124.268C27.9464 124.268 1.39844 96.9089 1.39844 63.0919C1.39844 29.2749 27.9464 1.91553 60.6287 1.91553C93.3109 1.91553 119.859 29.2749 119.859 63.0919Z" fill="#D9D9D9" stroke="#F2F2F2" stroke-width="2"/>
<path d="M58 56.3969C53.6 56.3969 50 54.9531 47.2 52.0656C44.4 49.1781 43 45.4656 43 40.9281C43 36.3906 44.4 32.6781 47.2 29.7906C50 26.9031 53.6 25.4594 58 25.4594C62.4 25.4594 66 26.9031 68.8 29.7906C71.6 32.6781 73 36.3906 73 40.9281C73 45.4656 71.6 49.1781 68.8 52.0656C66 54.9531 62.4 56.3969 58 56.3969ZM26 89.5V79.8063C26 77.1938 26.6333 74.9594 27.9 73.1031C29.1667 71.2469 30.8 69.8375 32.8 68.875C37.2667 66.8125 41.55 65.2656 45.65 64.2344C49.75 63.2031 53.8667 62.6875 58 62.6875C62.1333 62.6875 66.2333 63.2203 70.3 64.2859C74.3667 65.3516 78.6307 66.8879 83.0921 68.895C85.1788 69.8662 86.8518 71.2744 88.1111 73.1196C89.3704 74.9649 90 77.1938 90 79.8063V89.5H26ZM32 83.3125H84V79.8063C84 78.7063 83.6833 77.6578 83.05 76.6609C82.4167 75.6641 81.6333 74.925 80.7 74.4438C76.4333 72.3125 72.5333 70.8516 69 70.0609C65.4667 69.2703 61.8 68.875 58 68.875C54.2 68.875 50.5 69.2703 46.9 70.0609C43.3 70.8516 39.4 72.3125 35.2 74.4438C34.2667 74.925 33.5 75.6641 32.9 76.6609C32.3 77.6578 32 78.7063 32 79.8063V83.3125ZM58 50.2094C60.6 50.2094 62.75 49.3328 64.45 47.5797C66.15 45.8266 67 43.6094 67 40.9281C67 38.2469 66.15 36.0297 64.45 34.2766C62.75 32.5234 60.6 31.6469 58 31.6469C55.4 31.6469 53.25 32.5234 51.55 34.2766C49.85 36.0297 49 38.2469 49 40.9281C49 43.6094 49.85 45.8266 51.55 47.5797C53.25 49.3328 55.4 50.2094 58 50.2094Z" fill="#F2F2F2"/>
</svg>
