<svg width="103" height="122" viewBox="0 0 103 122" fill="none" xmlns="http://www.w3.org/2000/svg">
<mask id="mask0_1239_79" style="mask-type:luminance" maskUnits="userSpaceOnUse" x="14" y="65" width="59" height="57">
<path d="M14.6282 65.3083H72.6655V121.746H14.6282V65.3083Z" fill="white"/>
</mask>
<g mask="url(#mask0_1239_79)">
<path fill-rule="evenodd" clip-rule="evenodd" d="M14.6497 84.9613C25.451 98.4935 40.4276 110.442 51.8048 121.765C57.9955 115.603 65.232 109.259 72.3156 102.577L34.4818 65.5376L14.6497 84.9613Z" fill="#048ABF"/>
</g>
<mask id="mask1_1239_79" style="mask-type:luminance" maskUnits="userSpaceOnUse" x="0" y="5" width="30" height="76">
<path d="M0.637695 5.89722H29.2266V80.5954H0.637695V5.89722Z" fill="white"/>
</mask>
<g mask="url(#mask1_1239_79)">
<path fill-rule="evenodd" clip-rule="evenodd" d="M29.0518 6.18091C27.9934 6.69663 26.953 7.24628 25.9335 7.83122C24.9127 8.41751 23.914 9.03638 22.9377 9.68917C21.9613 10.3433 21.0099 11.0287 20.0822 11.7466C19.1545 12.4646 18.2533 13.2124 17.3784 13.9927C16.5036 14.7717 15.658 15.5793 14.8401 16.4153C14.0237 17.2526 13.2365 18.1158 12.4813 19.0061C11.7246 19.895 11.0014 20.8098 10.3101 21.7489C9.61889 22.6881 8.96101 23.6489 8.33791 24.6329C7.71481 25.6168 7.12788 26.6211 6.57571 27.6444C6.02493 28.6677 5.50893 29.7087 5.03187 30.7672C4.55342 31.8258 4.11391 32.8993 3.71195 33.9878C3.31 35.0762 2.94699 36.1769 2.62292 37.2911C2.29885 38.404 2.01512 39.5264 1.77172 40.6582C1.52693 41.7915 1.32387 42.9301 1.15974 44.0769C0.997016 45.2224 0.874621 46.3732 0.792561 47.5282C0.710501 48.6818 0.670166 49.8381 0.670166 50.9957C0.670166 61.6766 4.89 71.3803 11.2211 80.3715L29.0518 62.9048V6.18091Z" fill="#025E73"/>
</g>
<mask id="mask2_1239_79" style="mask-type:luminance" maskUnits="userSpaceOnUse" x="70" y="29" width="33" height="32">
<path d="M70.8853 29.5227H102.976V60.0968H70.8853V29.5227Z" fill="white"/>
</mask>
<g mask="url(#mask2_1239_79)">
<path fill-rule="evenodd" clip-rule="evenodd" d="M101.946 59.9639C102.608 57.0093 102.94 54.0195 102.944 50.9957C102.946 47.3422 102.542 43.7336 101.733 40.1669C100.925 36.6017 99.7287 33.164 98.1473 29.8552H71.1704L101.946 59.9639Z" fill="#F58439"/>
</g>
<mask id="mask3_1239_79" style="mask-type:luminance" maskUnits="userSpaceOnUse" x="34" y="0" width="62" height="25">
<path d="M34.5674 0.962646H95.0971V24.3112H34.5674V0.962646Z" fill="white"/>
</mask>
<g mask="url(#mask3_1239_79)">
<path fill-rule="evenodd" clip-rule="evenodd" d="M51.8056 0.962652C48.9057 0.961295 46.0266 1.1988 43.1684 1.67516C40.3102 2.15288 37.5146 2.86404 34.7788 3.80726V24.2475H95.0262C94.4518 23.3599 93.8509 22.4913 93.2223 21.6404C92.5922 20.7908 91.9357 19.9602 91.2542 19.15C90.5713 18.3397 89.8634 17.5512 89.129 16.7858C88.396 16.019 87.638 15.2766 86.8577 14.556C86.0761 13.8367 85.2722 13.1418 84.446 12.4714C83.6198 11.8023 82.7728 11.1576 81.9049 10.5401C81.0384 9.92128 80.1511 9.33091 79.2456 8.76769C78.3402 8.20447 77.4181 7.66974 76.4778 7.16352C75.5376 6.6573 74.5821 6.17958 73.6113 5.73172C72.6405 5.28521 71.6572 4.86721 70.6585 4.48041C69.6613 4.09362 68.6529 3.73805 67.632 3.41369C66.6112 3.08932 65.5819 2.79618 64.543 2.53425C63.5026 2.27367 62.4567 2.04431 61.4024 1.84752C60.3482 1.65073 59.2883 1.48787 58.2243 1.35623C57.1603 1.22458 56.0922 1.12551 55.0212 1.06037C53.9503 0.995224 52.8779 0.962652 51.8056 0.962652Z" fill="#FEBE15"/>
</g>
<path fill-rule="evenodd" clip-rule="evenodd" d="M76.4028 98.6308C86.474 88.7249 95.673 78.0441 100.12 66.101L62.9603 29.7427L48.8849 29.9028L34.8081 30.0575L34.6454 43.83L34.4827 57.5984L76.4028 98.6213V98.6308ZM41.8722 36.9791C42.085 36.7714 42.3145 36.5868 42.5635 36.4226C42.8125 36.2598 43.0753 36.1227 43.3521 36.01C43.6289 35.8974 43.914 35.8133 44.2075 35.7563C44.5023 35.6979 44.7986 35.6694 45.0976 35.6694C45.398 35.6694 45.6943 35.6979 45.9878 35.7549C46.2812 35.8119 46.5677 35.896 46.8445 36.0087C47.1213 36.1213 47.3842 36.2584 47.6331 36.4213C47.8821 36.5841 48.113 36.7687 48.3244 36.9763C48.5358 37.1826 48.725 37.4093 48.8919 37.6522C49.0588 37.8965 49.1992 38.153 49.3133 38.4244C49.4287 38.6945 49.515 38.9741 49.5734 39.2618C49.6318 39.5495 49.661 39.8386 49.661 40.1317C49.661 40.4249 49.6318 40.7153 49.5734 41.003C49.515 41.2908 49.4287 41.5703 49.3133 41.8404C49.1992 42.1118 49.0588 42.3684 48.8919 42.6126C48.725 42.8556 48.5358 43.0809 48.3244 43.2885C48.113 43.4962 47.8821 43.6807 47.6331 43.8436C47.3842 44.0064 47.1213 44.1435 46.8445 44.2562C46.5677 44.3674 46.2812 44.4529 45.9878 44.51C45.6943 44.567 45.398 44.5955 45.0976 44.5955C44.7986 44.5955 44.5023 44.5656 44.2075 44.5086C43.914 44.4516 43.6289 44.3661 43.3521 44.2548C43.0753 44.1422 42.8125 44.0037 42.5635 43.8409C42.3145 43.678 42.085 43.4934 41.8722 43.2858C41.6608 43.0781 41.4717 42.8529 41.3062 42.6099C41.1393 42.367 40.9988 42.1091 40.8847 41.8391C40.7693 41.569 40.6831 41.2894 40.6247 41.003C40.5662 40.7153 40.537 40.4249 40.537 40.1317C40.537 39.84 40.5662 39.5495 40.6247 39.2618C40.6831 38.9754 40.7693 38.6959 40.8847 38.4258C40.9988 38.1544 41.1393 37.8979 41.3062 37.6549C41.4717 37.4106 41.6608 37.1853 41.8722 36.9791Z" fill="#5ABF4B"/>
<mask id="mask4_1239_79" style="mask-type:luminance" maskUnits="userSpaceOnUse" x="23" y="19" width="58" height="57">
<path d="M23.645 19.9141H80.1747V75.0745H23.645V19.9141Z" fill="white"/>
</mask>
<g mask="url(#mask4_1239_79)">
<path d="M80.1747 47.4943C80.1747 47.9449 80.1636 48.3968 80.1399 48.8474C80.1177 49.298 80.0843 49.7485 80.0384 50.1978C79.9925 50.647 79.9368 51.0948 79.8687 51.5413C79.8005 51.9879 79.7213 52.4316 79.6309 52.8741C79.5418 53.3179 79.4403 53.7576 79.3277 54.196C79.215 54.633 79.0912 55.0686 78.9577 55.5002C78.8228 55.9318 78.6781 56.3606 78.5224 56.7854C78.3666 57.2102 78.1997 57.6309 78.023 58.0489C77.8464 58.4656 77.6586 58.8782 77.4611 59.2867C77.2636 59.6938 77.055 60.0969 76.8366 60.4945C76.6197 60.8935 76.3916 61.2858 76.1537 61.6726C75.9159 62.0607 75.6683 62.4421 75.411 62.8166C75.1537 63.1926 74.8881 63.5604 74.6127 63.9241C74.3373 64.2865 74.0522 64.642 73.7587 64.9908C73.4652 65.3396 73.1634 65.6816 72.8519 66.0155C72.5417 66.3507 72.2232 66.6764 71.8963 66.9967C71.5695 67.3156 71.2343 67.6264 70.8908 67.9291C70.5486 68.2331 70.1981 68.5276 69.8407 68.8139C69.4832 69.1003 69.1188 69.3772 68.7475 69.6472C68.3747 69.916 67.9978 70.1752 67.6125 70.4263C67.2287 70.6773 66.8378 70.9189 66.44 71.151C66.0437 71.383 65.6417 71.6043 65.2342 71.8173C64.8253 72.0304 64.4122 72.2326 63.9949 72.4267C63.5763 72.6194 63.1535 72.8026 62.7265 72.975C62.2981 73.1474 61.8669 73.3102 61.4316 73.4622C60.9963 73.6142 60.5568 73.7554 60.1145 73.887C59.6722 74.0173 59.2257 74.1381 58.7779 74.248C58.3286 74.3579 57.878 74.4557 57.4232 74.5439C56.9698 74.6321 56.5149 74.7094 56.0574 74.776C55.5998 74.8425 55.1408 74.8967 54.6804 74.9415C54.22 74.9863 53.7583 75.0189 53.2965 75.0406C52.8348 75.0637 52.3716 75.0745 51.9098 75.0745C51.4467 75.0745 50.9849 75.0637 50.5232 75.0406C50.06 75.0189 49.5996 74.9863 49.1393 74.9415C48.6789 74.8967 48.2199 74.8425 47.7623 74.776C47.3047 74.7094 46.8485 74.6321 46.3951 74.5439C45.9417 74.4557 45.4897 74.3579 45.0418 74.248C44.5926 74.1381 44.1475 74.0173 43.7052 73.887C43.2616 73.7554 42.8234 73.6142 42.3867 73.4622C41.9514 73.3102 41.5202 73.1474 41.0932 72.975C40.6662 72.8026 40.2434 72.6194 39.8248 72.4267C39.4061 72.2326 38.993 72.0304 38.5855 71.8173C38.178 71.6043 37.7747 71.383 37.3783 71.151C36.9819 70.9189 36.591 70.6773 36.2058 70.4263C35.8219 70.1752 35.4436 69.916 35.0722 69.6472C34.7009 69.3772 34.3365 69.1003 33.979 68.8139C33.6202 68.5276 33.2711 68.2331 32.9275 67.9291C32.5854 67.6264 32.2502 67.3156 31.9234 66.9967C31.5965 66.6764 31.2766 66.3507 30.9664 66.0155C30.6563 65.6816 30.3545 65.3396 30.061 64.9908C29.7675 64.642 29.4824 64.2865 29.207 63.9241C28.9316 63.5604 28.6646 63.1926 28.4087 62.8166C28.1514 62.4421 27.9038 62.0607 27.666 61.6726C27.4281 61.2858 27.2 60.8935 26.9817 60.4945C26.7633 60.0969 26.5561 59.6938 26.3586 59.2867C26.1611 58.8782 25.9733 58.4656 25.7967 58.0489C25.6186 57.6309 25.4531 57.2102 25.2973 56.7854C25.1416 56.3606 24.9955 55.9318 24.862 55.5002C24.7271 55.0686 24.6033 54.633 24.492 54.196C24.3794 53.7576 24.2779 53.3179 24.1875 52.8741C24.097 52.4316 24.0178 51.9879 23.951 51.5413C23.8829 51.0948 23.8258 50.647 23.7799 50.1978C23.7354 49.7485 23.7007 49.298 23.6784 48.8474C23.6561 48.3968 23.645 47.9449 23.645 47.4943C23.645 47.0424 23.6561 46.5918 23.6784 46.1412C23.7007 45.6893 23.7354 45.24 23.7799 44.7908C23.8258 44.3416 23.8829 43.8937 23.951 43.4472C24.0178 43.0007 24.097 42.5556 24.1875 42.1131C24.2779 41.6707 24.3794 41.2296 24.492 40.7926C24.6033 40.3543 24.7271 39.92 24.862 39.487C24.9955 39.0555 25.1416 38.628 25.2973 38.2018C25.4531 37.777 25.6186 37.3563 25.7967 36.9397C25.9733 36.5216 26.1611 36.1104 26.3586 35.7019C26.5561 35.2934 26.7633 34.8903 26.9817 34.4927C27.2 34.095 27.4281 33.7015 27.666 33.3147C27.9038 32.9279 28.1514 32.5465 28.4087 32.1706C28.6646 31.796 28.9316 31.4269 29.207 31.0645C29.4824 30.7021 29.7675 30.3466 30.061 29.9964C30.3545 29.6476 30.6563 29.307 30.9664 28.9718C31.2766 28.6379 31.5965 28.3108 31.9234 27.9919C32.2502 27.673 32.5854 27.3608 32.9275 27.0582C33.2711 26.7555 33.6202 26.4597 33.979 26.1733C34.3365 25.8869 34.7009 25.6101 35.0722 25.3414C35.4436 25.0726 35.8219 24.8121 36.2058 24.561C36.591 24.3113 36.9819 24.0697 37.3783 23.8376C37.7747 23.6055 38.178 23.383 38.5855 23.1699C38.993 22.9568 39.4061 22.7546 39.8248 22.5619C40.2434 22.3692 40.6662 22.186 41.0932 22.0122C41.5202 21.8399 41.9514 21.6784 42.3867 21.5264C42.8234 21.373 43.2616 21.2319 43.7052 21.1016C44.1475 20.9699 44.5926 20.8491 45.0418 20.7406C45.4897 20.6306 45.9417 20.5316 46.3951 20.4434C46.8485 20.3551 47.3047 20.2778 47.7623 20.2126C48.2199 20.1461 48.6789 20.0905 49.1393 20.0457C49.5996 20.0023 50.06 19.9683 50.5232 19.9466C50.9849 19.9249 51.4467 19.9141 51.9098 19.9141C52.3716 19.9141 52.8348 19.9249 53.2965 19.9466C53.7583 19.9683 54.22 20.0023 54.6804 20.0457C55.1408 20.0905 55.5998 20.1461 56.0574 20.2126C56.5149 20.2778 56.9698 20.3551 57.4232 20.4434C57.878 20.5316 58.3286 20.6306 58.7779 20.7406C59.2257 20.8491 59.6722 20.9699 60.1145 21.1016C60.5568 21.2319 60.9963 21.373 61.4316 21.5264C61.8669 21.6784 62.2981 21.8399 62.7265 22.0122C63.1535 22.186 63.5763 22.3692 63.9949 22.5619C64.4122 22.7546 64.8253 22.9568 65.2342 23.1699C65.6417 23.383 66.0437 23.6055 66.44 23.8376C66.8378 24.0697 67.2287 24.3113 67.6125 24.561C67.9978 24.8121 68.3747 25.0726 68.7475 25.3414C69.1188 25.6101 69.4832 25.8869 69.8407 26.1733C70.1981 26.4597 70.5486 26.7555 70.8908 27.0582C71.2343 27.3608 71.5695 27.673 71.8963 27.9919C72.2232 28.3108 72.5417 28.6379 72.8519 28.9718C73.1634 29.307 73.4652 29.6476 73.7587 29.9964C74.0522 30.3466 74.3373 30.7021 74.6127 31.0645C74.8881 31.4269 75.1537 31.796 75.411 32.1706C75.6683 32.5465 75.9159 32.9279 76.1537 33.3147C76.3916 33.7015 76.6197 34.095 76.8366 34.4927C77.055 34.8903 77.2636 35.2934 77.4611 35.7019C77.6586 36.1104 77.8464 36.5216 78.023 36.9397C78.1997 37.3563 78.3666 37.777 78.5224 38.2018C78.6781 38.628 78.8228 39.0555 78.9577 39.487C79.0912 39.92 79.215 40.3543 79.3277 40.7926C79.4403 41.2296 79.5418 41.6707 79.6309 42.1131C79.7213 42.5556 79.8005 43.0007 79.8687 43.4472C79.9368 43.8937 79.9925 44.3416 80.0384 44.7908C80.0843 45.24 80.1177 45.6893 80.1399 46.1412C80.1636 46.5918 80.1747 47.0424 80.1747 47.4943Z" fill="white"/>
</g>
<path d="M58.8846 57.9255V61.7853H43.0178V57.9255H48.6313V42.823C48.6313 42.4905 48.6369 42.1539 48.648 41.8133C48.6619 41.4699 48.6828 41.1211 48.7092 40.7655L45.004 43.773C44.7439 43.9617 44.4893 44.0811 44.2418 44.1313C43.997 44.1829 43.7633 44.1856 43.5408 44.1422C43.321 44.0987 43.1263 44.0227 42.9566 43.9142C42.7897 43.8056 42.659 43.6957 42.5672 43.583L40.8704 41.3573L49.5659 34.1643H53.9944V57.9255H58.8846Z" fill="#001E50"/>
<path d="M60.378 41.535C60.3252 41.6151 60.2696 41.6734 60.2111 41.7087C60.1555 41.7454 60.079 41.763 59.983 41.763C59.8829 41.763 59.78 41.7399 59.6771 41.6924C59.5727 41.6463 59.4559 41.5947 59.3266 41.5404C59.2 41.4834 59.054 41.4305 58.8871 41.383C58.7229 41.3328 58.5338 41.307 58.3196 41.307C57.9886 41.307 57.7313 41.3749 57.5463 41.5079C57.3641 41.6382 57.2737 41.8119 57.2737 42.029C57.2737 42.1783 57.3251 42.3032 57.4295 42.4036C57.5324 42.5054 57.6701 42.5936 57.8411 42.6696C58.0108 42.7429 58.2042 42.8107 58.4197 42.8759C58.6381 42.941 58.8606 43.0143 59.0873 43.093C59.3168 43.169 59.5394 43.2586 59.7549 43.359C59.9733 43.4608 60.168 43.587 60.3391 43.739C60.5088 43.8883 60.6465 44.0702 60.7508 44.2873C60.8537 44.5018 60.9066 44.7583 60.9066 45.0582C60.9066 45.4206 60.837 45.7558 60.7007 46.0625C60.5672 46.3665 60.3683 46.6298 60.1054 46.8497C59.8454 47.0709 59.5213 47.2446 59.1318 47.3708C58.7424 47.493 58.2932 47.5554 57.7855 47.5554C57.5212 47.5554 57.2625 47.531 57.0066 47.4848C56.7507 47.4414 56.5059 47.379 56.2723 47.2948C56.0414 47.208 55.8244 47.1102 55.6213 47.0017C55.4211 46.8904 55.2458 46.7682 55.0984 46.6379L55.5768 45.8996C55.6283 45.8128 55.6951 45.7463 55.7771 45.6988C55.8578 45.6486 55.9635 45.6228 56.0942 45.6228C56.2166 45.6228 56.3293 45.654 56.4336 45.7151C56.5365 45.7734 56.652 45.8386 56.7785 45.9105C56.9079 45.9797 57.0595 46.0449 57.2347 46.1059C57.4086 46.1643 57.627 46.1928 57.8912 46.1928C58.0873 46.1928 58.2556 46.1711 58.3975 46.1277C58.5421 46.0842 58.659 46.0272 58.748 45.9539C58.837 45.8779 58.901 45.7938 58.9427 45.6988C58.983 45.6051 59.0039 45.5074 59.0039 45.4056C59.0039 45.2428 58.9496 45.1111 58.8426 45.0093C58.7382 44.9048 58.6005 44.8139 58.4309 44.7379C58.2598 44.6592 58.0637 44.5886 57.8411 44.5262C57.6214 44.4651 57.3975 44.3959 57.168 44.3199C56.9371 44.2412 56.7132 44.1489 56.4948 44.0431C56.275 43.9385 56.0803 43.8069 55.9106 43.6468C55.7396 43.4839 55.6005 43.2858 55.4934 43.0496C55.3891 42.8148 55.3376 42.5271 55.3376 42.1865C55.3376 41.8797 55.3988 41.5879 55.5212 41.3124C55.6436 41.0383 55.8272 40.7954 56.072 40.585C56.3196 40.3719 56.6283 40.2036 56.9955 40.0801C57.3627 39.9539 57.7883 39.8901 58.2751 39.8901C58.8161 39.8901 59.3071 39.977 59.7494 40.1507C60.1945 40.3217 60.5589 40.5456 60.8454 40.8239L60.378 41.535Z" fill="#001E50"/>
<path d="M63.6801 47.5553C63.3352 47.5553 63.0292 47.5065 62.7622 47.4087C62.4951 47.311 62.2698 47.1726 62.089 46.9907C61.9068 46.8062 61.7677 46.5836 61.6717 46.323C61.5786 46.0624 61.5327 45.7693 61.5327 45.4436V41.4318H60.815C60.7065 41.4318 60.6147 41.3992 60.5368 41.3341C60.4617 41.2662 60.4255 41.1644 60.4255 41.0301V40.2484L61.6439 40.0312L62.0612 38.104C62.1126 37.8869 62.2628 37.7783 62.5118 37.7783H63.5744V40.0475H65.5439V41.4318H63.5744V45.3133C63.5744 45.5196 63.6245 45.6851 63.7246 45.8073C63.8276 45.9267 63.9722 45.9864 64.1586 45.9864C64.2587 45.9864 64.3422 45.9756 64.4089 45.9539C64.4785 45.9321 64.5383 45.9091 64.587 45.8833C64.6342 45.8548 64.6788 45.829 64.7205 45.8073C64.765 45.7856 64.8095 45.7747 64.854 45.7747C64.9124 45.7747 64.9611 45.7896 64.9986 45.8181C65.039 45.8439 65.0793 45.8874 65.121 45.9484L65.733 46.8984C65.4507 47.1156 65.1322 47.2812 64.7761 47.3925C64.4228 47.501 64.0584 47.5553 63.6801 47.5553Z" fill="#001E50"/>
</svg>
