<svg width="203" height="188" viewBox="0 0 203 188" fill="none" xmlns="http://www.w3.org/2000/svg">
<path d="M107.413 69.3365V67.5189V61.6984C107.413 61.1638 107.175 60.7958 106.924 60.6203C106.691 60.457 106.436 60.4375 106.179 60.5998L107.413 69.3365ZM107.413 69.3365L108.948 68.3636L121.2 60.6002C121.457 60.4375 121.712 60.4569 121.946 60.6203C122.196 60.7958 122.435 61.1637 122.435 61.6984V75.6787V87.4671C122.435 89.5145 121.053 90.8878 119.679 90.8878H87.1327C85.7585 90.8878 84.3774 89.5145 84.3774 87.4671V80.0994V75.6787V53.5754C84.3774 52.3385 85.1952 51.6283 85.881 51.6283H90.8881C91.5739 51.6283 92.3917 52.3385 92.3917 53.5754V67.5189V69.3365L93.9269 68.3636L106.178 60.6002L107.413 69.3365ZM120.13 58.9101L120.13 58.9105L109.413 65.7014V61.6984C109.413 60.5569 108.893 59.5572 108.071 58.9821C107.233 58.3949 106.103 58.2808 105.109 58.9101L105.108 58.9105L94.3917 65.7014V53.5754C94.3917 51.5522 92.9719 49.6283 90.8881 49.6283H85.881C83.7972 49.6283 82.3774 51.5522 82.3774 53.5754V75.6787V80.0994V87.4671C82.3774 90.3008 84.3605 92.8878 87.1327 92.8878H119.679C122.451 92.8878 124.435 90.3008 124.435 87.4671V75.6787V61.6984C124.435 60.5569 123.914 59.5572 123.093 58.9821C122.254 58.3949 121.125 58.2808 120.13 58.9101ZM1.29199 1.32227H201.755V186.92H1.29199V1.32227Z" fill="#D9D9D9" stroke="#F2F2F2" stroke-width="2"/>
<path d="M89.0202 132.73H78.5319V118.189H82.2819V129.917H89.0202V132.73ZM105.426 125.464C105.426 127.782 104.762 129.625 103.434 130.992C102.106 132.352 100.27 133.033 97.9265 133.033C95.5892 133.033 93.7565 132.352 92.4284 130.992C91.1003 129.625 90.4362 127.782 90.4362 125.464C90.4362 123.127 91.1003 121.281 92.4284 119.927C93.7565 118.567 95.5892 117.886 97.9265 117.886C100.257 117.886 102.09 118.567 103.425 119.927C104.759 121.281 105.426 123.127 105.426 125.464ZM100.456 129.146C100.82 128.703 101.091 128.182 101.266 127.583C101.442 126.978 101.53 126.268 101.53 125.455C101.53 124.582 101.429 123.84 101.227 123.228C101.025 122.616 100.762 122.121 100.436 121.744C100.104 121.353 99.7201 121.07 99.2839 120.894C98.8542 120.718 98.405 120.63 97.9362 120.63C97.461 120.63 97.0118 120.715 96.5886 120.884C96.1719 121.054 95.7878 121.333 95.4362 121.724C95.1107 122.089 94.8438 122.593 94.6355 123.238C94.4336 123.876 94.3327 124.618 94.3327 125.464C94.3327 126.33 94.4304 127.069 94.6257 127.681C94.8275 128.287 95.0912 128.781 95.4167 129.166C95.7422 129.55 96.1231 129.833 96.5593 130.015C96.9955 130.197 97.4545 130.289 97.9362 130.289C98.418 130.289 98.877 130.197 99.3132 130.015C99.7494 129.826 100.13 129.537 100.456 129.146ZM121.159 131.9C120.508 132.154 119.645 132.408 118.571 132.662C117.497 132.909 116.426 133.033 115.358 133.033C112.884 133.033 110.947 132.362 109.548 131.021C108.148 129.673 107.448 127.815 107.448 125.445C107.448 123.186 108.154 121.366 109.567 119.986C110.98 118.599 112.949 117.906 115.475 117.906C116.432 117.906 117.344 117.994 118.21 118.169C119.076 118.339 120.039 118.681 121.1 119.195V122.603H120.68C120.498 122.466 120.231 122.274 119.88 122.027C119.528 121.773 119.189 121.558 118.864 121.382C118.486 121.174 118.044 120.995 117.536 120.845C117.035 120.695 116.501 120.621 115.934 120.621C115.27 120.621 114.668 120.718 114.128 120.914C113.587 121.109 113.102 121.408 112.673 121.812C112.262 122.203 111.937 122.701 111.696 123.306C111.462 123.905 111.344 124.598 111.344 125.386C111.344 126.994 111.771 128.225 112.624 129.078C113.477 129.931 114.736 130.357 116.403 130.357C116.546 130.357 116.703 130.354 116.872 130.347C117.048 130.341 117.207 130.331 117.35 130.318V127.466H114.45V124.722H121.159V131.9ZM138.669 125.464C138.669 127.782 138.005 129.625 136.676 130.992C135.348 132.352 133.512 133.033 131.169 133.033C128.831 133.033 126.999 132.352 125.671 130.992C124.342 129.625 123.678 127.782 123.678 125.464C123.678 123.127 124.342 121.281 125.671 119.927C126.999 118.567 128.831 117.886 131.169 117.886C133.499 117.886 135.332 118.567 136.667 119.927C138.001 121.281 138.669 123.127 138.669 125.464ZM133.698 129.146C134.063 128.703 134.333 128.182 134.509 127.583C134.684 126.978 134.772 126.268 134.772 125.455C134.772 124.582 134.671 123.84 134.469 123.228C134.268 122.616 134.004 122.121 133.678 121.744C133.346 121.353 132.962 121.07 132.526 120.894C132.096 120.718 131.647 120.63 131.178 120.63C130.703 120.63 130.254 120.715 129.831 120.884C129.414 121.054 129.03 121.333 128.678 121.724C128.353 122.089 128.086 122.593 127.878 123.238C127.676 123.876 127.575 124.618 127.575 125.464C127.575 126.33 127.673 127.069 127.868 127.681C128.07 128.287 128.333 128.781 128.659 129.166C128.984 129.55 129.365 129.833 129.801 130.015C130.238 130.197 130.697 130.289 131.178 130.289C131.66 130.289 132.119 130.197 132.555 130.015C132.992 129.826 133.372 129.537 133.698 129.146Z" fill="#F2F2F2"/>
</svg>
