<svg width="41" height="36" viewBox="0 0 41 36" fill="none" xmlns="http://www.w3.org/2000/svg">
<path d="M11.1271 5.55225H14.4209V13.0522H7.37715L9.27715 7.12256C9.57715 6.17725 10.3084 5.55225 11.1271 5.55225ZM17.4209 13.0522V5.55225H22.4959C23.1021 5.55225 23.6771 5.896 24.0584 6.48975L28.2584 13.0522H17.4209ZM33.4334 13.1304L27.1834 3.36475C26.0459 1.5835 24.3209 0.552246 22.4959 0.552246H11.1271C8.6709 0.552246 6.46465 2.41943 5.5584 5.26318L2.9584 13.396C1.4709 14.1304 0.420898 15.9351 0.420898 18.0522V26.8022C0.420898 28.1851 1.31465 29.3022 2.4209 29.3022H4.50215C4.97715 32.8491 7.4459 35.5522 10.4209 35.5522C13.3959 35.5522 15.8646 32.8491 16.3396 29.3022H24.5021C24.9771 32.8491 27.4459 35.5522 30.4209 35.5522C33.3959 35.5522 35.8647 32.8491 36.3396 29.3022H38.4209C39.5271 29.3022 40.4209 28.1851 40.4209 26.8022V23.0522C40.4209 17.9585 37.3709 13.7554 33.4334 13.1304ZM27.5896 26.8022C27.717 26.3316 27.9178 25.8973 28.1806 25.5245C28.4433 25.1518 28.7627 24.848 29.1201 24.6308C29.4776 24.4136 29.866 24.2874 30.2628 24.2595C30.6596 24.2315 31.0569 24.3024 31.4317 24.468C31.8064 24.6337 32.151 24.8907 32.4456 25.2242C32.7401 25.5577 32.9788 25.9611 33.1475 26.4109C33.3163 26.8607 33.412 27.3479 33.4288 27.8442C33.4457 28.3406 33.3835 28.8362 33.2459 29.3022C33.1186 29.7729 32.9177 30.2072 32.655 30.58C32.3922 30.9527 32.0729 31.2565 31.7154 31.4737C31.358 31.6909 30.9695 31.8171 30.5727 31.845C30.1759 31.873 29.7786 31.8021 29.4039 31.6365C29.0292 31.4708 28.6845 31.2138 28.39 30.8803C28.0954 30.5468 27.8568 30.1434 27.688 29.6936C27.5192 29.2438 27.4236 28.7566 27.4067 28.2603C27.3898 27.7639 27.452 27.2683 27.5896 26.8022ZM10.4209 24.3022C11.2165 24.3022 11.9796 24.6973 12.5422 25.4006C13.1048 26.1039 13.4209 27.0577 13.4209 28.0522C13.4209 29.0468 13.1048 30.0006 12.5422 30.7039C11.9796 31.4072 11.2165 31.8022 10.4209 31.8022C9.62525 31.8022 8.86219 31.4072 8.29958 30.7039C7.73697 30.0006 7.4209 29.0468 7.4209 28.0522C7.4209 27.0577 7.73697 26.1039 8.29958 25.4006C8.86219 24.6973 9.62525 24.3022 10.4209 24.3022Z" fill="white"/>
</svg>
