<svg width="40" height="40" viewBox="0 0 40 40" fill="none" xmlns="http://www.w3.org/2000/svg">
<g clip-path="url(#clip0_1559_20)">
<path d="M5.00122 0C2.24212 0 9.4241e-07 2.24209 9.4241e-07 5.00122V18.1274V28.1238C-0.000896695 28.6649 0.639655 28.9515 1.04248 28.5901L7.11426 23.1238H8.125V29.3738C8.125 32.1329 10.3671 34.375 13.1262 34.375H32.8845L38.9563 39.8376C39.3591 40.201 40.0019 39.9137 40 39.3713C40 31.6638 40 23.9563 40 16.2488C40 13.4896 37.7567 11.2476 34.9976 11.2476H31.875V5.00122C31.875 2.24209 29.6329 0 26.8738 0H5.00122ZM26.8738 1.25C28.962 1.25 30.625 2.91296 30.625 5.00122V18.1274C30.625 19.776 29.5843 21.1545 28.1226 21.6638C28.1155 21.2064 28.0617 20.8673 27.9065 20.5676C27.7274 20.2215 27.3873 20.0327 27.1924 19.9499C26.9975 19.8673 26.9061 19.8339 26.7944 19.7375C26.6827 19.6412 26.532 19.46 26.3562 19.0271C26.1805 18.5942 26.164 18.3574 26.1768 18.2104C26.1886 18.0635 26.233 17.9794 26.3147 17.7808C26.3964 17.5821 26.5012 17.2034 26.3843 16.8311C26.2673 16.4587 26.0227 16.1414 25.614 15.7275C25.2053 15.3136 24.8904 15.0659 24.5203 14.9438C24.1501 14.8217 23.7712 14.9159 23.5706 14.9939C23.37 15.0718 23.2853 15.1178 23.136 15.1282C22.9867 15.1376 22.748 15.1164 22.3157 14.9341C21.8853 14.7524 21.7093 14.5985 21.6187 14.4873C21.5279 14.376 21.5027 14.2839 21.416 14.0759C21.3293 13.8681 21.1131 13.5155 20.7556 13.3423C20.3981 13.1691 19.9866 13.1262 19.3713 13.1262C18.756 13.1262 18.3495 13.1691 17.9919 13.3423C17.6344 13.5154 17.4194 13.868 17.3328 14.0759C17.2461 14.2838 17.2196 14.3761 17.1289 14.4873C17.0382 14.5986 16.8634 14.7523 16.4331 14.9341C16.0008 15.1167 15.7609 15.1386 15.6116 15.1282C15.4623 15.1187 15.3789 15.0718 15.1782 14.9939C14.9777 14.9162 14.5975 14.8217 14.2273 14.9438C13.8571 15.066 13.5422 15.3136 13.1335 15.7275C12.7248 16.1415 12.4801 16.4587 12.3633 16.8311C12.2464 17.2034 12.3516 17.5821 12.4329 17.7808C12.5146 17.9794 12.558 18.0635 12.5708 18.2104C12.5826 18.3574 12.5661 18.5942 12.3914 19.0271C12.2156 19.46 12.0648 19.6412 11.9531 19.7375C11.8414 19.8339 11.7514 19.8673 11.5564 19.9499C11.3615 20.0326 11.0201 20.2215 10.8411 20.5676C10.663 20.9119 10.6193 21.3056 10.6238 21.8738H6.87256C6.71902 21.8747 6.5714 21.9322 6.45752 22.0349L1.25 26.7212V18.1274V5.00122C1.25 2.91296 2.91174 1.25 5.00061 1.25H26.8738ZM4.37378 5.62378C4.02861 5.62512 3.74988 5.90604 3.75122 6.25122C3.75257 6.59449 4.03053 6.87243 4.37378 6.87378H27.5012C27.8445 6.8724 28.1224 6.59449 28.1238 6.25122C28.1252 5.90604 27.8464 5.62513 27.5012 5.62378H4.37378ZM4.37378 9.375C4.03053 9.37631 3.75257 9.65429 3.75122 9.99756C3.74988 10.3427 4.02861 10.6237 4.37378 10.625H27.5012C27.8464 10.6236 28.1251 10.3427 28.1238 9.99756C28.1224 9.65429 27.8445 9.37632 27.5012 9.375H4.37378ZM31.875 12.4988H34.9976C37.0858 12.4988 38.7488 14.1605 38.7488 16.2488C38.7488 23.4904 38.7488 30.732 38.7488 37.9736L33.54 33.2861C33.4262 33.1834 33.2784 33.1259 33.125 33.125H13.1262C11.038 33.125 9.375 31.462 9.375 29.3738V23.1238L10.8179 23.1275C11.0012 23.5187 11.2698 23.6783 11.5576 23.8025C11.7525 23.8852 11.8427 23.9137 11.9543 24.01C12.0661 24.1064 12.2168 24.2913 12.3926 24.7241C12.5683 25.157 12.5848 25.3938 12.572 25.5408C12.5602 25.6877 12.5158 25.7718 12.4341 25.9705C12.3524 26.1691 12.2358 26.5307 12.3645 26.9214C12.4814 27.2938 12.7261 27.6049 13.1348 28.0188C13.5435 28.4327 13.8583 28.6853 14.2285 28.8074C14.6206 28.9397 14.9788 28.8299 15.1794 28.7512C15.38 28.6733 15.4635 28.6322 15.6128 28.6219C15.7621 28.6124 16.002 28.6336 16.4343 28.8159C16.8647 28.9978 17.0394 29.1528 17.1301 29.2639C17.2208 29.3752 17.2473 29.4662 17.334 29.6741C17.437 29.9441 17.6356 30.2297 17.9932 30.4029C18.3507 30.576 18.756 30.6238 19.3713 30.6238C19.9866 30.6238 20.3981 30.576 20.7556 30.4029C21.1132 30.2297 21.3316 29.9155 21.416 29.6741C21.5027 29.4662 21.5279 29.3751 21.6187 29.2639C21.7094 29.1527 21.8853 28.9977 22.3157 28.8159C22.748 28.6333 22.9867 28.6115 23.136 28.6219C23.2853 28.6313 23.3698 28.6733 23.5706 28.7512C23.8099 28.8483 24.1501 28.9293 24.5203 28.8074C24.8904 28.6853 25.2053 28.4327 25.614 28.0188C26.0227 27.6049 26.2674 27.2938 26.3843 26.9214C26.5012 26.549 26.4269 26.2076 26.3147 25.9705C26.233 25.7718 26.1895 25.6877 26.1768 25.5408C26.1649 25.3939 26.1826 25.157 26.3574 24.7241C26.5332 24.2913 26.7095 24.0784 26.7957 24.01C26.8951 23.9255 26.9988 23.8854 27.1936 23.8025C27.3885 23.7198 27.7153 23.5651 27.9065 23.1787C27.9363 23.1213 27.9632 23.0622 27.9858 23.0017C30.2151 22.4976 31.875 20.5052 31.875 18.1274V12.4988ZM4.37378 13.1262C4.03053 13.1276 3.75257 13.4055 3.75122 13.7488C3.74988 14.094 4.02861 14.3749 4.37378 14.3762H11.8762C12.2214 14.3748 12.5001 14.094 12.4988 13.7488C12.4975 13.4055 12.2195 13.1276 11.8762 13.1262H4.37378ZM19.3726 14.375C19.9042 14.3751 20.1595 14.4332 20.2283 14.4812C20.3006 14.6166 20.4147 15.0001 20.6506 15.2759C20.893 15.5731 21.2665 15.8458 21.8274 16.0828C22.3863 16.3187 22.8438 16.401 23.2251 16.3745C23.4942 16.3727 23.9635 16.1865 24.1284 16.1291C24.1707 16.1433 24.3768 16.2584 24.7229 16.6089C25.069 16.9594 25.1769 17.1631 25.1868 17.1924C25.1962 17.2217 25.1853 17.2381 25.1575 17.3059C25.1017 17.4413 24.965 17.7187 24.9316 18.0994C24.8983 18.48 24.9713 18.9361 25.199 19.4971C25.4267 20.058 25.6893 20.4371 25.979 20.6873C26.2688 20.9374 26.5659 21.0405 26.7029 21.0986C26.7714 21.1277 26.7899 21.1323 26.7944 21.1389C26.811 21.176 26.8778 21.3867 26.8738 21.8738C26.8785 22.3608 26.8112 22.5764 26.7944 22.6135C26.7897 22.6206 26.7695 22.6254 26.7029 22.6526C26.5659 22.7107 26.2688 22.8139 25.979 23.064C25.6893 23.3141 25.4267 23.6932 25.199 24.2541C24.9713 24.8151 24.8984 25.2651 24.9316 25.6457C24.9649 26.0264 25.1017 26.3088 25.1575 26.4441C25.1853 26.5116 25.1957 26.5291 25.1941 26.5393C25.1776 26.5865 25.0689 26.7918 24.7229 27.1423C24.3767 27.4929 24.1707 27.6032 24.1284 27.6172C24.0861 27.6314 24.1595 27.6437 24.0222 27.5903C23.885 27.5372 23.6052 27.4044 23.2239 27.3779C22.8426 27.3515 22.385 27.4275 21.8262 27.6636C21.2653 27.9005 20.8918 28.1782 20.6494 28.4753C20.407 28.7725 20.3155 29.0671 20.2625 29.1943C20.2095 29.3217 20.2646 29.2516 20.2112 29.2773C20.1578 29.3031 19.9029 29.3738 19.3713 29.3738C18.8398 29.3738 18.5898 29.3031 18.5364 29.2773C18.483 29.2516 18.5388 29.3214 18.4863 29.1943C18.4334 29.067 18.3405 28.7713 18.0981 28.4741C17.8558 28.1769 17.4823 27.8992 16.9214 27.6623C16.3625 27.4264 15.905 27.3514 15.5237 27.3779C15.1424 27.4044 14.8625 27.536 14.7253 27.5891C14.5881 27.6423 14.6614 27.6311 14.6191 27.6172C14.5769 27.603 14.3708 27.4929 14.0247 27.1423C13.6785 26.7918 13.5711 26.5872 13.5535 26.5393C13.5513 26.5275 13.5629 26.5129 13.5901 26.4453C13.6458 26.31 13.7838 26.0276 13.8171 25.647C13.8504 25.2663 13.7763 24.8151 13.5486 24.2541C13.3209 23.6932 13.0595 23.3141 12.7698 23.064C12.48 22.8139 12.1817 22.7107 12.0447 22.6526C11.9778 22.6242 11.9595 22.6201 11.9543 22.6135C11.9378 22.5764 11.8707 22.364 11.875 21.875C11.8703 21.386 11.9383 21.1754 11.9543 21.1377C11.9591 21.1306 11.9779 21.1276 12.0459 21.0974C12.1829 21.0393 12.4812 20.9361 12.771 20.686C13.0607 20.4359 13.322 20.0568 13.5498 19.4958C13.7775 18.9349 13.8516 18.4788 13.8184 18.0981C13.7851 17.7175 13.6471 17.44 13.5913 17.3047C13.5634 17.2371 13.553 17.2208 13.5547 17.2107C13.5712 17.1634 13.6798 16.9582 14.0259 16.6077C14.372 16.2571 14.5781 16.1419 14.6204 16.1279C14.6626 16.1138 14.5893 16.1068 14.7266 16.1609C14.8636 16.214 15.1436 16.3468 15.5249 16.3733C15.9062 16.3997 16.3637 16.3175 16.9226 16.0815C17.4835 15.8446 17.857 15.5718 18.0994 15.2747C18.3418 14.9775 18.5181 14.4885 18.5181 14.4885C18.57 14.4377 18.8408 14.3729 19.3726 14.375ZM4.37378 16.8774C4.03053 16.8788 3.75257 17.1567 3.75122 17.5C3.74988 17.8452 4.02861 18.1261 4.37378 18.1274H10.0305C10.3776 18.1288 10.6593 17.8471 10.658 17.5C10.6566 17.1548 10.3757 16.8761 10.0305 16.8774H4.37378ZM33.7476 16.8774C33.4043 16.8788 33.1263 17.1567 33.125 17.5C33.1236 17.8452 33.4024 18.1261 33.7476 18.1274H35.6262C35.9714 18.1261 36.2501 17.8452 36.2488 17.5C36.2474 17.1567 35.9695 16.8788 35.6262 16.8774H33.7476ZM19.3726 18.1274C17.309 18.1274 15.6262 19.8102 15.6262 21.8738C15.6262 23.9374 17.309 25.6226 19.3726 25.6226C21.4362 25.6226 23.1226 23.9374 23.1226 21.8738C23.1226 19.8102 21.4362 18.1274 19.3726 18.1274ZM19.3726 19.3726C20.7606 19.3726 21.8726 20.4857 21.8726 21.8738C21.8726 23.2618 20.7606 24.3738 19.3726 24.3738C17.9845 24.3738 16.8774 23.2618 16.8774 21.8738C16.8774 20.4857 17.9845 19.3726 19.3726 19.3726ZM33.7476 20.6226C33.4019 20.6239 33.123 20.9056 33.125 21.2512C33.1263 21.5945 33.4043 21.8724 33.7476 21.8738H35.6262C35.9695 21.8724 36.2474 21.5945 36.2488 21.2512C36.2508 20.9056 35.9719 20.6239 35.6262 20.6226H33.7476ZM28.7463 24.3738C28.4012 24.3752 28.1224 24.6548 28.1238 25C28.1252 25.3433 28.4031 25.6212 28.7463 25.6226H35.6262C35.9695 25.6212 36.2474 25.3433 36.2488 25C36.2502 24.6548 35.9714 24.3751 35.6262 24.3738H28.7463ZM27.5012 28.1238C27.1561 28.1224 26.8751 28.4012 26.8738 28.7463C26.8724 29.0934 27.1541 29.3751 27.5012 29.3738H35.6262C35.9714 29.3724 36.2501 29.0915 36.2488 28.7463C36.2474 28.4031 35.9695 28.1251 35.6262 28.1238H27.5012Z" fill="black"/>
</g>
<defs>
<clipPath id="clip0_1559_20">
<rect width="40" height="40" fill="white"/>
</clipPath>
</defs>
</svg>
