<svg width="50" height="50" viewBox="0 0 50 50" fill="none" xmlns="http://www.w3.org/2000/svg">
<path fill-rule="evenodd" clip-rule="evenodd" d="M25.0003 5.729C14.3573 5.729 5.72949 14.3569 5.72949 24.9998C5.72949 28.0855 6.45351 30.9973 7.73949 33.5792C8.25562 34.6155 8.45437 35.8546 8.12872 37.0717L6.88787 41.7092C6.65997 42.5609 7.4392 43.3403 8.29093 43.1123L12.9285 41.8715C14.1456 41.5459 15.3847 41.7446 16.421 42.2607C19.0028 43.5467 21.9147 44.2707 25.0003 44.2707C35.6432 44.2707 44.2712 35.6428 44.2712 24.9998C44.2712 14.3569 35.6432 5.729 25.0003 5.729ZM2.60449 24.9998C2.60449 12.631 12.6315 2.604 25.0003 2.604C37.3693 2.604 47.3962 12.631 47.3962 24.9998C47.3962 37.3688 37.3693 47.3957 25.0003 47.3957C21.4205 47.3957 18.0327 46.5546 15.0277 45.058C14.5793 44.8346 14.1214 44.7871 13.7362 44.8903L9.09866 46.1311C5.92401 46.9805 3.01964 44.0761 3.86908 40.9015L5.10991 36.264C5.21299 35.8788 5.1656 35.4209 4.94226 34.9725C3.44555 31.9675 2.60449 28.5796 2.60449 24.9998ZM15.1045 21.8748C15.1045 21.0119 15.8041 20.3123 16.667 20.3123H33.3337C34.1966 20.3123 34.8962 21.0119 34.8962 21.8748C34.8962 22.7378 34.1966 23.4373 33.3337 23.4373H16.667C15.8041 23.4373 15.1045 22.7378 15.1045 21.8748ZM15.1045 29.1665C15.1045 28.3036 15.8041 27.604 16.667 27.604H28.1253C28.9882 27.604 29.6878 28.3036 29.6878 29.1665C29.6878 30.0294 28.9882 30.729 28.1253 30.729H16.667C15.8041 30.729 15.1045 30.0294 15.1045 29.1665Z" fill="#1C274C"/>
</svg>
