<svg width="50" height="50" viewBox="0 0 50 50" fill="none" xmlns="http://www.w3.org/2000/svg">
<path d="M27.6243 3.91713C27.7622 3.06528 28.5676 2.48742 29.4193 2.62532C29.4722 2.63542 29.6418 2.66713 29.7307 2.68692C29.9084 2.72651 30.1563 2.78747 30.4655 2.87753C31.0838 3.05761 31.9476 3.35428 32.9843 3.82957C35.0599 4.78115 37.822 6.44574 40.6882 9.31199C43.5545 12.1782 45.219 14.9403 46.1707 17.0159C46.6459 18.0526 46.9426 18.9164 47.1226 19.5347C47.2128 19.8439 47.2736 20.0918 47.3132 20.2696C47.333 20.3585 47.3476 20.4299 47.3576 20.4826L47.3697 20.5476C47.5076 21.3994 46.9349 22.2379 46.083 22.3758C45.2336 22.5133 44.4334 21.9383 44.2922 21.0904C44.2878 21.0677 44.2759 21.0067 44.263 20.949C44.2374 20.8335 44.1928 20.6505 44.1224 20.4086C43.9813 19.9245 43.7365 19.2051 43.3299 18.3183C42.5178 16.5468 41.0574 14.1006 38.4784 11.5217C35.8997 8.94282 33.4534 7.4824 31.682 6.67026C30.7951 6.26369 30.0757 6.01882 29.5915 5.87784C29.3497 5.80736 29.0455 5.73755 28.9301 5.71184C28.0822 5.57055 27.4868 4.76655 27.6243 3.91713Z" fill="#1C274C"/>
<path fill-rule="evenodd" clip-rule="evenodd" d="M28.0957 11.1039C28.3328 10.2741 29.1976 9.79367 30.0272 10.0307L29.598 11.5331C30.0272 10.0307 30.0272 10.0307 30.0272 10.0307L30.0303 10.0316L30.0334 10.0325L30.0405 10.0345L30.0566 10.0394L30.0978 10.0522C30.1293 10.0623 30.1684 10.0753 30.2153 10.0919C30.3089 10.1251 30.4324 10.1724 30.5841 10.2374C30.8876 10.3674 31.3024 10.5683 31.8118 10.8698C32.8316 11.4733 34.2234 12.4758 35.8589 14.1111C37.4943 15.7465 38.4968 17.1385 39.1001 18.1583C39.4018 18.6676 39.6026 19.0824 39.7326 19.3859C39.7976 19.5375 39.8449 19.6612 39.878 19.7548C39.8947 19.8015 39.9078 19.8408 39.9178 19.8722L39.9305 19.9134L39.9355 19.9296L39.9374 19.9365L39.9384 19.9397C39.9384 19.9397 39.9393 19.9427 38.4368 20.372L39.9393 19.9427C40.1764 20.7724 39.6959 21.6372 38.8662 21.8743C38.0434 22.1093 37.1862 21.6391 36.9407 20.8223L36.933 20.7998C36.9218 20.7685 36.8989 20.7069 36.8603 20.6169C36.7832 20.437 36.6434 20.1428 36.4109 19.7499C35.9464 18.965 35.1074 17.7791 33.6493 16.3208C32.1909 14.8626 31.0049 14.0236 30.2201 13.5591C29.8272 13.3266 29.533 13.1868 29.353 13.1097C29.263 13.0711 29.2016 13.0481 29.1701 13.037L29.1478 13.0293C28.3309 12.7838 27.8605 11.9266 28.0957 11.1039Z" fill="#1C274C"/>
<path fill-rule="evenodd" clip-rule="evenodd" d="M10.4319 9.18149C13.932 5.68134 19.8386 5.94742 22.2757 10.3143L23.6278 12.7371C25.2193 15.5888 24.5411 19.1869 22.2113 21.5453C22.1803 21.5878 22.0157 21.8272 21.9953 22.2455C21.9693 22.7794 22.1588 24.0144 24.0722 25.9278C25.9849 27.8407 27.2197 28.0307 27.7541 28.0047C28.1728 27.9844 28.4124 27.8199 28.4549 27.7888C30.8132 25.459 34.4113 24.7807 37.263 26.3724L39.6857 27.7244C44.0526 30.1615 44.3186 36.068 40.8186 39.5682C38.9463 41.4405 36.457 43.104 33.5316 43.2149C29.1963 43.3792 21.9978 42.2597 14.8692 35.1309C7.74043 28.0022 6.62089 20.8038 6.78522 16.4685C6.89614 13.5431 8.55966 11.0537 10.4319 9.18149ZM19.5469 11.8373C18.2989 9.60113 14.9454 9.08738 12.6416 11.3912C11.0263 13.0065 9.97614 14.7894 9.90799 16.5869C9.77093 20.2022 10.6635 26.5059 17.0789 32.9211C23.4943 39.3365 29.7978 40.2292 33.4132 40.0922C35.2107 40.024 36.9936 38.9738 38.6088 37.3584C40.9126 35.0547 40.3988 31.7011 38.1628 30.4532L35.7401 29.1011C34.233 28.2601 32.1159 28.5469 30.6299 30.033C30.4841 30.1788 29.5547 31.0459 27.9059 31.1261C26.2178 31.2082 24.1747 30.4497 21.8626 28.1376C19.5496 25.8247 18.7914 23.7809 18.8741 22.0928C18.9548 20.4437 19.8219 19.5153 19.967 19.3702C21.453 17.8842 21.7401 15.7671 20.8991 14.26L19.5469 11.8373Z" fill="#1C274C"/>
</svg>
