<svg width="150" height="150" viewBox="0 0 150 150" fill="none" xmlns="http://www.w3.org/2000/svg">
<path fill-rule="evenodd" clip-rule="evenodd" d="M80.6004 89.2822C80.2233 89.5263 79.7682 89.6643 79.2969 89.6774C78.8256 89.6905 78.3611 89.5781 77.9666 89.3555C69.267 84.633 61.5426 78.692 55.1119 71.7773C47.24 63.5304 41.9462 53.6846 39.7338 43.1763C37.9071 33.4229 39.6488 24.0479 45.3129 16.4185C47.5997 13.3193 50.4714 10.5715 53.8091 8.28857C61.1126 3.03192 70.2938 0.104823 79.8074 0C89.02 0.128127 97.8419 3.22939 104.531 8.69141C107.1 10.7217 109.322 13.0562 111.13 15.625C117.176 24.1699 118.479 35.1562 115.817 46.2891C113.587 55.1234 109.32 63.4814 103.27 70.8668C97.2208 78.2523 89.5116 84.5147 80.6004 89.2822ZM53.6958 90.1855V124.146L96.3891 140.015V96.2769C99.605 94.1611 102.656 91.8653 105.523 89.4043V139.673L140.923 124.304V55.9448L127.315 60.4614C128.682 57.3513 129.808 54.1664 130.685 50.9277L143.854 46.5454C144.978 46.1918 146.218 46.233 147.306 46.66C148.395 47.087 149.245 47.8656 149.674 48.8281C149.88 49.2792 149.985 49.7595 149.986 50.2441V126.782C149.99 127.566 149.722 128.333 149.218 128.986C148.713 129.638 147.995 130.146 147.154 130.444L102.974 149.573C102.333 149.853 101.625 149.999 100.906 149.999C100.188 149.999 99.4796 149.853 98.8389 149.573L49.2778 131.055L6.62702 149.573C6.09248 149.806 5.50976 149.947 4.91219 149.986C4.31462 150.025 3.71393 149.963 3.14447 149.802C2.575 149.641 2.04794 149.385 1.59343 149.048C1.13891 148.711 0.765861 148.3 0.49561 147.839C0.174909 147.29 0.00532047 146.684 1.54323e-07 146.069V64.9902C-0.000256526 64.1382 0.319688 63.3089 0.911922 62.6267C1.50416 61.9446 2.33681 61.4461 3.28519 61.2061L26.4798 53.4912C27.341 56.0076 28.3621 58.4812 29.5384 60.9009L9.14755 67.6758V139.697L44.5483 124.329V81.897C47.3975 84.8188 50.4525 87.5869 53.6958 90.1855ZM78.094 17.3462C81.9365 17.3462 85.6927 18.3284 88.8876 20.1687C92.0825 22.009 94.5726 24.6247 96.0431 27.685C97.5135 30.7453 97.8983 34.1128 97.1487 37.3616C96.399 40.6104 94.5487 43.5946 91.8316 45.9369C89.1146 48.2792 85.6529 49.8743 81.8842 50.5205C78.1156 51.1667 74.2093 50.835 70.6593 49.5674C67.1093 48.2998 64.0751 46.1532 61.9403 43.399C59.8055 40.6448 58.6661 37.4067 58.6661 34.0942C58.6661 29.6524 60.713 25.3924 64.3564 22.2516C67.9998 19.1107 72.9414 17.3462 78.094 17.3462Z" fill="white"/>
</svg>
