<svg width="41" height="42" viewBox="0 0 41 42" fill="none" xmlns="http://www.w3.org/2000/svg">
<path d="M9.4209 13.3337C10.747 13.3337 12.0188 12.6604 12.9564 11.4619C13.8941 10.2634 14.4209 8.63791 14.4209 6.94298C14.4209 5.24805 13.8941 3.62255 12.9564 2.42405C12.0188 1.22555 10.747 0.552246 9.4209 0.552246C8.09482 0.552246 6.82305 1.22555 5.88536 2.42405C4.94768 3.62255 4.4209 5.24805 4.4209 6.94298C4.4209 8.63791 4.94768 10.2634 5.88536 11.4619C6.82305 12.6604 8.09482 13.3337 9.4209 13.3337ZM32.4209 13.3337C33.747 13.3337 35.0187 12.6604 35.9564 11.4619C36.8941 10.2634 37.4209 8.63791 37.4209 6.94298C37.4209 5.24805 36.8941 3.62255 35.9564 2.42405C35.0187 1.22555 33.747 0.552246 32.4209 0.552246C31.0948 0.552246 29.823 1.22555 28.8854 2.42405C27.9477 3.62255 27.4209 5.24805 27.4209 6.94298C27.4209 8.63791 27.9477 10.2634 28.8854 11.4619C29.823 12.6604 31.0948 13.3337 32.4209 13.3337ZM0.420898 24.4137C0.420898 25.3483 1.0209 26.1152 1.75215 26.1152H15.0896C15.1021 26.1152 15.1146 26.1152 15.1334 26.1152C13.4709 24.2379 12.4271 21.4979 12.4271 18.4463C12.4271 17.8392 12.4709 17.248 12.5459 16.6649C11.6959 16.1616 10.7521 15.89 9.7584 15.89H7.08965C3.4084 15.89 0.420898 19.7085 0.420898 24.4137ZM20.4209 26.1152C21.9209 26.1152 23.2896 25.4122 24.3396 24.2539C24.4959 23.9583 24.6646 23.6707 24.8396 23.3991C25.0084 23.1355 25.1959 22.9118 25.4021 22.7361C26.0459 21.5059 26.4209 20.036 26.4209 18.4463C26.4209 14.2124 23.7334 10.7774 20.4209 10.7774C17.1084 10.7774 14.4209 14.2124 14.4209 18.4463C14.4209 22.6802 17.1084 26.1152 20.4209 26.1152ZM24.5084 30.9242C23.8646 30.4529 23.3771 29.6301 23.2084 28.6715H16.7521C12.1521 28.6715 8.4209 33.4406 8.4209 39.3201C8.4209 40.4944 9.16465 41.453 10.0896 41.453H28.8709C28.7396 41.0376 28.6709 40.5822 28.6709 40.1429V39.9032C28.5896 39.8473 28.5021 39.7834 28.4209 39.7195L28.2584 39.8393C27.2084 40.6142 25.7271 40.4784 24.8396 39.0644C24.5584 38.6171 24.3021 38.1458 24.0646 37.6585L24.0584 37.6425L24.0521 37.6265L23.9021 37.299L23.8959 37.283L23.8896 37.267C23.6771 36.7717 23.4896 36.2605 23.3271 35.7253C22.8146 34.0317 23.4646 32.3222 24.5146 31.5473L24.6834 31.4275C24.6834 31.3636 24.6834 31.3077 24.6834 31.2438C24.6834 31.1799 24.6834 31.1239 24.6834 31.06L24.5146 30.9402L24.5084 30.9242ZM33.7521 15.89H31.0896C30.0959 15.89 29.1521 16.1696 28.3021 16.6649C28.3834 17.2401 28.4209 17.8392 28.4209 18.4463C28.4209 19.8363 28.2021 21.1544 27.8146 22.3606C27.9709 22.4325 28.1209 22.5204 28.2584 22.6243L28.4209 22.7441C28.5021 22.6802 28.5834 22.6163 28.6709 22.5603V22.3207C28.6709 20.7709 29.5021 19.1972 30.9084 18.9176C31.4021 18.8218 31.9084 18.7658 32.4209 18.7658C32.9334 18.7658 33.4396 18.8138 33.9334 18.9176C35.3396 19.1972 36.1709 20.7709 36.1709 22.3207V22.5603C36.2521 22.6163 36.3396 22.6802 36.4209 22.7441L36.5834 22.6243C37.6334 21.8494 39.1146 21.9852 40.0021 23.3991C40.1459 23.6228 40.2834 23.8625 40.4146 24.0941C40.2834 19.5327 37.3521 15.89 33.7521 15.89ZM39.4584 28.983C39.8521 28.6955 40.0522 28.0963 39.8834 27.5451C39.7522 27.1058 39.5959 26.6824 39.4209 26.275L39.2771 25.9554C39.0834 25.548 38.8709 25.1646 38.6396 24.7971C38.3521 24.3418 37.8459 24.2619 37.4521 24.5575L36.3209 25.3962C35.7646 24.7891 35.1271 24.3098 34.4209 23.9903V22.3127C34.4209 21.7295 34.1147 21.2103 33.6646 21.1224C33.2584 21.0425 32.8459 21.0026 32.4209 21.0026C31.9959 21.0026 31.5834 21.0425 31.1771 21.1224C30.7271 21.2103 30.4209 21.7295 30.4209 22.3127V23.9903C29.7209 24.3098 29.0771 24.7891 28.5209 25.3962L27.3834 24.5575C26.9896 24.2699 26.4834 24.3498 26.1959 24.7971C25.9646 25.1646 25.7521 25.556 25.5584 25.9634L25.4146 26.275C25.2396 26.6824 25.0834 27.1058 24.9521 27.5451C24.7896 28.0883 24.9834 28.6875 25.3771 28.975L26.5146 29.8138C26.4521 30.2692 26.4146 30.7405 26.4146 31.2198C26.4146 31.6991 26.4521 32.1704 26.5146 32.6178L25.3771 33.4566C24.9834 33.7441 24.7834 34.3433 24.9521 34.8865C25.0834 35.3258 25.2396 35.7412 25.4146 36.1487L25.5646 36.4762C25.7521 36.8836 25.9646 37.267 26.1959 37.6345C26.4834 38.0898 26.9896 38.1697 27.3834 37.8741L28.5209 37.0593C29.0771 37.6665 29.7209 38.1458 30.4209 38.4653V40.1429C30.4209 40.726 30.7271 41.2453 31.1771 41.3331C31.5834 41.413 31.9959 41.453 32.4209 41.453C32.8459 41.453 33.2584 41.413 33.6646 41.3331C34.1147 41.2453 34.4209 40.726 34.4209 40.1429V38.4653C35.1209 38.1458 35.7646 37.6665 36.3209 37.0593L37.4584 37.8981C37.8521 38.1857 38.3584 38.1058 38.6459 37.6585C38.8771 37.291 39.0896 36.9076 39.2771 36.5001L39.4271 36.1646C39.6021 35.7572 39.7584 35.3418 39.8896 34.9025C40.0521 34.3592 39.8584 33.7601 39.4646 33.4725L38.3271 32.6337C38.3896 32.1784 38.4271 31.7071 38.4271 31.2358C38.4271 30.7645 38.3896 30.2851 38.3271 29.8298L39.4646 28.991L39.4584 28.983ZM29.9209 31.2278C29.9209 30.3803 30.1843 29.5676 30.6531 28.9683C31.122 28.3691 31.7579 28.0324 32.4209 28.0324C33.0839 28.0324 33.7198 28.3691 34.1887 28.9683C34.6575 29.5676 34.9209 30.3803 34.9209 31.2278C34.9209 32.0752 34.6575 32.888 34.1887 33.4872C33.7198 34.0865 33.0839 34.4231 32.4209 34.4231C31.7579 34.4231 31.122 34.0865 30.6531 33.4872C30.1843 32.888 29.9209 32.0752 29.9209 31.2278Z" fill="white"/>
</svg>
