<svg width="101" height="101" viewBox="0 0 101 101" fill="none" xmlns="http://www.w3.org/2000/svg">
<path d="M23.8394 83.4211C20.4284 83.4211 17.525 82.226 15.1292 79.836C12.7333 77.446 11.5354 74.5438 11.5354 71.1294H4.6604V23.1086C4.6604 21.4419 5.2854 19.9836 6.5354 18.7336C7.7854 17.4836 9.24373 16.8586 10.9104 16.8586H71.2229V34.2544H82.1604L96.3271 53.1086V71.1294H88.9312C88.9312 74.5438 87.7374 77.446 85.3498 79.836C82.9621 82.226 80.0628 83.4211 76.6519 83.4211C73.2409 83.4211 70.3375 82.226 67.9417 79.836C65.5458 77.446 64.3479 74.5438 64.3479 71.1294H36.1187C36.1187 74.5322 34.9249 77.4315 32.5373 79.8273C30.1496 82.2231 27.2503 83.4211 23.8394 83.4211ZM23.8271 77.1711C25.4937 77.1711 26.9173 76.5808 28.0979 75.4002C29.2785 74.2197 29.8687 72.7961 29.8687 71.1294C29.8687 69.4627 29.2785 68.0391 28.0979 66.8586C26.9173 65.678 25.4937 65.0877 23.8271 65.0877C22.1604 65.0877 20.7368 65.678 19.5562 66.8586C18.3757 68.0391 17.7854 69.4627 17.7854 71.1294C17.7854 72.7961 18.3757 74.2197 19.5562 75.4002C20.7368 76.5808 22.1604 77.1711 23.8271 77.1711ZM10.9104 64.8794H13.2021C14.3826 63.0044 15.8771 61.5113 17.6855 60.4002C19.4939 59.2891 21.5078 58.7336 23.7272 58.7336C25.9465 58.7336 27.9764 59.3065 29.8167 60.4523C31.6569 61.5981 33.1673 63.0738 34.3479 64.8794H64.9729V23.1086H10.9104V64.8794ZM76.6396 77.1711C78.3062 77.1711 79.7299 76.5808 80.9104 75.4002C82.091 74.2197 82.6812 72.7961 82.6812 71.1294C82.6812 69.4627 82.091 68.0391 80.9104 66.8586C79.7299 65.678 78.3062 65.0877 76.6396 65.0877C74.9729 65.0877 73.5493 65.678 72.3687 66.8586C71.1882 68.0391 70.5979 69.4627 70.5979 71.1294C70.5979 72.7961 71.1882 74.2197 72.3687 75.4002C73.5493 76.5808 74.9729 77.1711 76.6396 77.1711ZM71.2229 55.9211H90.5979L79.0354 40.5044H71.2229V55.9211Z" fill="white"/>
</svg>
