<svg width="31" height="31" viewBox="0 0 31 31" fill="none" xmlns="http://www.w3.org/2000/svg">
<path d="M6.34277 25.2563H7.71777L21.5615 11.4126L20.1865 10.0376L6.34277 23.8813V25.2563ZM25.5303 10.0688L21.5303 6.06885L22.8428 4.75635C23.1969 4.40218 23.6344 4.2251 24.1553 4.2251C24.6761 4.2251 25.1136 4.40218 25.4678 4.75635L26.8428 6.13135C27.1969 6.48551 27.374 6.92301 27.374 7.44385C27.374 7.96468 27.1969 8.40218 26.8428 8.75635L25.5303 10.0688ZM24.2178 11.3813L8.46777 27.1313H4.46777V23.1313L20.2178 7.38135L24.2178 11.3813ZM20.874 10.7251L20.1865 10.0376L21.5615 11.4126L20.874 10.7251Z" fill="#025E73"/>
</svg>
