<svg width="39" height="33" viewBox="0 0 39 33" fill="none" xmlns="http://www.w3.org/2000/svg">
<path d="M1.87891 0C0.839844 0 0.00390625 0.835938 0.00390625 1.875V5.625C0.00390625 6.66406 0.839844 7.5 1.87891 7.5H5.62891C6.66797 7.5 7.50391 6.66406 7.50391 5.625V1.875C7.50391 0.835938 6.66797 0 5.62891 0H1.87891ZM13.7539 1.25C12.3711 1.25 11.2539 2.36719 11.2539 3.75C11.2539 5.13281 12.3711 6.25 13.7539 6.25H36.2539C37.6367 6.25 38.7539 5.13281 38.7539 3.75C38.7539 2.36719 37.6367 1.25 36.2539 1.25H13.7539ZM13.7539 13.75C12.3711 13.75 11.2539 14.8672 11.2539 16.25C11.2539 17.6328 12.3711 18.75 13.7539 18.75H36.2539C37.6367 18.75 38.7539 17.6328 38.7539 16.25C38.7539 14.8672 37.6367 13.75 36.2539 13.75H13.7539ZM13.7539 26.25C12.3711 26.25 11.2539 27.3672 11.2539 28.75C11.2539 30.1328 12.3711 31.25 13.7539 31.25H36.2539C37.6367 31.25 38.7539 30.1328 38.7539 28.75C38.7539 27.3672 37.6367 26.25 36.2539 26.25H13.7539ZM0.00390625 14.375V18.125C0.00390625 19.1641 0.839844 20 1.87891 20H5.62891C6.66797 20 7.50391 19.1641 7.50391 18.125V14.375C7.50391 13.3359 6.66797 12.5 5.62891 12.5H1.87891C0.839844 12.5 0.00390625 13.3359 0.00390625 14.375ZM1.87891 25C0.839844 25 0.00390625 25.8359 0.00390625 26.875V30.625C0.00390625 31.6641 0.839844 32.5 1.87891 32.5H5.62891C6.66797 32.5 7.50391 31.6641 7.50391 30.625V26.875C7.50391 25.8359 6.66797 25 5.62891 25H1.87891Z" fill="#F2F2F2"/>
</svg>
