<svg width="150" height="107" viewBox="0 0 150 107" fill="none" xmlns="http://www.w3.org/2000/svg">
<mask id="mask0_180_265" style="mask-type:luminance" maskUnits="userSpaceOnUse" x="56" y="37" width="30" height="30">
<path d="M56.8145 38.064H84.8331V65.9832H56.8145V38.064Z" fill="white" stroke="white"/>
</mask>
<g mask="url(#mask0_180_265)">
<path d="M80.785 60.1224C78.736 62.0494 76.7311 63.9348 74.9027 65.7807C73.109 63.9702 71.1451 62.1238 69.1391 60.2377C68.0489 59.2128 66.9464 58.1762 65.852 57.1273C62.7077 54.1139 59.6127 50.9832 56.9918 47.6738L66.2413 38.3899L84.4452 56.654C83.228 57.825 81.9988 58.981 80.785 60.1224Z" fill="#025E73" stroke="#001E50"/>
</g>
<mask id="mask1_180_265" style="mask-type:luminance" maskUnits="userSpaceOnUse" x="49" y="7" width="15" height="39">
<path d="M49.8184 7.62115H63.1128V44.8973H49.8184V7.62115Z" fill="white" stroke="white"/>
</mask>
<g mask="url(#mask1_180_265)">
<path d="M58.0265 11.6384L58.0261 11.6387C57.5974 12.0299 57.1829 12.4355 56.7819 12.8556C56.3815 13.2765 55.9956 13.7101 55.6257 14.1571L55.6251 14.1577C55.2545 14.604 54.9 15.0634 54.5611 15.5354C54.222 16.0074 53.8995 16.4902 53.5942 16.9843C53.2888 17.4785 53.001 17.9831 52.7302 18.4975L58.0265 11.6384ZM58.0265 11.6384C58.455 11.2466 58.8968 10.871 59.3517 10.5102C59.8065 10.1495 60.2729 9.80512 60.7516 9.47642C61.2301 9.14861 61.7195 8.83774 62.2201 8.54313C62.4857 8.38692 62.7544 8.23568 63.0258 8.08929V36.1259L54.6845 44.4998C51.7446 40.0869 49.835 35.3739 49.835 30.2301C49.835 29.6482 49.8547 29.0673 49.895 28.4879L49.895 28.4879C49.9352 27.9074 49.9952 27.3291 50.075 26.7535C50.1555 26.1771 50.2551 25.6051 50.375 25.0362L50.3751 25.0357C50.4944 24.4672 50.6335 23.9034 50.7923 23.3444L50.7923 23.3442C50.9512 22.7844 51.1292 22.2314 51.3262 21.6845C51.5234 21.1375 51.7388 20.5982 51.9733 20.0665L51.9735 20.0661M58.0265 11.6384L51.9735 20.0661M51.9735 20.0661C52.2071 19.5348 52.46 19.012 52.7302 18.4976L51.9735 20.0661Z" fill="#025E73" stroke="#001E50"/>
</g>
<mask id="mask2_180_265" style="mask-type:luminance" maskUnits="userSpaceOnUse" x="84" y="19" width="17" height="16">
<path d="M84.9424 19.7271H99.9879V34.3936H84.9424V19.7271Z" fill="white" stroke="white"/>
</mask>
<g mask="url(#mask2_180_265)">
<path d="M99.6628 33.8067L85.7898 19.8975H97.7527C98.4627 21.4709 99.0047 23.1015 99.378 24.7893L99.378 24.7894C99.7749 26.5812 99.9726 28.3939 99.9719 30.2294C99.9703 31.4328 99.8674 32.6253 99.6628 33.8067Z" fill="#F58439" stroke="#001E50"/>
</g>
<mask id="mask3_180_265" style="mask-type:luminance" maskUnits="userSpaceOnUse" x="66" y="4" width="31" height="13">
<path d="M66.7842 5.09259H96.049V16.0567H66.7842V5.09259Z" fill="white" stroke="white"/>
</mask>
<g mask="url(#mask3_180_265)">
<path d="M74.903 5.09259H74.9028C73.4812 5.09191 72.07 5.21121 70.6689 5.45051L74.903 5.09259ZM74.903 5.09259C75.4288 5.09259 75.9546 5.10896 76.4797 5.1417C77.0044 5.1744 77.5279 5.22415 78.0495 5.29029C78.5716 5.35649 79.0911 5.43832 79.6075 5.53711C80.124 5.63591 80.6368 5.75113 81.1471 5.88211C81.6564 6.0137 82.1609 6.16098 82.6615 6.32396C83.1618 6.48687 83.656 6.66546 84.1448 6.85977L84.145 6.85986C84.6341 7.054 85.1162 7.264 85.5927 7.48859C86.0683 7.71347 86.5366 7.95341 86.9976 8.20777C87.4584 8.46201 87.9104 8.73061 88.3543 9.0136C88.7983 9.29666 89.2331 9.59314 89.6574 9.90367L89.6581 9.90421C90.0833 10.2142 90.4985 10.5381 90.9037 10.8744C91.3085 11.211 91.7024 11.5599 92.0854 11.9211C92.4685 12.2837 92.8401 12.6567 93.1991 13.0416L93.1997 13.0423M74.903 5.09259L93.1997 13.0423M95.587 16.024H66.8896V6.40644C68.1243 5.98945 69.3836 5.67068 70.6686 5.45055L95.587 16.024ZM95.587 16.024C95.4623 15.8413 95.3353 15.6602 95.2059 15.4806C94.8971 15.0539 94.5753 14.6366 94.2412 14.2296L95.587 16.024ZM93.1997 13.0423C93.5593 13.4263 93.9061 13.8222 94.2409 14.2292L93.1997 13.0423Z" fill="#FEBE15" stroke="#001E50"/>
</g>
<path d="M74.1186 23.5973C74.0488 23.4273 73.963 23.267 73.8618 23.1153L73.8611 23.1142C73.7606 22.9643 73.6457 22.823 73.5162 22.6934C73.3866 22.563 73.2457 22.4477 73.0949 22.3466C72.9427 22.2446 72.7824 22.159 72.6146 22.089C72.4446 22.0181 72.2695 21.9655 72.0914 21.9301C71.9124 21.8945 71.7316 21.8766 71.5487 21.8766C71.3666 21.8766 71.1854 21.8944 71.0051 21.9309C70.8269 21.9665 70.6528 22.0191 70.4835 22.0897C70.3156 22.1597 70.1553 22.2453 70.0032 22.3473L70.0032 22.3473L70.0016 22.3484C69.8509 22.4503 69.7115 22.5651 69.5824 22.6942C69.4537 22.8229 69.3381 22.9639 69.2368 23.117C69.1354 23.2683 69.0498 23.4286 68.9802 23.598C68.9096 23.7675 68.8572 23.9422 68.8218 24.1198L68.8217 24.1203C68.7862 24.2996 68.7684 24.481 68.7684 24.6632C68.7684 24.846 68.7862 25.0274 68.8217 25.2068L68.8218 25.2073C68.8572 25.385 68.9097 25.5598 68.9804 25.7295C69.0496 25.8974 69.1352 26.0585 69.2371 26.2107C69.3382 26.3626 69.4533 26.503 69.5813 26.6318L69.5824 26.6329C69.7115 26.7619 69.8513 26.8773 70.0032 26.9791C70.1542 27.0803 70.3144 27.1668 70.4835 27.2374L70.4854 27.2382C70.6524 27.307 70.826 27.3605 71.006 27.3963L71.0064 27.3964C71.1841 27.4316 71.3648 27.4504 71.5487 27.4504C71.7316 27.4504 71.9124 27.4326 72.0914 27.397C72.2709 27.3613 72.4453 27.3079 72.6126 27.2389L72.6126 27.2389L72.6146 27.2381C72.7824 27.1681 72.9427 27.0825 73.0949 26.9805C73.2459 26.8792 73.387 26.7637 73.5168 26.6331C73.645 26.5041 73.7599 26.3639 73.8611 26.2129L73.8618 26.2118C73.963 26.06 74.0488 25.8997 74.1186 25.7298C74.1892 25.5601 74.2417 25.3854 74.277 25.2068C74.3126 25.0274 74.3304 24.846 74.3304 24.6632C74.3304 24.4802 74.3125 24.2995 74.277 24.1203C74.2417 23.9417 74.1892 23.7669 74.1186 23.5973ZM74.1186 23.5973C74.1184 23.5968 74.1182 23.5963 74.118 23.5959L73.6565 23.7884L74.1191 23.5987C74.119 23.5982 74.1188 23.5977 74.1186 23.5973ZM98.4797 38.0966C96.3093 43.8482 92.0031 49.0478 87.2021 53.9266L66.7436 33.409L66.8225 26.564L66.3226 26.5582L66.8225 26.564L66.8983 19.9955L73.448 19.9218L73.4482 19.9217L80.2749 19.8421L98.4797 38.0966ZM69.2684 24.6632C69.2684 24.5137 69.283 24.3649 69.3122 24.2174V25.1097C69.283 24.9622 69.2684 24.8134 69.2684 24.6632Z" fill="#5ABF4B" stroke="#001E50"/>
<mask id="mask4_180_265" style="mask-type:luminance" maskUnits="userSpaceOnUse" x="60" y="14" width="30" height="29">
<path d="M60.8223 14.3035H89.0871V42.5683H60.8223V14.3035Z" fill="white"/>
</mask>
<g mask="url(#mask4_180_265)">
<path d="M89.0871 28.4359C89.0871 28.6668 89.0815 28.8983 89.0697 29.1292C89.0586 29.3601 89.0419 29.591 89.0189 29.8212C88.996 30.0514 88.9682 30.2808 88.9341 30.5096C88.9 30.7384 88.8604 30.9658 88.8152 31.1925C88.7707 31.4199 88.7199 31.6453 88.6636 31.8699C88.6072 32.0938 88.5454 32.317 88.4786 32.5382C88.4111 32.7593 88.3388 32.9791 88.2609 33.1968C88.183 33.4144 88.0996 33.63 88.0113 33.8442C87.9229 34.0577 87.8291 34.2691 87.7303 34.4784C87.6316 34.6871 87.5273 34.8936 87.4181 35.0974C87.3096 35.3018 87.1955 35.5028 87.0766 35.701C86.9577 35.8999 86.8339 36.0953 86.7053 36.2872C86.5766 36.4799 86.4438 36.6683 86.3061 36.8547C86.1684 37.0404 86.0258 37.2226 85.8791 37.4013C85.7324 37.58 85.5815 37.7553 85.4257 37.9263C85.2706 38.0981 85.1113 38.265 84.9479 38.4291C84.7845 38.5926 84.6169 38.7518 84.4451 38.9069C84.2741 39.0627 84.0988 39.2136 83.9201 39.3603C83.7414 39.507 83.5592 39.6489 83.3735 39.7873C83.1871 39.925 82.9986 40.0578 82.806 40.1865C82.6141 40.3151 82.4187 40.4389 82.2198 40.5578C82.0216 40.6767 81.8206 40.7901 81.6168 40.8993C81.4124 41.0085 81.2058 41.1121 80.9972 41.2115C80.7879 41.3103 80.5765 41.4042 80.363 41.4925C80.1488 41.5808 79.9332 41.6642 79.7156 41.7421C79.4979 41.82 79.2781 41.8923 79.057 41.9598C78.8358 42.0266 78.6126 42.0885 78.3887 42.1448C78.1641 42.2011 77.9387 42.2512 77.7113 42.2964C77.4846 42.3416 77.2572 42.3812 77.0284 42.4153C76.7996 42.4494 76.5701 42.4772 76.34 42.5001C76.1098 42.5231 75.8789 42.5398 75.648 42.5509C75.4171 42.5627 75.1856 42.5683 74.9547 42.5683C74.7231 42.5683 74.4922 42.5627 74.2613 42.5509C74.0298 42.5398 73.7996 42.5231 73.5694 42.5001C73.3392 42.4772 73.1097 42.4494 72.8809 42.4153C72.6521 42.3812 72.424 42.3416 72.1973 42.2964C71.9706 42.2512 71.7446 42.2011 71.5207 42.1448C71.2961 42.0885 71.0735 42.0266 70.8524 41.9598C70.6305 41.8923 70.4115 41.82 70.1931 41.7421C69.9754 41.6642 69.7599 41.5808 69.5464 41.4925C69.3329 41.4042 69.1215 41.3103 68.9121 41.2115C68.7028 41.1121 68.4963 41.0085 68.2925 40.8993C68.0888 40.7901 67.8871 40.6767 67.6889 40.5578C67.4907 40.4389 67.2953 40.3151 67.1026 40.1865C66.9107 40.0578 66.7215 39.925 66.5359 39.7873C66.3502 39.6489 66.168 39.507 65.9893 39.3603C65.8098 39.2136 65.6353 39.0627 65.4635 38.9069C65.2925 38.7518 65.1249 38.5926 64.9614 38.4291C64.798 38.265 64.6381 38.0981 64.483 37.9263C64.3279 37.7553 64.177 37.58 64.0303 37.4013C63.8835 37.2226 63.741 37.0404 63.6033 36.8547C63.4656 36.6683 63.3321 36.4799 63.2041 36.2872C63.0754 36.0953 62.9517 35.8999 62.8327 35.701C62.7138 35.5028 62.5998 35.3018 62.4906 35.0974C62.3814 34.8936 62.2778 34.6871 62.179 34.4784C62.0803 34.2691 61.9864 34.0577 61.8981 33.8442C61.8091 33.63 61.7263 33.4144 61.6484 33.1968C61.5705 32.9791 61.4975 32.7593 61.4308 32.5382C61.3633 32.317 61.3014 32.0938 61.2458 31.8699C61.1894 31.6453 61.1387 31.4199 61.0935 31.1925C61.0483 30.9658 61.0086 30.7384 60.9753 30.5096C60.9412 30.2808 60.9127 30.0514 60.8897 29.8212C60.8675 29.591 60.8501 29.3601 60.839 29.1292C60.8278 28.8983 60.8223 28.6668 60.8223 28.4359C60.8223 28.2043 60.8278 27.9734 60.839 27.7425C60.8501 27.511 60.8675 27.2808 60.8897 27.0506C60.9127 26.8204 60.9412 26.5909 60.9753 26.3621C61.0086 26.1333 61.0483 25.9052 61.0935 25.6785C61.1387 25.4518 61.1894 25.2258 61.2458 25.0019C61.3014 24.7773 61.3633 24.5547 61.4308 24.3329C61.4975 24.1117 61.5705 23.8927 61.6484 23.6743C61.7263 23.4566 61.8091 23.2411 61.8981 23.0276C61.9864 22.8134 62.0803 22.6027 62.179 22.3933C62.2778 22.184 62.3814 21.9775 62.4906 21.7737C62.5998 21.57 62.7138 21.3683 62.8327 21.1701C62.9517 20.9719 63.0754 20.7765 63.2041 20.5838C63.3321 20.3919 63.4656 20.2028 63.6033 20.0171C63.741 19.8314 63.8835 19.6492 64.0303 19.4698C64.177 19.2911 64.3279 19.1165 64.483 18.9447C64.6381 18.7737 64.798 18.6061 64.9614 18.4426C65.1249 18.2792 65.2925 18.1193 65.4635 17.9642C65.6353 17.8091 65.8098 17.6575 65.9893 17.5108C66.168 17.364 66.3502 17.2222 66.5359 17.0845C66.7215 16.9468 66.9107 16.8133 67.1026 16.6846C67.2953 16.5566 67.4907 16.4329 67.6889 16.3139C67.8871 16.195 68.0888 16.081 68.2925 15.9718C68.4963 15.8626 68.7028 15.759 68.9121 15.6602C69.1215 15.5615 69.3329 15.4676 69.5464 15.3786C69.7599 15.2903 69.9754 15.2075 70.1931 15.1296C70.4115 15.051 70.6305 14.9787 70.8524 14.912C71.0735 14.8445 71.2961 14.7826 71.5207 14.727C71.7446 14.6707 71.9706 14.6199 72.1973 14.5747C72.424 14.5295 72.6521 14.4898 72.8809 14.4565C73.1097 14.4224 73.3392 14.3939 73.5694 14.3709C73.7996 14.3487 74.0298 14.3313 74.2613 14.3202C74.4922 14.309 74.7231 14.3035 74.9547 14.3035C75.1856 14.3035 75.4171 14.309 75.648 14.3202C75.8789 14.3313 76.1098 14.3487 76.34 14.3709C76.5701 14.3939 76.7996 14.4224 77.0284 14.4565C77.2572 14.4898 77.4846 14.5295 77.7113 14.5747C77.9387 14.6199 78.1641 14.6707 78.3887 14.727C78.6126 14.7826 78.8358 14.8445 79.057 14.912C79.2781 14.9787 79.4979 15.051 79.7156 15.1296C79.9332 15.2075 80.1488 15.2903 80.363 15.3786C80.5765 15.4676 80.7879 15.5615 80.9972 15.6602C81.2058 15.759 81.4124 15.8626 81.6168 15.9718C81.8206 16.081 82.0216 16.195 82.2198 16.3139C82.4187 16.4329 82.6141 16.5566 82.806 16.6846C82.9986 16.8133 83.1871 16.9468 83.3735 17.0845C83.5592 17.2222 83.7414 17.364 83.9201 17.5108C84.0988 17.6575 84.2741 17.8091 84.4451 17.9642C84.6169 18.1193 84.7845 18.2792 84.9479 18.4426C85.1113 18.6061 85.2706 18.7737 85.4257 18.9447C85.5815 19.1165 85.7324 19.2911 85.8791 19.4698C86.0258 19.6492 86.1684 19.8314 86.3061 20.0171C86.4438 20.2028 86.5766 20.3919 86.7053 20.5838C86.8339 20.7765 86.9577 20.9719 87.0766 21.1701C87.1955 21.3683 87.3096 21.57 87.4181 21.7737C87.5273 21.9775 87.6316 22.184 87.7303 22.3933C87.8291 22.6027 87.9229 22.8134 88.0113 23.0276C88.0996 23.2411 88.183 23.4566 88.2609 23.6743C88.3388 23.8927 88.4111 24.1117 88.4786 24.3329C88.5454 24.5547 88.6072 24.7773 88.6636 25.0019C88.7199 25.2258 88.7707 25.4518 88.8152 25.6785C88.8604 25.9052 88.9 26.1333 88.9341 26.3621C88.9682 26.5909 88.996 26.8204 89.0189 27.0506C89.0419 27.2808 89.0586 27.511 89.0697 27.7425C89.0815 27.9734 89.0871 28.2043 89.0871 28.4359Z" fill="white"/>
</g>
<path d="M40.5831 86.1965H40.6221L47.0081 95.7753H54.4986L46.8113 85.9205C50.2015 85.0922 52.9213 82.0963 52.9213 77.5635C52.9213 72.4779 49.0583 68.9695 44.7223 68.9695H34.6699V95.7753H40.5831V86.1965ZM43.7369 73.6212C45.4713 73.6212 47.2842 75.1191 47.2842 77.5635C47.2842 80.1255 45.4713 81.5448 43.7369 81.5448H40.5831V73.6212H43.7369Z" fill="#001E50"/>
<path d="M70.775 82.3328C70.775 86.4719 67.0301 90.2564 62.891 90.2564C58.7518 90.2564 55.0069 86.4719 55.0069 82.3328C55.0069 78.1943 58.7518 74.4494 62.891 74.4494C67.0301 74.4494 70.775 78.1943 70.775 82.3328ZM76.6875 82.3724C76.6875 74.9613 70.3014 68.5759 62.891 68.5759C55.4798 68.5759 49.0938 74.9613 49.0938 82.3724C49.0938 89.7835 55.4798 96.1696 62.891 96.1696C70.3014 96.1696 76.6875 89.7835 76.6875 82.3724Z" fill="#001E50"/>
<path d="M88.7037 85.5261H81.924L85.3142 75.9863L88.7037 85.5261ZM98.7164 95.7753L87.8365 68.9695H82.8301L71.9502 95.7753H78.2973L80.2285 90.3746H90.4387L92.3699 95.7753H98.7164Z" fill="#001E50"/>
<path d="M100.8 90.3357V74.4494H102.574C107.147 74.4494 110.221 77.9182 110.221 82.3724C110.221 86.8273 107.107 90.3357 102.574 90.3357H100.8ZM94.9658 68.9695V95.7753H102.928C110.537 95.7753 116.253 89.9414 116.253 82.3724C116.253 74.8041 110.497 68.9695 102.928 68.9695H94.9658Z" fill="#001E50"/>
<path d="M78.4427 33.781V35.7588H70.5093V33.781H73.316V26.0423C73.316 25.872 73.3188 25.6995 73.3244 25.5249C73.3313 25.349 73.3417 25.1703 73.355 24.9881L71.5023 26.5291C71.3723 26.6258 71.245 26.687 71.1213 26.7127C70.9989 26.7392 70.882 26.7405 70.7708 26.7183C70.6609 26.696 70.5635 26.6571 70.4787 26.6015C70.3952 26.5458 70.3299 26.4895 70.284 26.4318L69.4355 25.2913L73.7833 21.6055H75.9976V33.781H78.4427Z" fill="#001E50"/>
<path d="M79.1887 25.3823C79.1622 25.4233 79.1344 25.4532 79.1052 25.4713C79.0774 25.4901 79.0391 25.4991 78.9912 25.4991C78.9411 25.4991 78.8896 25.4873 78.8382 25.463C78.786 25.4393 78.7276 25.4129 78.6629 25.3851C78.5996 25.3559 78.5266 25.3287 78.4432 25.3044C78.3611 25.2787 78.2665 25.2655 78.1594 25.2655C77.9939 25.2655 77.8653 25.3002 77.7728 25.3684C77.6817 25.4351 77.6365 25.5241 77.6365 25.6354C77.6365 25.7119 77.6622 25.7759 77.7144 25.8274C77.7658 25.8795 77.8347 25.9247 77.9202 25.9637C78.005 26.0012 78.1017 26.036 78.2095 26.0694C78.3187 26.1027 78.43 26.1403 78.5433 26.1806C78.658 26.2196 78.7693 26.2655 78.8771 26.3169C78.9863 26.3691 79.0836 26.4338 79.1692 26.5117C79.254 26.5881 79.3229 26.6813 79.375 26.7926C79.4265 26.9025 79.4529 27.0339 79.4529 27.1876C79.4529 27.3733 79.4181 27.5451 79.35 27.7022C79.2832 27.858 79.1838 27.9929 79.0524 28.1056C78.9223 28.2189 78.7603 28.3079 78.5656 28.3726C78.3708 28.4352 78.1462 28.4672 77.8924 28.4672C77.7603 28.4672 77.6309 28.4547 77.503 28.431C77.375 28.4088 77.2526 28.3768 77.1358 28.3337C77.0203 28.2892 76.9118 28.2391 76.8103 28.1835C76.7102 28.1264 76.6225 28.0638 76.5488 27.9971L76.7881 27.6188C76.8138 27.5743 76.8472 27.5402 76.8882 27.5158C76.9285 27.4901 76.9814 27.4769 77.0468 27.4769C77.1079 27.4769 77.1643 27.4929 77.2164 27.5242C77.2679 27.5541 77.3256 27.5875 77.3889 27.6243C77.4536 27.6598 77.5294 27.6932 77.617 27.7245C77.7039 27.7544 77.8131 27.769 77.9452 27.769C78.0433 27.769 78.1274 27.7579 78.1984 27.7356C78.2707 27.7133 78.3291 27.6841 78.3736 27.6466C78.4181 27.6076 78.4501 27.5645 78.471 27.5158C78.4911 27.4679 78.5016 27.4178 78.5016 27.3656C78.5016 27.2822 78.4745 27.2147 78.4209 27.1626C78.3688 27.109 78.2999 27.0624 78.2151 27.0235C78.1295 26.9832 78.0315 26.947 77.9202 26.915C77.8103 26.8837 77.6984 26.8482 77.5836 26.8093C77.4682 26.769 77.3562 26.7217 77.247 26.6674C77.1372 26.6139 77.0398 26.5464 76.955 26.4644C76.8694 26.3809 76.7999 26.2794 76.7463 26.1584C76.6942 26.0381 76.6684 25.8906 76.6684 25.7161C76.6684 25.5589 76.699 25.4094 76.7602 25.2682C76.8214 25.1278 76.9132 25.0033 77.0356 24.8955C77.1594 24.7863 77.3138 24.7001 77.4974 24.6368C77.681 24.5721 77.8938 24.5394 78.1372 24.5394C78.4077 24.5394 78.6532 24.5839 78.8743 24.673C79.0969 24.7606 79.2791 24.8753 79.4223 25.0179L79.1887 25.3823Z" fill="#001E50"/>
<path d="M80.8402 28.4672C80.6677 28.4672 80.5147 28.4421 80.3812 28.3921C80.2477 28.342 80.135 28.2711 80.0446 28.1779C79.9535 28.0833 79.884 27.9693 79.836 27.8357C79.7894 27.7022 79.7664 27.552 79.7664 27.3851V25.3294H79.4076C79.3534 25.3294 79.3075 25.3127 79.2685 25.2793C79.231 25.2446 79.2129 25.1924 79.2129 25.1236V24.723L79.8221 24.6117L80.0307 23.6242C80.0564 23.513 80.1315 23.4573 80.256 23.4573H80.7873V24.6201H81.7721V25.3294H80.7873V27.3183C80.7873 27.424 80.8124 27.5089 80.8624 27.5715C80.9139 27.6327 80.9862 27.6633 81.0794 27.6633C81.1295 27.6633 81.1712 27.6577 81.2046 27.6466C81.2394 27.6354 81.2693 27.6236 81.2936 27.6104C81.3172 27.5958 81.3395 27.5826 81.3604 27.5715C81.3826 27.5603 81.4049 27.5548 81.4271 27.5548C81.4563 27.5548 81.4807 27.5624 81.4994 27.577C81.5196 27.5902 81.5398 27.6125 81.5606 27.6438L81.8666 28.1306C81.7255 28.2419 81.5662 28.3267 81.3882 28.3837C81.2115 28.4394 81.0293 28.4672 80.8402 28.4672Z" fill="#001E50"/>
</svg>
