<svg width="40" height="38" viewBox="0 0 40 38" fill="none" xmlns="http://www.w3.org/2000/svg">
<path d="M39.9861 20.456C39.9861 21.8971 38.9444 23.026 37.7639 23.026H35.5417L35.5903 35.852C35.6042 38.6942 33.6111 41 31.1458 41H8.89583C6.44444 41 4.45139 38.7022 4.45139 35.876V23.026H2.22222C0.972222 23.026 0 21.9051 0 20.456C0 19.7354 0.208333 19.0949 0.694444 18.5345L18.5 0.6405C18.9861 0.0800625 19.5417 0 20.0278 0C20.5139 0 21.0694 0.160125 21.4861 0.560437L39.2222 18.5345C39.7778 19.0949 40.0556 19.7354 39.9861 20.456ZM24.4444 17.934C24.4444 16.575 23.9762 15.2717 23.1427 14.3108C22.3092 13.3498 21.1787 12.81 20 12.81C18.8213 12.81 17.6908 13.3498 16.8573 14.3108C16.0238 15.2717 15.5556 16.575 15.5556 17.934C15.5556 19.293 16.0238 20.5963 16.8573 21.5572C17.6908 22.5181 18.8213 23.058 20 23.058C21.1787 23.058 22.3092 22.5181 23.1427 21.5572C23.9762 20.5963 24.4444 19.293 24.4444 17.934ZM17.7778 25.62C14.7083 25.62 12.2222 28.4862 12.2222 32.025C12.2222 32.7295 12.7222 33.306 13.3333 33.306H26.6667C27.2778 33.306 27.7778 32.7295 27.7778 32.025C27.7778 28.4862 25.2917 25.62 22.2222 25.62H17.7778Z" fill="#FBF2F2"/>
</svg>
