<?xml version="1.0" standalone="no"?>
<!DOCTYPE svg PUBLIC "-//W3C//DTD SVG 20010904//EN"
 "http://www.w3.org/TR/2001/REC-SVG-20010904/DTD/svg10.dtd">
<svg version="1.0" xmlns="http://www.w3.org/2000/svg"
 width="512.000000pt" height="512.000000pt" viewBox="0 0 512.000000 512.000000"
 preserveAspectRatio="xMidYMid meet">

<g transform="translate(0.000000,512.000000) scale(0.100000,-0.100000)"
fill="#000000" stroke="none">
<path d="M1920 5113 c-219 -37 -413 -213 -476 -433 -13 -43 -17 -125 -22 -365
l-5 -310 -61 -30 c-68 -34 -119 -92 -136 -157 -7 -25 -10 -121 -8 -257 l3
-216 28 -48 c30 -50 94 -103 150 -124 18 -6 67 -12 109 -12 l77 -1 11 -42 c57
-226 182 -414 363 -547 l57 -42 0 -143 c0 -80 -3 -151 -6 -160 -6 -14 -64 -16
-556 -16 -610 0 -585 3 -655 -67 -52 -53 -63 -90 -63 -222 l0 -116 -70 -63
c-108 -98 -182 -218 -215 -351 -8 -31 -55 -294 -105 -586 -64 -370 -90 -544
-86 -577 9 -84 64 -161 146 -204 34 -18 107 -19 2165 -19 2044 0 2131 1 2167
18 83 42 138 122 145 212 5 58 -165 1068 -198 1180 -37 123 -84 201 -188 305
l-94 95 6 92 c10 147 -30 235 -126 282 -42 21 -56 21 -594 21 l-551 0 -6 23
c-3 12 -6 83 -6 157 l0 136 87 69 c77 62 159 147 203 212 13 19 32 24 127 37
182 23 203 45 203 214 l0 110 43 25 c57 34 91 72 119 132 22 47 23 62 23 260
0 210 0 210 -28 267 -32 66 -94 123 -149 140 l-38 11 0 79 c0 44 -5 89 -12
101 -26 50 -69 60 -112 26 -26 -20 -26 -20 -26 -168 l0 -148 -65 -22 c-36 -11
-68 -21 -70 -21 -3 0 -5 116 -5 258 0 301 -4 322 -82 407 -75 82 -118 95 -323
95 -186 0 -208 -5 -312 -76 -105 -72 -172 -71 -280 3 -99 68 -122 73 -307 73
-189 0 -230 -10 -301 -72 -25 -22 -58 -64 -73 -92 l-27 -51 -3 -273 c-3 -237
-5 -273 -18 -268 -8 3 -39 13 -69 22 l-55 15 0 307 c0 169 5 341 10 381 18
138 94 255 210 326 103 63 126 65 776 65 352 0 603 -4 635 -10 113 -21 220
-95 284 -195 40 -63 62 -131 71 -220 7 -77 30 -115 70 -115 64 0 89 44 79 139
-21 221 -142 398 -333 491 -120 59 -136 60 -812 58 -338 0 -626 -3 -640 -5z
m411 -696 c165 -112 295 -114 460 -6 l75 49 150 0 c167 0 195 -9 234 -72 19
-31 20 -51 20 -336 0 -334 4 -358 59 -386 16 -9 42 -16 56 -16 l27 0 -4 -242
c-4 -236 -4 -245 -32 -325 -16 -46 -34 -90 -40 -98 -8 -11 -55 -21 -166 -35
l-154 -19 -42 39 c-62 57 -102 66 -225 51 -118 -14 -144 -23 -182 -59 -113
-107 -73 -289 74 -333 30 -10 64 -10 146 -1 128 14 179 39 218 107 30 50 32
51 134 60 88 9 88 7 -18 -77 -93 -75 -247 -150 -361 -177 -398 -96 -839 125
-984 493 -47 116 -56 183 -56 409 l0 207 25 0 c39 0 83 27 100 60 12 24 15 81
15 332 0 338 2 351 69 395 32 21 45 23 186 23 l153 0 63 -43z m-868 -660 c8
-3 35 -9 61 -12 l46 -7 0 -214 0 -214 -61 0 c-69 0 -107 18 -133 60 -23 39
-24 386 -1 430 22 42 38 42 56 0 10 -20 24 -40 32 -43z m2291 49 c19 -25 21
-41 21 -215 0 -208 -4 -227 -61 -261 -22 -14 -49 -20 -93 -20 l-61 0 0 214 0
214 53 7 c60 8 83 25 92 67 8 34 21 33 49 -6z m-164 -726 c0 -61 -3 -80 -14
-80 -7 0 -27 -3 -44 -6 l-31 -6 18 58 c11 33 22 71 25 87 4 18 13 27 26 27 18
0 20 -7 20 -80z m-722 -212 c17 -17 15 -53 -3 -68 -24 -20 -181 -36 -200 -20
-19 16 -20 54 -1 69 28 23 185 38 204 19z m-512 -478 c169 -37 377 -24 547 35
l67 24 0 -115 0 -114 -405 0 -405 0 0 115 0 115 53 -20 c29 -11 94 -29 143
-40z m1864 -340 c10 -5 22 -22 28 -38 7 -19 -5 -253 -39 -792 -26 -421 -48
-766 -48 -767 -1 -2 -606 -4 -1345 -5 -1306 -3 -1345 -4 -1365 -22 -27 -25
-28 -79 -1 -106 20 -20 33 -20 1465 -20 1250 0 1450 -2 1474 -15 48 -24 55
-72 16 -110 l-24 -25 -1811 0 c-1258 0 -1817 3 -1831 11 -51 27 -43 109 13
128 18 6 114 11 225 11 108 0 202 4 213 10 27 14 41 62 26 91 -18 38 -53 49
-153 49 l-91 0 -6 72 c-13 149 -86 1372 -86 1434 0 52 4 67 22 84 22 20 25 20
1661 20 1049 0 1645 -4 1657 -10z m-3440 -965 c16 -275 32 -529 36 -565 l6
-66 -67 -11 c-83 -14 -135 -48 -172 -110 -23 -40 -28 -59 -27 -116 l0 -67 -44
0 c-37 0 -50 6 -78 34 -19 19 -34 44 -34 57 0 40 179 1072 196 1129 22 75 54
136 106 201 34 43 43 50 45 34 2 -11 16 -245 33 -520z m3662 469 c42 -55 74
-117 95 -183 16 -53 193 -1083 193 -1125 0 -19 -11 -39 -34 -62 -29 -29 -41
-34 -79 -34 l-46 0 6 53 c4 42 1 64 -16 103 -39 88 -93 127 -194 139 l-58 7 5
37 c3 20 20 280 38 579 21 358 36 541 43 539 5 -2 27 -26 47 -53z"/>
<path d="M2494 1939 c-237 -22 -445 -163 -558 -379 -147 -279 -86 -630 147
-846 180 -167 424 -230 662 -169 115 29 222 92 316 185 98 97 152 184 185 300
76 262 9 518 -185 710 -150 149 -349 218 -567 199z m216 -164 c203 -54 361
-222 405 -430 18 -88 18 -132 0 -220 -46 -216 -201 -379 -415 -436 -69 -19
-215 -16 -284 4 l-58 18 23 26 c58 61 113 79 324 104 118 13 173 39 199 94 18
38 66 295 66 356 0 42 -27 82 -72 105 -53 28 -83 13 -194 -96 -55 -55 -108
-100 -117 -100 -9 0 -21 9 -27 20 -10 18 1 33 95 130 98 102 105 112 105 149
0 33 -7 48 -38 81 -47 49 -55 49 -247 15 -172 -31 -195 -38 -227 -73 -34 -36
-44 -72 -63 -232 -20 -157 -31 -190 -87 -247 l-42 -43 -13 32 c-35 82 -46 240
-23 329 48 191 180 337 364 401 67 23 98 28 176 28 52 0 120 -7 150 -15z
m-222 -382 c-70 -72 -81 -94 -81 -158 0 -80 40 -138 115 -170 76 -31 138 -13
222 65 l63 59 -15 -87 c-8 -48 -17 -90 -21 -94 -4 -4 -72 -16 -151 -27 -204
-28 -243 -44 -346 -144 l-52 -49 -41 37 -41 37 56 62 c94 103 113 153 140 361
9 72 18 132 20 134 5 5 131 28 164 30 22 1 19 -5 -32 -56z"/>
</g>
</svg>
