<svg width="40" height="40" viewBox="0 0 40 40" fill="none" xmlns="http://www.w3.org/2000/svg">
<path d="M27.1429 10C27.1429 8.3424 26.3903 6.75269 25.0508 5.58058C23.7112 4.40848 21.8944 3.75 20 3.75C18.1056 3.75 16.2888 4.40848 14.9492 5.58058C13.6097 6.75269 12.8571 8.3424 12.8571 10C12.8571 11.6576 13.6097 13.2473 14.9492 14.4194C16.2888 15.5915 18.1056 16.25 20 16.25C21.8944 16.25 23.7112 15.5915 25.0508 14.4194C26.3903 13.2473 27.1429 11.6576 27.1429 10ZM8.57143 10C8.57143 7.34784 9.77551 4.8043 11.9188 2.92893C14.0621 1.05357 16.969 0 20 0C23.031 0 25.9379 1.05357 28.0812 2.92893C30.2245 4.8043 31.4286 7.34784 31.4286 10C31.4286 12.6522 30.2245 15.1957 28.0812 17.0711C25.9379 18.9464 23.031 20 20 20C16.969 20 14.0621 18.9464 11.9188 17.0711C9.77551 15.1957 8.57143 12.6522 8.57143 10ZM4.40179 36.25H35.5982C34.8036 31.3047 29.9464 27.5 24.0804 27.5H15.9196C10.0536 27.5 5.19643 31.3047 4.40179 36.25ZM0 37.6797C0 29.9844 7.125 23.75 15.9196 23.75H24.0804C32.875 23.75 40 29.9844 40 37.6797C40 38.9609 38.8125 40 37.3482 40H2.65179C1.1875 40 0 38.9609 0 37.6797Z" fill="white"/>
</svg>
