<svg width="101" height="95" viewBox="0 0 101 95" fill="none" xmlns="http://www.w3.org/2000/svg">
<path d="M19.7124 87.129C18.0457 87.129 16.5874 86.5401 15.3374 85.3622C14.0874 84.1843 13.4624 82.8101 13.4624 81.2396V20.3822C13.4624 18.8117 14.0874 17.4375 15.3374 16.2596C16.5874 15.0818 18.0457 14.4928 19.7124 14.4928H26.4832V8.60339H33.2541V14.4928H68.6707V8.60339H75.4416V14.4928H82.2124C83.8791 14.4928 85.3374 15.0818 86.5874 16.2596C87.8374 17.4375 88.4624 18.8117 88.4624 20.3822V81.2396C88.4624 82.8101 87.8374 84.1843 86.5874 85.3622C85.3374 86.5401 83.8791 87.129 82.2124 87.129H19.7124ZM19.7124 81.2396H82.2124V39.0321H19.7124V81.2396ZM19.7124 33.1427H82.2124V20.3822H19.7124V33.1427ZM50.9624 55.7188C49.7818 55.7188 48.7923 55.3425 47.9937 54.59C47.195 53.8374 46.7957 52.9049 46.7957 51.7925C46.7957 50.68 47.195 49.7476 47.9937 48.995C48.7923 48.2425 49.7818 47.8662 50.9624 47.8662C52.143 47.8662 53.1325 48.2425 53.9312 48.995C54.7298 49.7476 55.1291 50.68 55.1291 51.7925C55.1291 52.9049 54.7298 53.8374 53.9312 54.59C53.1325 55.3425 52.143 55.7188 50.9624 55.7188ZM34.2957 55.7188C33.1152 55.7188 32.1256 55.3425 31.327 54.59C30.5284 53.8374 30.1291 52.9049 30.1291 51.7925C30.1291 50.68 30.5284 49.7476 31.327 48.995C32.1256 48.2425 33.1152 47.8662 34.2957 47.8662C35.4763 47.8662 36.4659 48.2425 37.2645 48.995C38.0631 49.7476 38.4624 50.68 38.4624 51.7925C38.4624 52.9049 38.0631 53.8374 37.2645 54.59C36.4659 55.3425 35.4763 55.7188 34.2957 55.7188ZM67.6291 55.7188C66.4485 55.7188 65.4589 55.3425 64.6603 54.59C63.8617 53.8374 63.4624 52.9049 63.4624 51.7925C63.4624 50.68 63.8617 49.7476 64.6603 48.995C65.4589 48.2425 66.4485 47.8662 67.6291 47.8662C68.8096 47.8662 69.7992 48.2425 70.5978 48.995C71.3964 49.7476 71.7957 50.68 71.7957 51.7925C71.7957 52.9049 71.3964 53.8374 70.5978 54.59C69.7992 55.3425 68.8096 55.7188 67.6291 55.7188ZM50.9624 71.4239C49.7818 71.4239 48.7923 71.0476 47.9937 70.2951C47.195 69.5426 46.7957 68.6101 46.7957 67.4976C46.7957 66.3852 47.195 65.4527 47.9937 64.7001C48.7923 63.9476 49.7818 63.5713 50.9624 63.5713C52.143 63.5713 53.1325 63.9476 53.9312 64.7001C54.7298 65.4527 55.1291 66.3852 55.1291 67.4976C55.1291 68.6101 54.7298 69.5426 53.9312 70.2951C53.1325 71.0476 52.143 71.4239 50.9624 71.4239ZM34.2957 71.4239C33.1152 71.4239 32.1256 71.0476 31.327 70.2951C30.5284 69.5426 30.1291 68.6101 30.1291 67.4976C30.1291 66.3852 30.5284 65.4527 31.327 64.7001C32.1256 63.9476 33.1152 63.5713 34.2957 63.5713C35.4763 63.5713 36.4659 63.9476 37.2645 64.7001C38.0631 65.4527 38.4624 66.3852 38.4624 67.4976C38.4624 68.6101 38.0631 69.5426 37.2645 70.2951C36.4659 71.0476 35.4763 71.4239 34.2957 71.4239ZM67.6291 71.4239C66.4485 71.4239 65.4589 71.0476 64.6603 70.2951C63.8617 69.5426 63.4624 68.6101 63.4624 67.4976C63.4624 66.3852 63.8617 65.4527 64.6603 64.7001C65.4589 63.9476 66.4485 63.5713 67.6291 63.5713C68.8096 63.5713 69.7992 63.9476 70.5978 64.7001C71.3964 65.4527 71.7957 66.3852 71.7957 67.4976C71.7957 68.6101 71.3964 69.5426 70.5978 70.2951C69.7992 71.0476 68.8096 71.4239 67.6291 71.4239Z" fill="white"/>
</svg>
