<svg width="301" height="207" viewBox="0 0 301 207" fill="none" xmlns="http://www.w3.org/2000/svg">
<mask id="mask0_238_3172" style="mask-type:luminance" maskUnits="userSpaceOnUse" x="113" y="73" width="59" height="57">
<path d="M113.229 73.3086H171.267V129.746H113.229V73.3086Z" fill="white"/>
</mask>
<g mask="url(#mask0_238_3172)">
<path fill-rule="evenodd" clip-rule="evenodd" d="M113.251 92.9618C124.052 106.494 139.029 118.442 150.406 129.765C156.597 123.604 163.833 117.259 170.917 110.578L133.083 73.5381L113.251 92.9618Z" fill="#048ABF"/>
</g>
<mask id="mask1_238_3172" style="mask-type:luminance" maskUnits="userSpaceOnUse" x="99" y="13" width="29" height="76">
<path d="M99.2393 13.8975H127.828V88.5956H99.2393V13.8975Z" fill="white"/>
</mask>
<g mask="url(#mask1_238_3172)">
<path fill-rule="evenodd" clip-rule="evenodd" d="M127.653 14.1812C126.595 14.6969 125.554 15.2465 124.535 15.8315C123.514 16.4178 122.515 17.0366 121.539 17.6894C120.563 18.3436 119.611 19.0289 118.684 19.7469C117.756 20.4648 116.855 21.2126 115.98 21.993C115.105 22.772 114.259 23.5795 113.441 24.4155C112.625 25.2529 111.838 26.116 111.083 27.0063C110.326 27.8953 109.603 28.81 108.911 29.7491C108.22 30.6883 107.562 31.6492 106.939 32.6331C106.316 33.6171 105.729 34.6214 105.177 35.6447C104.626 36.668 104.11 37.7089 103.633 38.7675C103.155 39.8261 102.715 40.8996 102.313 41.988C101.911 43.0765 101.548 44.1771 101.224 45.2914C100.9 46.4042 100.616 47.5266 100.373 48.6585C100.128 49.7917 99.9252 50.9304 99.7611 52.0772C99.5983 53.2226 99.4759 54.3735 99.3939 55.5284C99.3118 56.682 99.2715 57.8383 99.2715 58.996C99.2715 69.6768 103.491 79.3805 109.822 88.3717L127.653 70.9051V14.1812Z" fill="#025E73"/>
</g>
<mask id="mask2_238_3172" style="mask-type:luminance" maskUnits="userSpaceOnUse" x="169" y="37" width="33" height="32">
<path d="M169.486 37.5229H201.577V68.0971H169.486V37.5229Z" fill="white"/>
</mask>
<g mask="url(#mask2_238_3172)">
<path fill-rule="evenodd" clip-rule="evenodd" d="M200.547 67.9641C201.209 65.0096 201.541 62.0197 201.545 58.996C201.547 55.3425 201.143 51.7338 200.334 48.1672C199.526 44.6019 198.33 41.1642 196.748 37.8555H169.771L200.547 67.9641Z" fill="#F58439"/>
</g>
<mask id="mask3_238_3172" style="mask-type:luminance" maskUnits="userSpaceOnUse" x="133" y="8" width="61" height="25">
<path d="M133.169 8.96289H193.699V32.3115H133.169V8.96289Z" fill="white"/>
</mask>
<g mask="url(#mask3_238_3172)">
<path fill-rule="evenodd" clip-rule="evenodd" d="M150.407 8.9629C147.507 8.96154 144.628 9.19904 141.769 9.67541C138.911 10.1531 136.116 10.8643 133.38 11.8075V32.2477H193.627C193.053 31.3601 192.452 30.4915 191.823 29.6406C191.193 28.791 190.537 27.9604 189.855 27.1502C189.172 26.34 188.464 25.5515 187.73 24.786C186.997 24.0192 186.239 23.2769 185.459 22.5562C184.677 21.8369 183.873 21.1421 183.047 20.4716C182.221 19.8025 181.374 19.1579 180.506 18.5404C179.64 17.9215 178.752 17.3312 177.847 16.7679C176.941 16.2047 176.019 15.67 175.079 15.1638C174.139 14.6575 173.183 14.1798 172.212 13.732C171.242 13.2855 170.258 12.8674 169.26 12.4807C168.262 12.0939 167.254 11.7383 166.233 11.4139C165.212 11.0896 164.183 10.7964 163.144 10.5345C162.104 10.2739 161.058 10.0446 160.004 9.84777C158.949 9.65098 157.889 9.48812 156.825 9.35647C155.761 9.22483 154.693 9.12576 153.622 9.06061C152.551 8.99547 151.479 8.9629 150.407 8.9629Z" fill="#FEBE15"/>
</g>
<path fill-rule="evenodd" clip-rule="evenodd" d="M175.004 106.631C185.075 96.7249 194.274 86.0441 198.721 74.101L161.562 37.7427L147.486 37.9028L133.409 38.0575L133.247 51.83L133.084 65.5984L175.004 106.621V106.631ZM140.474 44.9791C140.686 44.7714 140.916 44.5868 141.165 44.4226C141.414 44.2598 141.677 44.1227 141.953 44.01C142.23 43.8974 142.515 43.8133 142.809 43.7563C143.104 43.6979 143.4 43.6694 143.699 43.6694C143.999 43.6694 144.296 43.6979 144.589 43.7549C144.883 43.8119 145.169 43.896 145.446 44.0087C145.723 44.1213 145.985 44.2584 146.234 44.4213C146.483 44.5841 146.714 44.7687 146.926 44.9763C147.137 45.1826 147.326 45.4093 147.493 45.6522C147.66 45.8965 147.801 46.153 147.915 46.4244C148.03 46.6945 148.116 46.9741 148.175 47.2618C148.233 47.5495 148.262 47.8386 148.262 48.1317C148.262 48.4249 148.233 48.7153 148.175 49.003C148.116 49.2908 148.03 49.5703 147.915 49.8404C147.801 50.1118 147.66 50.3683 147.493 50.6126C147.326 50.8556 147.137 51.0809 146.926 51.2885C146.714 51.4962 146.483 51.6807 146.234 51.8436C145.985 52.0064 145.723 52.1435 145.446 52.2562C145.169 52.3674 144.883 52.4529 144.589 52.51C144.296 52.567 143.999 52.5955 143.699 52.5955C143.4 52.5955 143.104 52.5656 142.809 52.5086C142.515 52.4516 142.23 52.3661 141.953 52.2548C141.677 52.1422 141.414 52.0037 141.165 51.8409C140.916 51.678 140.686 51.4934 140.474 51.2858C140.262 51.0781 140.073 50.8529 139.907 50.6099C139.741 50.367 139.6 50.1091 139.486 49.8391C139.371 49.569 139.284 49.2894 139.226 49.003C139.168 48.7153 139.138 48.4249 139.138 48.1317C139.138 47.84 139.168 47.5495 139.226 47.2618C139.284 46.9754 139.371 46.6959 139.486 46.4258C139.6 46.1544 139.741 45.8979 139.907 45.6549C140.073 45.4106 140.262 45.1853 140.474 44.9791Z" fill="#5ABF4B"/>
<mask id="mask4_238_3172" style="mask-type:luminance" maskUnits="userSpaceOnUse" x="122" y="27" width="57" height="57">
<path d="M122.247 27.9141H178.777V83.0745H122.247V27.9141Z" fill="white"/>
</mask>
<g mask="url(#mask4_238_3172)">
<path d="M178.777 55.4943C178.777 55.9449 178.766 56.3968 178.742 56.8474C178.72 57.298 178.686 57.7485 178.64 58.1978C178.595 58.647 178.539 59.0948 178.471 59.5413C178.403 59.9879 178.323 60.4316 178.233 60.8741C178.144 61.3179 178.042 61.7576 177.93 62.196C177.817 62.633 177.693 63.0686 177.56 63.5002C177.425 63.9318 177.28 64.3606 177.124 64.7854C176.969 65.2102 176.802 65.6309 176.625 66.0489C176.448 66.4656 176.261 66.8782 176.063 67.2867C175.866 67.6938 175.657 68.0969 175.439 68.4945C175.222 68.8935 174.994 69.2858 174.756 69.6726C174.518 70.0607 174.27 70.4421 174.013 70.8166C173.756 71.1926 173.49 71.5604 173.215 71.9241C172.939 72.2865 172.654 72.642 172.361 72.9908C172.067 73.3396 171.765 73.6816 171.454 74.0155C171.144 74.3507 170.825 74.6764 170.498 74.9967C170.172 75.3156 169.836 75.6264 169.493 75.9291C169.151 76.2331 168.8 76.5276 168.443 76.8139C168.085 77.1003 167.721 77.3772 167.35 77.6472C166.977 77.916 166.6 78.1752 166.215 78.4262C165.831 78.6773 165.44 78.9189 165.042 79.151C164.646 79.383 164.244 79.6043 163.836 79.8173C163.427 80.0304 163.014 80.2326 162.597 80.4267C162.178 80.6194 161.756 80.8026 161.329 80.975C160.9 81.1474 160.469 81.3102 160.034 81.4622C159.598 81.6142 159.159 81.7554 158.717 81.887C158.274 82.0173 157.828 82.1381 157.38 82.248C156.931 82.3579 156.48 82.4557 156.025 82.5439C155.572 82.6321 155.117 82.7095 154.659 82.776C154.202 82.8425 153.743 82.8967 153.282 82.9415C152.822 82.9863 152.36 83.0189 151.899 83.0406C151.437 83.0637 150.974 83.0745 150.512 83.0745C150.049 83.0745 149.587 83.0637 149.125 83.0406C148.662 83.0189 148.202 82.9863 147.741 82.9415C147.281 82.8967 146.822 82.8425 146.364 82.776C145.907 82.7095 145.451 82.6321 144.997 82.5439C144.544 82.4557 144.092 82.3579 143.644 82.248C143.195 82.1381 142.75 82.0173 142.307 81.887C141.864 81.7554 141.425 81.6142 140.989 81.4622C140.553 81.3102 140.122 81.1474 139.695 80.975C139.268 80.8026 138.845 80.6194 138.427 80.4267C138.008 80.2326 137.595 80.0304 137.188 79.8173C136.78 79.6043 136.377 79.383 135.98 79.151C135.584 78.9189 135.193 78.6773 134.808 78.4262C134.424 78.1752 134.046 77.916 133.674 77.6472C133.303 77.3772 132.939 77.1003 132.581 76.8139C132.222 76.5276 131.873 76.2331 131.53 75.9291C131.187 75.6264 130.852 75.3156 130.525 74.9967C130.199 74.6764 129.879 74.3507 129.568 74.0155C129.258 73.6816 128.957 73.3396 128.663 72.9908C128.37 72.642 128.084 72.2865 127.809 71.9241C127.534 71.5604 127.267 71.1926 127.011 70.8166C126.753 70.4421 126.506 70.0607 126.268 69.6726C126.03 69.2858 125.802 68.8935 125.584 68.4945C125.365 68.0969 125.158 67.6938 124.961 67.2867C124.763 66.8782 124.575 66.4656 124.399 66.0489C124.221 65.6309 124.055 65.2102 123.899 64.7854C123.744 64.3606 123.598 63.9318 123.464 63.5002C123.329 63.0686 123.205 62.633 123.094 62.196C122.981 61.7576 122.88 61.3179 122.79 60.8741C122.699 60.4316 122.62 59.9879 122.553 59.5413C122.485 59.0948 122.428 58.647 122.382 58.1978C122.337 57.7485 122.303 57.298 122.28 56.8474C122.258 56.3968 122.247 55.9449 122.247 55.4943C122.247 55.0424 122.258 54.5918 122.28 54.1412C122.303 53.6893 122.337 53.2401 122.382 52.7908C122.428 52.3416 122.485 51.8937 122.553 51.4472C122.62 51.0007 122.699 50.5556 122.79 50.1132C122.88 49.6707 122.981 49.2296 123.094 48.7926C123.205 48.3543 123.329 47.92 123.464 47.487C123.598 47.0555 123.744 46.628 123.899 46.2018C124.055 45.777 124.221 45.3563 124.399 44.9397C124.575 44.5216 124.763 44.1104 124.961 43.7019C125.158 43.2934 125.365 42.8903 125.584 42.4927C125.802 42.095 126.03 41.7015 126.268 41.3147C126.506 40.9279 126.753 40.5465 127.011 40.1706C127.267 39.796 127.534 39.4269 127.809 39.0645C128.084 38.7021 128.37 38.3466 128.663 37.9964C128.957 37.6476 129.258 37.307 129.568 36.9718C129.879 36.6379 130.199 36.3108 130.525 35.9919C130.852 35.673 131.187 35.3608 131.53 35.0582C131.873 34.7555 132.222 34.4597 132.581 34.1733C132.939 33.8869 133.303 33.6101 133.674 33.3414C134.046 33.0726 134.424 32.8121 134.808 32.561C135.193 32.3113 135.584 32.0697 135.98 31.8376C136.377 31.6055 136.78 31.383 137.188 31.1699C137.595 30.9568 138.008 30.7546 138.427 30.5619C138.845 30.3692 139.268 30.186 139.695 30.0122C140.122 29.8399 140.553 29.6784 140.989 29.5264C141.425 29.373 141.864 29.2319 142.307 29.1016C142.75 28.9699 143.195 28.8491 143.644 28.7406C144.092 28.6306 144.544 28.5316 144.997 28.4434C145.451 28.3551 145.907 28.2778 146.364 28.2126C146.822 28.1461 147.281 28.0905 147.741 28.0457C148.202 28.0023 148.662 27.9683 149.125 27.9466C149.587 27.9249 150.049 27.9141 150.512 27.9141C150.974 27.9141 151.437 27.9249 151.899 27.9466C152.36 27.9683 152.822 28.0023 153.282 28.0457C153.743 28.0905 154.202 28.1461 154.659 28.2126C155.117 28.2778 155.572 28.3551 156.025 28.4434C156.48 28.5316 156.931 28.6306 157.38 28.7406C157.828 28.8491 158.274 28.9699 158.717 29.1016C159.159 29.2319 159.598 29.373 160.034 29.5264C160.469 29.6784 160.9 29.8399 161.329 30.0122C161.756 30.186 162.178 30.3692 162.597 30.5619C163.014 30.7546 163.427 30.9568 163.836 31.1699C164.244 31.383 164.646 31.6055 165.042 31.8376C165.44 32.0697 165.831 32.3113 166.215 32.561C166.6 32.8121 166.977 33.0726 167.35 33.3414C167.721 33.6101 168.085 33.8869 168.443 34.1733C168.8 34.4597 169.151 34.7555 169.493 35.0582C169.836 35.3608 170.172 35.673 170.498 35.9919C170.825 36.3108 171.144 36.6379 171.454 36.9718C171.765 37.307 172.067 37.6476 172.361 37.9964C172.654 38.3466 172.939 38.7021 173.215 39.0645C173.49 39.4269 173.756 39.796 174.013 40.1706C174.27 40.5465 174.518 40.9279 174.756 41.3147C174.994 41.7015 175.222 42.095 175.439 42.4927C175.657 42.8903 175.866 43.2934 176.063 43.7019C176.261 44.1104 176.448 44.5216 176.625 44.9397C176.802 45.3563 176.969 45.777 177.124 46.2018C177.28 46.628 177.425 47.0555 177.56 47.487C177.693 47.92 177.817 48.3543 177.93 48.7926C178.042 49.2296 178.144 49.6707 178.233 50.1132C178.323 50.5556 178.403 51.0007 178.471 51.4472C178.539 51.8937 178.595 52.3416 178.64 52.7908C178.686 53.2401 178.72 53.6893 178.742 54.1412C178.766 54.5918 178.777 55.0424 178.777 55.4943Z" fill="#F2F2F2"/>
</g>
<path d="M81.7678 168.218H81.8457L94.6178 186.911H109.599L94.2242 167.679C101.005 166.063 106.444 160.216 106.444 151.37C106.444 141.445 98.7181 134.598 90.0461 134.598H69.9414V186.911H81.7678V168.218ZM88.0753 143.676C91.5441 143.676 95.17 146.6 95.17 151.37C95.17 156.37 91.5441 159.14 88.0753 159.14H81.7678V143.676H88.0753Z" fill="#001E50"/>
<path d="M142.151 160.677C142.151 168.755 134.661 176.14 126.383 176.14C118.104 176.14 110.614 168.755 110.614 160.677C110.614 152.6 118.104 145.292 126.383 145.292C134.661 145.292 142.151 152.6 142.151 160.677ZM153.976 160.754C153.976 146.291 141.203 133.83 126.383 133.83C111.56 133.83 98.7881 146.291 98.7881 160.754C98.7881 175.218 111.56 187.68 126.383 187.68C141.203 187.68 153.976 175.218 153.976 160.754Z" fill="#001E50"/>
<path d="M178.009 166.909H164.45L171.23 148.292L178.009 166.909ZM198.034 186.911L176.274 134.598H166.262L144.502 186.911H157.196L161.059 176.372H181.479L185.341 186.911H198.034Z" fill="#001E50"/>
<path d="M202.202 176.296V145.293H205.75C214.896 145.293 221.045 152.062 221.045 160.755C221.045 169.449 214.817 176.296 205.75 176.296H202.202ZM190.534 134.598V186.911H206.459C221.677 186.911 233.108 175.526 233.108 160.755C233.108 145.985 221.597 134.598 206.459 134.598H190.534Z" fill="#001E50"/>
<path d="M157.486 65.9257V69.7855H141.619V65.9257H147.233V50.8232C147.233 50.4907 147.238 50.1542 147.249 49.8135C147.263 49.4702 147.284 49.1214 147.311 48.7658L143.605 51.7733C143.345 51.9619 143.091 52.0813 142.843 52.1315C142.598 52.1831 142.365 52.1858 142.142 52.1424C141.922 52.099 141.728 52.023 141.558 51.9144C141.391 51.8058 141.26 51.6959 141.169 51.5833L139.472 49.3575L148.167 42.1646H152.596V65.9257H157.486Z" fill="#001E50"/>
<path d="M158.98 49.535C158.927 49.6151 158.871 49.6734 158.813 49.7087C158.757 49.7454 158.681 49.763 158.585 49.763C158.485 49.763 158.382 49.7399 158.279 49.6924C158.175 49.6463 158.058 49.5947 157.928 49.5404C157.802 49.4834 157.656 49.4305 157.489 49.383C157.325 49.3328 157.136 49.307 156.921 49.307C156.59 49.307 156.333 49.3749 156.148 49.5079C155.966 49.6382 155.875 49.8119 155.875 50.029C155.875 50.1783 155.927 50.3032 156.031 50.4036C156.134 50.5054 156.272 50.5936 156.443 50.6696C156.613 50.7429 156.806 50.8107 157.022 50.8759C157.24 50.941 157.462 51.0143 157.689 51.093C157.919 51.169 158.141 51.2586 158.357 51.359C158.575 51.4608 158.77 51.587 158.941 51.739C159.111 51.8883 159.248 52.0702 159.353 52.2873C159.456 52.5018 159.508 52.7583 159.508 53.0582C159.508 53.4206 159.439 53.7558 159.303 54.0625C159.169 54.3665 158.97 54.6298 158.707 54.8497C158.447 55.0709 158.123 55.2446 157.734 55.3708C157.344 55.493 156.895 55.5554 156.387 55.5554C156.123 55.5554 155.864 55.531 155.608 55.4848C155.353 55.4414 155.108 55.379 154.874 55.2948C154.643 55.208 154.426 55.1102 154.223 55.0017C154.023 54.8904 153.848 54.7682 153.7 54.6379L154.179 53.8996C154.23 53.8128 154.297 53.7463 154.379 53.6988C154.46 53.6486 154.565 53.6228 154.696 53.6228C154.818 53.6228 154.931 53.654 155.035 53.7151C155.138 53.7734 155.254 53.8386 155.38 53.9105C155.51 53.9797 155.661 54.0449 155.837 54.1059C156.01 54.1643 156.229 54.1928 156.493 54.1928C156.689 54.1928 156.857 54.1711 156.999 54.1277C157.144 54.0842 157.261 54.0272 157.35 53.9539C157.439 53.8779 157.503 53.7938 157.545 53.6988C157.585 53.6051 157.606 53.5074 157.606 53.4056C157.606 53.2428 157.551 53.1111 157.444 53.0093C157.34 52.9048 157.202 52.8139 157.033 52.7379C156.862 52.6592 156.665 52.5886 156.443 52.5262C156.223 52.4651 155.999 52.3959 155.77 52.3199C155.539 52.2412 155.315 52.1489 155.097 52.0431C154.877 51.9385 154.682 51.8069 154.512 51.6468C154.341 51.4839 154.202 51.2858 154.095 51.0496C153.991 50.8148 153.939 50.5271 153.939 50.1865C153.939 49.8797 154.001 49.5879 154.123 49.3124C154.245 49.0383 154.429 48.7954 154.674 48.585C154.921 48.3719 155.23 48.2036 155.597 48.0801C155.964 47.9539 156.39 47.8901 156.877 47.8901C157.418 47.8901 157.909 47.977 158.351 48.1507C158.796 48.3217 159.161 48.5456 159.447 48.8239L158.98 49.535Z" fill="#001E50"/>
<path d="M162.282 55.5553C161.937 55.5553 161.631 55.5065 161.364 55.4087C161.097 55.311 160.872 55.1726 160.691 54.9907C160.509 54.8062 160.37 54.5836 160.274 54.323C160.18 54.0624 160.134 53.7693 160.134 53.4436V49.4318H159.417C159.308 49.4318 159.216 49.3992 159.139 49.3341C159.064 49.2662 159.027 49.1644 159.027 49.0301V48.2484L160.246 48.0312L160.663 46.104C160.714 45.8869 160.865 45.7783 161.114 45.7783H162.176V48.0475H164.146V49.4318H162.176V53.3133C162.176 53.5196 162.226 53.6851 162.326 53.8073C162.429 53.9267 162.574 53.9864 162.76 53.9864C162.861 53.9864 162.944 53.9756 163.011 53.9539C163.08 53.9321 163.14 53.9091 163.189 53.8833C163.236 53.8548 163.281 53.829 163.322 53.8073C163.367 53.7856 163.411 53.7747 163.456 53.7747C163.514 53.7747 163.563 53.7896 163.6 53.8181C163.641 53.8439 163.681 53.8874 163.723 53.9484L164.335 54.8984C164.052 55.1156 163.734 55.2812 163.378 55.3925C163.025 55.501 162.66 55.5553 162.282 55.5553Z" fill="#001E50"/>
</svg>
