<svg width="41" height="41" viewBox="0 0 41 41" fill="none" xmlns="http://www.w3.org/2000/svg">
<g clip-path="url(#clip0_181_2557)">
<path d="M27.5638 10.5522C27.5638 8.89464 26.8112 7.30493 25.4717 6.13283C24.1321 4.96073 22.3153 4.30225 20.4209 4.30225C18.5265 4.30225 16.7097 4.96073 15.3701 6.13283C14.0306 7.30493 13.278 8.89464 13.278 10.5522C13.278 12.2098 14.0306 13.7996 15.3701 14.9717C16.7097 16.1438 18.5265 16.8022 20.4209 16.8022C22.3153 16.8022 24.1321 16.1438 25.4717 14.9717C26.8112 13.7996 27.5638 12.2098 27.5638 10.5522ZM8.99233 10.5522C8.99233 7.90008 10.1964 5.35654 12.3397 3.48118C14.483 1.60581 17.3899 0.552246 20.4209 0.552246C23.4519 0.552246 26.3588 1.60581 28.5021 3.48118C30.6454 5.35654 31.8495 7.90008 31.8495 10.5522C31.8495 13.2044 30.6454 15.748 28.5021 17.6233C26.3588 19.4987 23.4519 20.5522 20.4209 20.5522C17.3899 20.5522 14.483 19.4987 12.3397 17.6233C10.1964 15.748 8.99233 13.2044 8.99233 10.5522ZM4.82268 36.8022H36.0191C35.2245 31.8569 30.3673 28.0522 24.5013 28.0522H16.3405C10.4745 28.0522 5.61733 31.8569 4.82268 36.8022ZM0.420898 38.2319C0.420898 30.5366 7.5459 24.3022 16.3405 24.3022H24.5013C33.2959 24.3022 40.4209 30.5366 40.4209 38.2319C40.4209 39.5132 39.2334 40.5522 37.7691 40.5522H3.07268C1.6084 40.5522 0.420898 39.5132 0.420898 38.2319Z" fill="white"/>
</g>
<defs>
<clipPath id="clip0_181_2557">
<rect width="40" height="40" fill="white" transform="translate(0.420898 0.552246)"/>
</clipPath>
</defs>
</svg>
