<svg width="40" height="41" viewBox="0 0 40 41" fill="none" xmlns="http://www.w3.org/2000/svg">
<g clip-path="url(#clip0_182_1411)">
<path d="M13.5714 1.89062C13.5714 0.851562 12.6161 0.015625 11.4286 0.015625C10.2411 0.015625 9.28571 0.851562 9.28571 1.89062V5.01562H5.71429C2.5625 5.01562 0 7.25781 0 10.0156V11.2656V15.0156V35.0156C0 37.7734 2.5625 40.0156 5.71429 40.0156H34.2857C37.4375 40.0156 40 37.7734 40 35.0156V15.0156V11.2656V10.0156C40 7.25781 37.4375 5.01562 34.2857 5.01562H30.7143V1.89062C30.7143 0.851562 29.7589 0.015625 28.5714 0.015625C27.3839 0.015625 26.4286 0.851562 26.4286 1.89062V5.01562H13.5714V1.89062ZM4.28571 15.0156H35.7143V35.0156C35.7143 35.7031 35.0714 36.2656 34.2857 36.2656H5.71429C4.92857 36.2656 4.28571 35.7031 4.28571 35.0156V15.0156Z" fill="#737373"/>
</g>
<defs>
<clipPath id="clip0_182_1411">
<rect width="40" height="40" fill="white" transform="translate(0 0.015625)"/>
</clipPath>
</defs>
</svg>
