<svg width="201" height="200" viewBox="0 0 201 200" fill="none" xmlns="http://www.w3.org/2000/svg">
<path d="M186.11 93.7019C186.11 144.858 144.874 186.318 94.0174 186.318C43.1614 186.318 1.9248 144.858 1.9248 93.7019C1.9248 42.5461 43.1614 1.08569 94.0174 1.08569C144.874 1.08569 186.11 42.5461 186.11 93.7019Z" fill="#D9D9D9" stroke="#2A6377" stroke-width="2"/>
<path d="M94.3252 83.8939C87.1571 83.8939 81.2923 81.7096 76.7307 77.3408C72.1692 72.972 69.8884 67.3551 69.8884 60.4899C69.8884 53.6247 72.1692 48.0077 76.7307 43.639C81.2923 39.2702 87.1571 37.0858 94.3252 37.0858C101.493 37.0858 107.358 39.2702 111.92 43.639C116.481 48.0077 118.762 53.6247 118.762 60.4899C118.762 67.3551 116.481 72.972 111.92 77.3408C107.358 81.7096 101.493 83.8939 94.3252 83.8939ZM42.1934 133.979V119.312C42.1934 115.359 43.2251 111.979 45.2887 109.17C47.3522 106.362 50.0131 104.229 53.2714 102.773C60.5481 99.6527 67.5262 97.3123 74.2056 95.752C80.885 94.1917 87.5915 93.4116 94.3252 93.4116C101.059 93.4116 107.738 94.2177 114.363 95.83C120.989 97.4423 127.935 99.7668 135.203 102.803C138.603 104.273 141.328 106.403 143.38 109.195C145.431 111.987 146.457 115.359 146.457 119.312V133.979H42.1934ZM51.9681 124.617H136.682V119.312C136.682 117.648 136.166 116.062 135.135 114.553C134.103 113.045 132.827 111.927 131.306 111.199C124.355 107.974 118.002 105.764 112.246 104.568C106.489 103.371 100.516 102.773 94.3252 102.773C88.1346 102.773 82.1068 103.371 76.242 104.568C70.3772 105.764 64.0236 107.974 57.1813 111.199C55.6608 111.927 54.4118 113.045 53.4343 114.553C52.4568 116.062 51.9681 117.648 51.9681 119.312V124.617ZM94.3252 74.5323C98.561 74.5323 102.064 73.2061 104.833 70.5536C107.603 67.9012 108.987 64.5466 108.987 60.4899C108.987 56.4332 107.603 53.0786 104.833 50.4261C102.064 47.7737 98.561 46.4474 94.3252 46.4474C90.0895 46.4474 86.5869 47.7737 83.8174 50.4261C81.0479 53.0786 79.6631 56.4332 79.6631 60.4899C79.6631 64.5466 81.0479 67.9012 83.8174 70.5536C86.5869 73.2061 90.0895 74.5323 94.3252 74.5323Z" fill="#F2F2F2"/>
<path d="M168.471 195.261L167.336 188.113C166.618 187.848 165.861 187.488 165.067 187.035C164.273 186.581 163.573 186.108 162.968 185.616L156.273 188.68L150.996 179.375L157.124 174.893C157.048 174.552 157.001 174.165 156.982 173.73C156.963 173.295 156.953 172.907 156.953 172.567C156.953 172.226 156.963 171.838 156.982 171.403C157.001 170.968 157.048 170.581 157.124 170.24L150.996 165.758L156.273 156.453L162.968 159.517C163.573 159.025 164.273 158.552 165.067 158.099C165.861 157.645 166.618 157.304 167.336 157.077L168.471 149.872H178.911L180.045 157.021C180.764 157.285 181.53 157.635 182.343 158.07C183.157 158.505 183.847 158.987 184.414 159.517L191.109 156.453L196.386 165.758L190.258 170.127C190.334 170.505 190.381 170.912 190.4 171.347C190.419 171.782 190.428 172.188 190.428 172.567C190.428 172.945 190.419 173.342 190.4 173.758C190.381 174.174 190.334 174.571 190.258 174.95L196.386 179.375L191.109 188.68L184.414 185.616C183.809 186.108 183.119 186.59 182.343 187.063C181.568 187.536 180.802 187.886 180.045 188.113L178.911 195.261H168.471ZM173.691 179.942C175.733 179.942 177.473 179.224 178.911 177.786C180.348 176.349 181.067 174.609 181.067 172.567C181.067 170.524 180.348 168.784 178.911 167.347C177.473 165.909 175.733 165.191 173.691 165.191C171.648 165.191 169.908 165.909 168.471 167.347C167.034 168.784 166.315 170.524 166.315 172.567C166.315 174.609 167.034 176.349 168.471 177.786C169.908 179.224 171.648 179.942 173.691 179.942ZM173.691 176.538C172.594 176.538 171.658 176.15 170.882 175.375C170.107 174.6 169.719 173.663 169.719 172.567C169.719 171.47 170.107 170.533 170.882 169.758C171.658 168.983 172.594 168.595 173.691 168.595C174.788 168.595 175.724 168.983 176.499 169.758C177.275 170.533 177.663 171.47 177.663 172.567C177.663 173.663 177.275 174.6 176.499 175.375C175.724 176.15 174.788 176.538 173.691 176.538ZM171.195 191.857H176.187L176.982 185.503C178.23 185.2 179.412 184.727 180.528 184.084C181.644 183.441 182.655 182.666 183.563 181.758L189.577 184.368L191.847 180.283L186.514 176.368C186.665 175.725 186.788 175.091 186.882 174.467C186.977 173.843 187.024 173.21 187.024 172.567C187.024 171.924 186.986 171.29 186.911 170.666C186.835 170.042 186.703 169.408 186.514 168.765L191.847 164.85L189.577 160.765L183.563 163.375C182.693 162.392 181.71 161.569 180.613 160.907C179.516 160.245 178.306 159.82 176.982 159.63L176.187 153.276H171.195L170.4 159.63C169.114 159.895 167.913 160.349 166.797 160.992C165.682 161.635 164.689 162.43 163.819 163.375L157.805 160.765L155.535 164.85L160.868 168.765C160.717 169.408 160.594 170.042 160.5 170.666C160.405 171.29 160.358 171.924 160.358 172.567C160.358 173.21 160.405 173.843 160.5 174.467C160.594 175.091 160.717 175.725 160.868 176.368L155.535 180.283L157.805 184.368L163.819 181.758C164.726 182.666 165.738 183.441 166.854 184.084C167.97 184.727 169.152 185.2 170.4 185.503L171.195 191.857Z" fill="#025E73"/>
</svg>
