<svg width="26" height="26" viewBox="0 0 26 26" fill="none" xmlns="http://www.w3.org/2000/svg">
<path d="M18.3398 20.3295L5.26855 7.25818C4.1748 8.7865 3.53516 10.6615 3.53516 12.6879C3.53516 17.8636 7.73438 22.0629 12.9102 22.0629C14.9365 22.0629 16.8115 21.4232 18.3398 20.3295ZM20.5518 18.1176C21.6455 16.5892 22.2852 14.7142 22.2852 12.6879C22.2852 7.51208 18.0859 3.31287 12.9102 3.31287C10.8838 3.31287 9.00879 3.95251 7.48047 5.04626L20.5518 18.1176ZM0.410156 12.6879C0.410156 9.37266 1.72712 6.19324 4.07132 3.84903C6.41553 1.50483 9.59495 0.187866 12.9102 0.187866C16.2254 0.187866 19.4048 1.50483 21.749 3.84903C24.0932 6.19324 25.4102 9.37266 25.4102 12.6879C25.4102 16.0031 24.0932 19.1825 21.749 21.5267C19.4048 23.8709 16.2254 25.1879 12.9102 25.1879C9.59495 25.1879 6.41553 23.8709 4.07132 21.5267C1.72712 19.1825 0.410156 16.0031 0.410156 12.6879Z" fill="#025E73"/>
</svg>
