<svg width="41" height="42" viewBox="0 0 41 42" fill="none" xmlns="http://www.w3.org/2000/svg">
<path d="M16.66 38.1543L15.8089 32.7927C15.2699 32.5941 14.7026 32.3246 14.1068 31.9842C13.5111 31.6437 12.9863 31.2891 12.5324 30.9203L7.51113 33.2182L3.55371 26.2395L8.14942 22.8779C8.09268 22.6225 8.05722 22.3318 8.04304 22.0055C8.02885 21.6793 8.02176 21.3885 8.02176 21.1332C8.02176 20.8779 8.02885 20.5871 8.04304 20.2609C8.05722 19.9346 8.09268 19.6438 8.14942 19.3885L3.55371 16.0269L7.51113 9.04819L12.5324 11.346C12.9863 10.9773 13.5111 10.6226 14.1068 10.2822C14.7026 9.9418 15.2699 9.68648 15.8089 9.51627L16.66 4.11206H24.4897L25.3408 9.47372C25.8798 9.6723 26.4542 9.93471 27.0642 10.2609C27.6741 10.5872 28.1918 10.9489 28.6173 11.346L33.6386 9.04819L37.596 16.0269L33.0003 19.3034C33.057 19.5871 33.0925 19.8921 33.1067 20.2183C33.1208 20.5445 33.1279 20.8495 33.1279 21.1332C33.1279 21.4169 33.1208 21.7148 33.1067 22.0268C33.0925 22.3389 33.057 22.6367 33.0003 22.9204L37.596 26.2395L33.6386 33.2182L28.6173 30.9203C28.1634 31.2891 27.6457 31.6508 27.0642 32.0054C26.4826 32.3601 25.9081 32.6225 25.3408 32.7927L24.4897 38.1543H16.66ZM20.5748 26.6651C22.1067 26.6651 23.4117 26.1261 24.4897 25.0481C25.5677 23.9701 26.1067 22.6651 26.1067 21.1332C26.1067 19.6013 25.5677 18.2963 24.4897 17.2183C23.4117 16.1403 22.1067 15.6013 20.5748 15.6013C19.0429 15.6013 17.738 16.1403 16.66 17.2183C15.582 18.2963 15.043 19.6013 15.043 21.1332C15.043 22.6651 15.582 23.9701 16.66 25.0481C17.738 26.1261 19.0429 26.6651 20.5748 26.6651ZM20.5748 24.1119C19.7522 24.1119 19.05 23.8211 18.4685 23.2396C17.8869 22.658 17.5961 21.9559 17.5961 21.1332C17.5961 20.3105 17.8869 19.6084 18.4685 19.0268C19.05 18.4453 19.7522 18.1545 20.5748 18.1545C21.3975 18.1545 22.0997 18.4453 22.6812 19.0268C23.2628 19.6084 23.5535 20.3105 23.5535 21.1332C23.5535 21.9559 23.2628 22.658 22.6812 23.2396C22.0997 23.8211 21.3975 24.1119 20.5748 24.1119ZM18.7025 35.6012H22.4472L23.0429 30.8352C23.9791 30.6083 24.8656 30.2537 25.7025 29.7714C26.5393 29.2892 27.2982 28.7076 27.979 28.0268L32.4896 29.9842L34.1918 26.9204L30.1918 23.9842C30.3053 23.502 30.3975 23.0268 30.4684 22.5587C30.5393 22.0906 30.5748 21.6155 30.5748 21.1332C30.5748 20.6509 30.5464 20.1758 30.4897 19.7077C30.4329 19.2396 30.3336 18.7644 30.1918 18.2822L34.1918 15.346L32.4896 12.2822L27.979 14.2396C27.3266 13.5021 26.589 12.885 25.7663 12.3886C24.9436 11.8921 24.0358 11.573 23.0429 11.4311L22.4472 6.66523H18.7025L18.1068 11.4311C17.1423 11.6297 16.2415 11.9702 15.4047 12.4524C14.5678 12.9347 13.8231 13.5304 13.1707 14.2396L8.66005 12.2822L6.95794 15.346L10.9579 18.2822C10.8444 18.7644 10.7522 19.2396 10.6813 19.7077C10.6104 20.1758 10.5749 20.6509 10.5749 21.1332C10.5749 21.6155 10.6104 22.0906 10.6813 22.5587C10.7522 23.0268 10.8444 23.502 10.9579 23.9842L6.95794 26.9204L8.66005 29.9842L13.1707 28.0268C13.8515 28.7076 14.6104 29.2892 15.4472 29.7714C16.2841 30.2537 17.1706 30.6083 18.1068 30.8352L18.7025 35.6012Z" fill="#F2F2F2"/>
</svg>
