<svg width="40" height="41" viewBox="0 0 40 41" fill="none" xmlns="http://www.w3.org/2000/svg">
<g clip-path="url(#clip0_182_917)">
<path d="M27.1429 10.0156C27.1429 8.35802 26.3903 6.76831 25.0508 5.59621C23.7112 4.42411 21.8944 3.76562 20 3.76562C18.1056 3.76562 16.2888 4.42411 14.9492 5.59621C13.6097 6.76831 12.8571 8.35802 12.8571 10.0156C12.8571 11.6732 13.6097 13.2629 14.9492 14.435C16.2888 15.6071 18.1056 16.2656 20 16.2656C21.8944 16.2656 23.7112 15.6071 25.0508 14.435C26.3903 13.2629 27.1429 11.6732 27.1429 10.0156ZM8.57143 10.0156C8.57143 7.36346 9.77551 4.81992 11.9188 2.94456C14.0621 1.06919 16.969 0.015625 20 0.015625C23.031 0.015625 25.9379 1.06919 28.0812 2.94456C30.2245 4.81992 31.4286 7.36346 31.4286 10.0156C31.4286 12.6678 30.2245 15.2113 28.0812 17.0867C25.9379 18.9621 23.031 20.0156 20 20.0156C16.969 20.0156 14.0621 18.9621 11.9188 17.0867C9.77551 15.2113 8.57143 12.6678 8.57143 10.0156ZM4.40179 36.2656H35.5982C34.8036 31.3203 29.9464 27.5156 24.0804 27.5156H15.9196C10.0536 27.5156 5.19643 31.3203 4.40179 36.2656ZM0 37.6953C0 30 7.125 23.7656 15.9196 23.7656H24.0804C32.875 23.7656 40 30 40 37.6953C40 38.9766 38.8125 40.0156 37.3482 40.0156H2.65179C1.1875 40.0156 0 38.9766 0 37.6953Z" fill="#F2F2F2"/>
</g>
<defs>
<clipPath id="clip0_182_917">
<rect width="40" height="40" fill="white" transform="translate(0 0.015625)"/>
</clipPath>
</defs>
</svg>
