<svg width="40" height="41" viewBox="0 0 40 41" fill="none" xmlns="http://www.w3.org/2000/svg">
<g clip-path="url(#clip0_182_1327)">
<path d="M16.4841 0.585711C16.0154 0.093524 15.3123 -0.093976 14.656 0.077899C13.9998 0.249774 13.492 0.773212 13.3201 1.42946L12.0857 6.31227L7.24196 4.94509C6.58571 4.75759 5.88259 4.94509 5.40602 5.42165C4.92946 5.89821 4.74196 6.60134 4.92946 7.25759L6.29665 12.1013L1.41384 13.3435C0.757587 13.5076 0.241961 14.0232 0.062274 14.6795C-0.117414 15.3357 0.077899 16.031 0.570086 16.4998L4.17946 20.0154L0.570086 23.531C0.077899 23.9998 -0.109601 24.7029 0.062274 25.3591C0.234149 26.0154 0.757587 26.5232 1.41384 26.6951L6.29665 27.9295L4.92946 32.7732C4.74196 33.4295 4.92946 34.1326 5.40602 34.6091C5.88259 35.0857 6.58571 35.2732 7.24196 35.0857L12.0857 33.7185L13.3201 38.6013C13.4841 39.2576 13.9998 39.7732 14.656 39.9529C15.3123 40.1326 16.0076 39.9373 16.4841 39.4529L19.9998 35.8435L23.5154 39.4529C23.992 39.9373 24.6873 40.1326 25.3435 39.9529C25.9998 39.7732 26.5076 39.2576 26.6795 38.6013L27.9138 33.7185L32.7576 35.0857C33.4138 35.2732 34.117 35.0857 34.5935 34.6091C35.0701 34.1326 35.2576 33.4295 35.0701 32.7732L33.7029 27.9295L38.5857 26.6951C39.242 26.531 39.7576 26.0154 39.9373 25.3591C40.117 24.7029 39.9216 24.0076 39.4373 23.531L35.8279 20.0154L39.4373 16.4998C39.9216 16.0232 40.117 15.3279 39.9373 14.6716C39.7576 14.0154 39.242 13.5076 38.5857 13.3357L33.7029 12.1013L35.0701 7.25759C35.2576 6.60134 35.0701 5.89821 34.5935 5.42165C34.117 4.94509 33.4138 4.75759 32.7576 4.94509L27.9138 6.31227L26.6716 1.42946C26.5076 0.773212 25.992 0.257586 25.3357 0.077899C24.6795 -0.101789 23.9841 0.093524 23.5154 0.585711L19.9998 4.19509L16.4841 0.585711Z" fill="#5ABF4B"/>
</g>
<defs>
<clipPath id="clip0_182_1327">
<rect width="40" height="40" fill="white" transform="translate(0 0.015625)"/>
</clipPath>
</defs>
</svg>
