<svg width="121" height="125" viewBox="0 0 121 125" fill="none" xmlns="http://www.w3.org/2000/svg">
<path d="M119.46 62.1764C119.46 95.9934 92.9124 123.353 60.2302 123.353C27.548 123.353 1 95.9934 1 62.1764C1 28.3594 27.548 1 60.2302 1C92.9124 1 119.46 28.3594 119.46 62.1764Z" fill="#D9D9D9" stroke="#F2F2F2" stroke-width="2"/>
<path d="M57.6016 55.4813C53.2016 55.4813 49.6016 54.0376 46.8016 51.1501C44.0016 48.2626 42.6016 44.5501 42.6016 40.0126C42.6016 35.4751 44.0016 31.7626 46.8016 28.8751C49.6016 25.9876 53.2016 24.5438 57.6016 24.5438C62.0016 24.5438 65.6016 25.9876 68.4016 28.8751C71.2016 31.7626 72.6016 35.4751 72.6016 40.0126C72.6016 44.5501 71.2016 48.2626 68.4016 51.1501C65.6016 54.0376 62.0016 55.4813 57.6016 55.4813ZM25.6016 88.5844V78.8907C25.6016 76.2782 26.2349 74.0438 27.5016 72.1876C28.7682 70.3313 30.4016 68.922 32.4016 67.9594C36.8682 65.8969 41.1516 64.3501 45.2516 63.3188C49.3516 62.2876 53.4682 61.7719 57.6016 61.7719C61.7349 61.7719 65.8349 62.3048 69.9016 63.3704C73.9682 64.436 78.2323 65.9724 82.6937 67.9795C84.7804 68.9506 86.4534 70.3588 87.7127 72.2041C88.9719 74.0493 89.6016 76.2782 89.6016 78.8907V88.5844H25.6016ZM31.6016 82.3969H83.6016V78.8907C83.6016 77.7907 83.2849 76.7423 82.6516 75.7454C82.0182 74.7485 81.2349 74.0095 80.3016 73.5282C76.0349 71.3969 72.1349 69.936 68.6016 69.1454C65.0682 68.3548 61.4016 67.9594 57.6016 67.9594C53.8016 67.9594 50.1016 68.3548 46.5016 69.1454C42.9016 69.936 39.0016 71.3969 34.8016 73.5282C33.8682 74.0095 33.1016 74.7485 32.5016 75.7454C31.9016 76.7423 31.6016 77.7907 31.6016 78.8907V82.3969ZM57.6016 49.2938C60.2016 49.2938 62.3516 48.4173 64.0516 46.6641C65.7516 44.911 66.6016 42.6938 66.6016 40.0126C66.6016 37.3313 65.7516 35.1141 64.0516 33.361C62.3516 31.6079 60.2016 30.7313 57.6016 30.7313C55.0016 30.7313 52.8516 31.6079 51.1516 33.361C49.4516 35.1141 48.6016 37.3313 48.6016 40.0126C48.6016 42.6938 49.4516 44.911 51.1516 46.6641C52.8516 48.4173 55.0016 49.2938 57.6016 49.2938Z" fill="#F2F2F2"/>
</svg>
