<svg width="41" height="36" viewBox="0 0 41 36" fill="none" xmlns="http://www.w3.org/2000/svg">
<path d="M4.9209 4.92725C4.9209 3.76692 5.28965 2.65413 5.94602 1.83365C6.6024 1.01318 7.49264 0.552246 8.4209 0.552246C9.34916 0.552246 10.2394 1.01318 10.8958 1.83365C11.5521 2.65413 11.9209 3.76692 11.9209 4.92725C11.9209 6.08757 11.5521 7.20037 10.8958 8.02084C10.2394 8.84131 9.34916 9.30225 8.4209 9.30225C7.49264 9.30225 6.6024 8.84131 5.94602 8.02084C5.28965 7.20037 4.9209 6.08757 4.9209 4.92725ZM4.4209 17.2476C3.7959 18.1226 3.4209 19.2866 3.4209 20.5522C3.4209 21.8179 3.7959 22.9819 4.4209 23.8569V17.2476ZM13.4459 13.396C11.5896 15.4507 10.4209 18.4585 10.4209 21.8022C10.4209 24.4819 11.1709 26.9429 12.4209 28.8726V30.5522C12.4209 31.9351 11.5271 33.0522 10.4209 33.0522H6.4209C5.31465 33.0522 4.4209 31.9351 4.4209 30.5522V28.4585C2.0584 27.0522 0.420898 24.0444 0.420898 20.5522C0.420898 15.7163 3.55215 11.8022 7.4209 11.8022H9.4209C10.9209 11.8022 12.3084 12.3882 13.4459 13.3882V13.396ZM28.4209 30.5522V28.8726C29.6709 26.9429 30.4209 24.4819 30.4209 21.8022C30.4209 18.4585 29.2521 15.4507 27.3959 13.3882C28.5334 12.3882 29.9209 11.8022 31.4209 11.8022H33.4209C37.2896 11.8022 40.4209 15.7163 40.4209 20.5522C40.4209 24.0444 38.7834 27.0522 36.4209 28.4585V30.5522C36.4209 31.9351 35.5271 33.0522 34.4209 33.0522H30.4209C29.3146 33.0522 28.4209 31.9351 28.4209 30.5522ZM28.9209 4.92725C28.9209 3.76692 29.2896 2.65413 29.946 1.83365C30.6024 1.01318 31.4926 0.552246 32.4209 0.552246C33.3492 0.552246 34.2394 1.01318 34.8958 1.83365C35.5521 2.65413 35.9209 3.76692 35.9209 4.92725C35.9209 6.08757 35.5521 7.20037 34.8958 8.02084C34.2394 8.84131 33.3492 9.30225 32.4209 9.30225C31.4926 9.30225 30.6024 8.84131 29.946 8.02084C29.2896 7.20037 28.9209 6.08757 28.9209 4.92725ZM36.4209 17.2476V23.8647C37.0459 22.9819 37.4209 21.8257 37.4209 20.5601C37.4209 19.2944 37.0459 18.1304 36.4209 17.2554V17.2476ZM20.4209 0.552246C21.4818 0.552246 22.4992 1.07903 23.2493 2.01671C23.9995 2.95439 24.4209 4.22616 24.4209 5.55225C24.4209 6.87833 23.9995 8.1501 23.2493 9.08778C22.4992 10.0255 21.4818 10.5522 20.4209 10.5522C19.36 10.5522 18.3426 10.0255 17.5925 9.08778C16.8423 8.1501 16.4209 6.87833 16.4209 5.55225C16.4209 4.22616 16.8423 2.95439 17.5925 2.01671C18.3426 1.07903 19.36 0.552246 20.4209 0.552246ZM15.4209 21.8022C15.4209 23.0679 15.7959 24.2241 16.4209 25.1069V18.4976C15.7959 19.3804 15.4209 20.5366 15.4209 21.8022ZM24.4209 18.4976V25.1147C25.0459 24.2319 25.4209 23.0757 25.4209 21.8101C25.4209 20.5444 25.0459 19.3804 24.4209 18.5054V18.4976ZM28.4209 21.8022C28.4209 25.2944 26.7834 28.3022 24.4209 29.7085V33.0522C24.4209 34.4351 23.5271 35.5522 22.4209 35.5522H18.4209C17.3146 35.5522 16.4209 34.4351 16.4209 33.0522V29.7085C14.0584 28.3022 12.4209 25.2944 12.4209 21.8022C12.4209 16.9663 15.5521 13.0522 19.4209 13.0522H21.4209C25.2896 13.0522 28.4209 16.9663 28.4209 21.8022Z" fill="white"/>
</svg>
