<svg width="40" height="41" viewBox="0 0 40 41" fill="none" xmlns="http://www.w3.org/2000/svg">
<g clip-path="url(#clip0_182_1413)">
<path d="M11.4286 0.015625C13.0089 0.015625 14.2857 1.13281 14.2857 2.51562V5.01562H25.7143V2.51562C25.7143 1.13281 26.9911 0.015625 28.5714 0.015625C30.1518 0.015625 31.4286 1.13281 31.4286 2.51562V5.01562H35.7143C38.0804 5.01562 40 6.69531 40 8.76562V12.5156H0V8.76562C0 6.69531 1.91964 5.01562 4.28571 5.01562H8.57143V2.51562C8.57143 1.13281 9.84821 0.015625 11.4286 0.015625ZM0 15.0156H40V36.2656C40 38.3359 38.0804 40.0156 35.7143 40.0156H4.28571C1.91964 40.0156 0 38.3359 0 36.2656V15.0156ZM7.14286 20.0156C6.35714 20.0156 5.71429 20.5781 5.71429 21.2656V28.7656C5.71429 29.4531 6.35714 30.0156 7.14286 30.0156H15.7143C16.5 30.0156 17.1429 29.4531 17.1429 28.7656V21.2656C17.1429 20.5781 16.5 20.0156 15.7143 20.0156H7.14286Z" fill="#737373"/>
</g>
<defs>
<clipPath id="clip0_182_1413">
<rect width="40" height="40" fill="white" transform="translate(0 0.015625)"/>
</clipPath>
</defs>
</svg>
