<svg width="43" height="43" viewBox="0 0 43 43" fill="none" xmlns="http://www.w3.org/2000/svg">
<path d="M34.1275 30.7561L34.4608 31.0883L34.1275 30.7561C33.5717 31.3139 32.9095 31.5882 32.1117 31.5882C31.3298 31.5882 30.6801 31.3163 30.1334 30.7612C29.5857 30.205 29.3159 29.5447 29.3159 28.7517C29.3159 27.9588 29.5856 27.3017 30.1321 26.7509C30.6784 26.2003 31.3286 25.9299 32.1117 25.9299C32.9141 25.9299 33.5779 26.1983 34.1327 26.7391L34.4635 26.3997L34.1327 26.7392C34.6839 27.2764 34.9576 27.9294 34.9576 28.7311C34.9576 29.5331 34.6835 30.1983 34.1275 30.7561ZM37.2065 21.4082L37.9551 21.837V20.9743V4.50375C37.9551 3.54446 37.6086 2.71059 36.9289 2.02924C36.2492 1.34785 35.4168 1 34.4588 1H4.49625C3.53822 1 2.70584 1.34785 2.02615 2.02924C1.3465 2.71059 1 3.54446 1 4.50375V34.5413C1 35.5006 1.3465 36.3345 2.02615 37.0158C2.70584 37.6972 3.53822 38.0451 4.49625 38.0451H20.9757H21.7905L21.4214 37.3186C21.2018 36.8863 21.012 36.4286 20.8523 35.9451L20.8523 35.9451C20.6891 35.4509 20.5424 34.9426 20.4121 34.4203L20.3176 34.0413H19.927H4.99625V32.1884V19.923V19.7228V5.00375H33.9588V19.923V20.3327L34.3605 20.4133C34.8399 20.5094 35.3291 20.6379 35.828 20.7993C36.3115 20.9556 36.7708 21.1586 37.2065 21.4082ZM8.99001 29.535V30.035H9.49001H20.0268H20.4175L20.512 29.656C20.6422 29.1339 20.7885 28.6289 20.9507 28.1409C21.1066 27.672 21.3095 27.2181 21.5599 26.7789L21.986 26.0313H21.1255H9.49001H8.99001V26.5313V29.535ZM8.99001 21.0244V21.5244H9.49001H26.6685H26.7868L26.8926 21.4714C27.3418 21.2462 27.7711 21.0632 28.1808 20.9211C28.5972 20.7765 29.0655 20.6387 29.5866 20.5082L29.965 20.4133V20.0232V18.0207V17.5207H29.465H9.49001H8.99001V18.0207V21.0244ZM8.99001 12.5138V13.0138H9.49001H29.465H29.965V12.5138V9.51001V9.01001H29.465H9.49001H8.99001V9.51001V12.5138ZM34.9717 37.5299C34.0796 38.0079 33.1252 38.2466 32.101 38.2466C31.0769 38.2466 30.1266 38.0079 29.2424 37.5306C28.5234 37.1425 27.9159 36.6395 27.4166 36.0193C28.0906 35.6869 28.7736 35.4118 29.4657 35.1933C30.3147 34.9254 31.1961 34.791 32.1117 34.791C33.0274 34.791 33.9087 34.9254 34.7578 35.1933C35.4498 35.4117 36.1327 35.6869 36.8066 36.0191C36.3067 36.6387 35.6963 37.1416 34.9717 37.5299ZM25.1144 39.073C27.0384 41.0194 29.3716 42 32.0868 42C34.8018 42 37.1424 41.0195 39.0825 39.0746C41.0204 37.1319 42 34.8118 42 32.1383C42 29.3882 41.0236 27.0294 39.0818 25.0903C37.1423 23.1535 34.8104 22.1765 32.1117 22.1765C29.3809 22.1765 27.0391 23.1523 25.1146 25.0919C23.1902 27.0314 22.2235 29.3897 22.2235 32.1383C22.2235 34.8103 23.1937 37.1299 25.1144 39.073Z" fill="#F2F2F2" stroke="white"/>
</svg>
