<svg width="57" height="68" viewBox="0 0 57 68" fill="none" xmlns="http://www.w3.org/2000/svg">
<mask id="mask0_181_2369" style="mask-type:luminance" maskUnits="userSpaceOnUse" x="7" y="35" width="34" height="33">
<path d="M7.2229 35.8835H40.2178V67.4209H7.2229V35.8835Z" fill="white"/>
</mask>
<g mask="url(#mask0_181_2369)">
<path fill-rule="evenodd" clip-rule="evenodd" d="M7.79639 47.1482C13.7574 54.6071 22.0249 61.1914 28.3054 67.4316C31.7236 64.0357 35.7191 60.54 39.6313 56.8579L18.7437 36.4457L7.79639 47.1482Z" fill="white"/>
</g>
<mask id="mask1_181_2369" style="mask-type:luminance" maskUnits="userSpaceOnUse" x="0" y="3" width="17" height="42">
<path d="M0.0571289 3.61052H16.1599V44.6238H0.0571289V3.61052Z" fill="white"/>
</mask>
<g mask="url(#mask1_181_2369)">
<path fill-rule="evenodd" clip-rule="evenodd" d="M15.7476 3.73373C14.5769 4.30103 13.4491 4.94711 12.3724 5.66674C11.2929 6.38899 10.2699 7.17953 9.30326 8.03835C8.33393 8.89717 7.43441 9.81902 6.59665 10.8013C5.76157 11.7835 4.99899 12.8183 4.3116 13.903C3.62152 14.9877 3.01468 16.1144 2.48571 17.2832C1.95674 18.4519 1.51369 19.6495 1.15657 20.8786C0.796764 22.1052 0.528251 23.3527 0.348347 24.6186C0.168443 25.8819 0.0771484 27.153 0.0771484 28.4321C0.0771484 34.3178 2.40784 39.665 5.90388 44.6184L15.7476 34.9954V3.73373Z" fill="white"/>
</g>
<mask id="mask2_181_2369" style="mask-type:luminance" maskUnits="userSpaceOnUse" x="38" y="16" width="19" height="18">
<path d="M38.8418 16.3853H56.5583V33.8663H38.8418V16.3853Z" fill="white"/>
</mask>
<g mask="url(#mask2_181_2369)">
<path fill-rule="evenodd" clip-rule="evenodd" d="M55.9871 33.3729C56.3523 31.7446 56.5376 30.0978 56.5376 28.4327C56.5403 24.3566 55.6595 20.4722 53.89 16.7822H38.9983L55.9871 33.3729Z" fill="white"/>
</g>
<mask id="mask3_181_2369" style="mask-type:luminance" maskUnits="userSpaceOnUse" x="18" y="0" width="35" height="14">
<path d="M18.9094 0.858398H52.5917V13.6961H18.9094V0.858398Z" fill="white"/>
</mask>
<g mask="url(#mask3_181_2369)">
<path fill-rule="evenodd" clip-rule="evenodd" d="M28.3074 0.858408C25.0825 0.855782 21.9517 1.37843 18.9094 2.42635V13.6908H52.1702C51.5365 12.7112 50.841 11.7762 50.0865 10.8806C49.332 9.98765 48.5237 9.14459 47.6591 8.3488C46.7945 7.55564 45.8843 6.81763 44.9257 6.1374C43.9671 5.45455 42.9682 4.83473 41.9291 4.27531C40.8899 3.71589 39.8185 3.22476 38.7176 2.79667C37.6141 2.37119 36.489 2.01401 35.3397 1.72511C34.1905 1.43621 33.0278 1.22085 31.8518 1.0764C30.6757 0.92932 29.4942 0.858408 28.3074 0.858408Z" fill="white"/>
</g>
<path fill-rule="evenodd" clip-rule="evenodd" d="M41.8878 54.6828C47.446 49.2225 52.5263 43.3369 54.9805 36.7552L34.4661 16.7186L26.6953 16.8079L18.9245 16.892L18.8332 24.4822L18.7446 32.0697L41.8878 54.6775V54.6828ZM22.8233 20.7055C23.0596 20.4743 23.3335 20.2984 23.6396 20.1723C23.9484 20.0489 24.2706 19.9858 24.6036 19.9858C24.9392 19.9858 25.2588 20.0462 25.5675 20.1723C25.8763 20.2958 26.1502 20.4743 26.3865 20.7055C26.6228 20.9366 26.8027 21.2018 26.9316 21.5039C27.0605 21.8033 27.1249 22.1185 27.1249 22.4441C27.1249 22.7698 27.0605 23.085 26.9316 23.3844C26.8027 23.6864 26.6228 23.9543 26.3865 24.1828C26.1502 24.4139 25.8763 24.5925 25.5675 24.7159C25.2588 24.842 24.9392 24.905 24.6036 24.9024C24.2706 24.9024 23.9484 24.842 23.6396 24.7159C23.3335 24.5899 23.0596 24.4139 22.8233 24.1828C22.5871 23.9517 22.4071 23.6864 22.2783 23.3844C22.1494 23.085 22.0876 22.7698 22.0876 22.4441C22.0876 22.1185 22.1494 21.8059 22.2783 21.5039C22.4071 21.2018 22.5871 20.9366 22.8233 20.7055Z" fill="white"/>
<mask id="mask4_181_2369" style="mask-type:luminance" maskUnits="userSpaceOnUse" x="12" y="11" width="33" height="31">
<path d="M12.7212 11.3168H44.0674V41.9744H12.7212V11.3168Z" fill="white"/>
</mask>
<g mask="url(#mask4_181_2369)">
<path d="M44.0674 26.6469C44.0674 27.1485 44.0406 27.6475 43.9922 28.1492C43.9412 28.6482 43.866 29.1446 43.7667 29.6357C43.6646 30.1295 43.5411 30.6153 43.3908 31.096C43.2431 31.5766 43.0712 32.0493 42.8725 32.5116C42.6765 32.9764 42.459 33.4282 42.2147 33.872C41.973 34.3159 41.7099 34.744 41.4252 35.1616C41.1406 35.5792 40.8345 35.9836 40.5096 36.3697C40.1847 36.7584 39.8383 37.1313 39.4758 37.4859C39.1133 37.8405 38.7321 38.1766 38.3373 38.4971C37.9399 38.8148 37.5291 39.1143 37.1022 39.3926C36.6752 39.671 36.2349 39.9284 35.7811 40.1648C35.33 40.4012 34.8655 40.6165 34.3929 40.8083C33.9176 41 33.4343 41.1707 32.9429 41.3151C32.4515 41.4622 31.9548 41.583 31.4527 41.6802C30.9479 41.78 30.4404 41.8536 29.9302 41.9008C29.42 41.9507 28.9072 41.9744 28.3943 41.9744C27.8814 41.9744 27.3686 41.9507 26.8584 41.9008C26.3482 41.8536 25.8407 41.78 25.3359 41.6802C24.8338 41.583 24.3344 41.4622 23.8457 41.3151C23.3543 41.1707 22.871 41 22.3957 40.8083C21.9231 40.6165 21.4586 40.4012 21.0048 40.1648C20.5537 39.9284 20.1134 39.671 19.6864 39.3926C19.2595 39.1143 18.8487 38.8148 18.4513 38.4971C18.0539 38.1766 17.6753 37.8405 17.3128 37.4859C16.9476 37.1313 16.6039 36.7584 16.279 36.3697C15.9541 35.9836 15.648 35.5792 15.3634 35.1616C15.0787 34.744 14.8129 34.3159 14.5712 33.872C14.3296 33.4282 14.1121 32.9764 13.9134 32.5116C13.7174 32.0493 13.5455 31.5766 13.3952 31.096C13.2475 30.6153 13.124 30.1295 13.0219 29.6357C12.9226 29.1446 12.8474 28.6482 12.7964 28.1492C12.7454 27.6475 12.7212 27.1485 12.7212 26.6469C12.7212 26.1426 12.7454 25.6436 12.7964 25.1446C12.8474 24.643 12.9226 24.1466 13.0219 23.6555C13.124 23.1617 13.2475 22.6758 13.3952 22.1952C13.5455 21.7146 13.7174 21.2445 13.9134 20.7796C14.1121 20.3147 14.3296 19.863 14.5712 19.4191C14.8129 18.9779 15.0787 18.5472 15.3634 18.1296C15.648 17.712 15.9541 17.3102 16.279 16.9215C16.6039 16.5328 16.9476 16.1624 17.3128 15.8053C17.6753 15.4507 18.0539 15.1145 18.4513 14.7967C18.8487 14.4763 19.2595 14.1795 19.6864 13.8985C20.1134 13.6201 20.5537 13.3627 21.0048 13.1264C21.4586 12.89 21.9231 12.6746 22.3957 12.4829C22.871 12.2912 23.3543 12.1231 23.8457 11.976C24.3344 11.8316 24.8338 11.7081 25.3359 11.611C25.8407 11.5138 26.3482 11.4402 26.8584 11.3903C27.3686 11.3404 27.8814 11.3168 28.3943 11.3168C28.9072 11.3168 29.42 11.3404 29.9302 11.3903C30.4404 11.4402 30.9479 11.5138 31.4527 11.611C31.9548 11.7081 32.4515 11.8316 32.9429 11.976C33.4343 12.1231 33.9176 12.2912 34.3929 12.4829C34.8655 12.6746 35.33 12.89 35.7811 13.1264C36.2349 13.3627 36.6752 13.6201 37.1022 13.8985C37.5291 14.1795 37.9399 14.4763 38.3373 14.7967C38.7321 15.1145 39.1133 15.4507 39.4758 15.8053C39.8383 16.1624 40.1847 16.5328 40.5096 16.9215C40.8345 17.3102 41.1406 17.712 41.4252 18.1296C41.7099 18.5472 41.973 18.9779 42.2147 19.4191C42.459 19.863 42.6765 20.3147 42.8725 20.7796C43.0712 21.2445 43.2431 21.7146 43.3908 22.1952C43.5411 22.6758 43.6646 23.1617 43.7667 23.6555C43.866 24.1466 43.9412 24.643 43.9922 25.1446C44.0406 25.6436 44.0674 26.1426 44.0674 26.6469Z" fill="#048ABF"/>
</g>
</svg>
