<svg width="40" height="41" viewBox="0 0 40 41" fill="none" xmlns="http://www.w3.org/2000/svg">
<g clip-path="url(#clip0_182_1409)">
<path d="M11.4286 0.015625C12.6161 0.015625 13.5714 0.851562 13.5714 1.89062V5.01562H26.4286V1.89062C26.4286 0.851562 27.3839 0.015625 28.5714 0.015625C29.7589 0.015625 30.7143 0.851562 30.7143 1.89062V5.01562H34.2857C37.4375 5.01562 40 7.25781 40 10.0156V11.2656V15.0156V35.0156C40 37.7734 37.4375 40.0156 34.2857 40.0156H5.71429C2.5625 40.0156 0 37.7734 0 35.0156V15.0156V11.2656V10.0156C0 7.25781 2.5625 5.01562 5.71429 5.01562H9.28571V1.89062C9.28571 0.851562 10.2411 0.015625 11.4286 0.015625ZM35.7143 15.0156H4.28571V35.0156C4.28571 35.7031 4.92857 36.2656 5.71429 36.2656H34.2857C35.0714 36.2656 35.7143 35.7031 35.7143 35.0156V15.0156ZM29.375 23.2188L19.375 31.9688C18.5357 32.7031 17.1786 32.7031 16.3482 31.9688L10.6339 26.9688C9.79464 26.2344 9.79464 25.0469 10.6339 24.3203C11.4732 23.5938 12.8304 23.5859 13.6607 24.3203L17.8571 27.9922L26.3393 20.5703C27.1786 19.8359 28.5357 19.8359 29.3661 20.5703C30.1964 21.3047 30.2054 22.4922 29.3661 23.2188H29.375Z" fill="#5ABF4B"/>
</g>
<defs>
<clipPath id="clip0_182_1409">
<rect width="40" height="40" fill="white" transform="translate(0 0.015625)"/>
</clipPath>
</defs>
</svg>
