<svg width="40" height="41" viewBox="0 0 40 41" fill="none" xmlns="http://www.w3.org/2000/svg">
<g clip-path="url(#clip0_182_796)">
<path d="M0 20.0156C0 14.7113 2.10714 9.62422 5.85786 5.87349C9.60859 2.12276 14.6957 0.015625 20 0.015625C25.3043 0.015625 30.3914 2.12276 34.1421 5.87349C37.8929 9.62422 40 14.7113 40 20.0156C40 25.32 37.8929 30.407 34.1421 34.1578C30.3914 37.9085 25.3043 40.0156 20 40.0156C14.6957 40.0156 9.60859 37.9085 5.85786 34.1578C2.10714 30.407 0 25.32 0 20.0156ZM25 27.5156C25 25.4141 23.7109 23.6172 21.875 22.8828V6.89062C21.875 5.85156 21.0391 5.01562 20 5.01562C18.9609 5.01562 18.125 5.85156 18.125 6.89062V22.8828C16.2891 23.625 15 25.4219 15 27.5156C15 30.2734 17.2422 32.5156 20 32.5156C22.7578 32.5156 25 30.2734 25 27.5156ZM11.25 13.7656C11.913 13.7656 12.5489 13.5022 13.0178 13.0334C13.4866 12.5646 13.75 11.9287 13.75 11.2656C13.75 10.6026 13.4866 9.9667 13.0178 9.49786C12.5489 9.02902 11.913 8.76562 11.25 8.76562C10.587 8.76562 9.95107 9.02902 9.48223 9.49786C9.01339 9.9667 8.75 10.6026 8.75 11.2656C8.75 11.9287 9.01339 12.5646 9.48223 13.0334C9.95107 13.5022 10.587 13.7656 11.25 13.7656ZM10 20.0156C10 19.3526 9.73661 18.7167 9.26777 18.2479C8.79893 17.779 8.16304 17.5156 7.5 17.5156C6.83696 17.5156 6.20107 17.779 5.73223 18.2479C5.26339 18.7167 5 19.3526 5 20.0156C5 20.6787 5.26339 21.3146 5.73223 21.7834C6.20107 22.2522 6.83696 22.5156 7.5 22.5156C8.16304 22.5156 8.79893 22.2522 9.26777 21.7834C9.73661 21.3146 10 20.6787 10 20.0156ZM32.5 22.5156C33.163 22.5156 33.7989 22.2522 34.2678 21.7834C34.7366 21.3146 35 20.6787 35 20.0156C35 19.3526 34.7366 18.7167 34.2678 18.2479C33.7989 17.779 33.163 17.5156 32.5 17.5156C31.837 17.5156 31.2011 17.779 30.7322 18.2479C30.2634 18.7167 30 19.3526 30 20.0156C30 20.6787 30.2634 21.3146 30.7322 21.7834C31.2011 22.2522 31.837 22.5156 32.5 22.5156ZM31.25 11.2656C31.25 10.6026 30.9866 9.9667 30.5178 9.49786C30.0489 9.02902 29.413 8.76562 28.75 8.76562C28.087 8.76562 27.4511 9.02902 26.9822 9.49786C26.5134 9.9667 26.25 10.6026 26.25 11.2656C26.25 11.9287 26.5134 12.5646 26.9822 13.0334C27.4511 13.5022 28.087 13.7656 28.75 13.7656C29.413 13.7656 30.0489 13.5022 30.5178 13.0334C30.9866 12.5646 31.25 11.9287 31.25 11.2656Z" fill="#F2F2F2"/>
</g>
<defs>
<clipPath id="clip0_182_796">
<rect width="40" height="40" fill="white" transform="translate(0 0.015625)"/>
</clipPath>
</defs>
</svg>
