<svg width="187" height="188" viewBox="0 0 187 188" fill="none" xmlns="http://www.w3.org/2000/svg">
<path d="M185.185 93.6162C185.185 144.772 143.949 186.232 93.0926 186.232C42.2366 186.232 1 144.772 1 93.6162C1 42.4604 42.2366 1 93.0926 1C143.949 1 185.185 42.4604 185.185 93.6162Z" fill="#D9D9D9" stroke="#2A6377" stroke-width="2"/>
<path d="M95.0328 82.6513C87.8646 82.6513 81.9998 80.4669 77.4382 76.0981C72.8767 71.7294 70.5959 66.1124 70.5959 59.2472C70.5959 52.382 72.8767 46.765 77.4382 42.3963C81.9998 38.0275 87.8646 35.8431 95.0328 35.8431C102.201 35.8431 108.066 38.0275 112.627 42.3963C117.189 46.765 119.47 52.382 119.47 59.2472C119.47 66.1124 117.189 71.7294 112.627 76.0981C108.066 80.4669 102.201 82.6513 95.0328 82.6513ZM42.9009 132.736V118.069C42.9009 114.117 43.9327 110.736 45.9962 107.928C48.0598 105.119 50.7207 102.987 53.9789 101.531C61.2556 98.41 68.2337 96.0696 74.9131 94.5093C81.5925 92.9491 88.2991 92.1689 95.0328 92.1689C101.766 92.1689 108.446 92.9751 115.071 94.5873C121.696 96.1996 128.643 98.5241 135.911 101.561C139.31 103.03 142.036 105.161 144.087 107.953C146.139 110.744 147.165 114.117 147.165 118.069V132.736H42.9009ZM52.6756 123.374H137.39V118.069C137.39 116.405 136.874 114.819 135.842 113.311C134.81 111.802 133.534 110.684 132.014 109.956C125.063 106.731 118.709 104.521 112.953 103.325C107.197 102.129 101.223 101.531 95.0328 101.531C88.8421 101.531 82.8143 102.129 76.9495 103.325C71.0847 104.521 64.7311 106.731 57.8888 109.956C56.3683 110.684 55.1193 111.802 54.1418 113.311C53.1643 114.819 52.6756 116.405 52.6756 118.069V123.374ZM95.0328 73.2896C99.2685 73.2896 102.771 71.9634 105.541 69.311C108.31 66.6585 109.695 63.3039 109.695 59.2472C109.695 55.1905 108.31 51.8359 105.541 49.1835C102.771 46.531 99.2685 45.2048 95.0328 45.2048C90.797 45.2048 87.2944 46.531 84.5249 49.1835C81.7554 51.8359 80.3707 55.1905 80.3707 59.2472C80.3707 63.3039 81.7554 66.6585 84.5249 69.311C87.2944 71.9634 90.797 73.2896 95.0328 73.2896Z" fill="white"/>
</svg>
