<svg width="40" height="40" viewBox="0 0 40 40" fill="none" xmlns="http://www.w3.org/2000/svg">
<path d="M7.5 32.5H9.33333L27.7917 14.0417L25.9583 12.2084L7.5 30.6667V32.5ZM33.0833 12.25L27.75 6.91671L29.5 5.16671C29.9722 4.69449 30.5556 4.45837 31.25 4.45837C31.9444 4.45837 32.5278 4.69449 33 5.16671L34.8333 7.00004C35.3056 7.47226 35.5417 8.0556 35.5417 8.75004C35.5417 9.44449 35.3056 10.0278 34.8333 10.5L33.0833 12.25ZM31.3333 14L10.3333 35H5V29.6667L26 8.66671L31.3333 14ZM26.875 13.125L25.9583 12.2084L27.7917 14.0417L26.875 13.125Z" fill="#025E73"/>
</svg>
