<svg width="41" height="41" viewBox="0 0 41 41" fill="none" xmlns="http://www.w3.org/2000/svg">
<path d="M14.6216 0.693519C12.7269 0.982948 11.0485 2.35969 10.5035 4.08062C10.391 4.41699 10.3564 5.05842 10.3132 6.9358L10.2699 9.36075L9.74217 9.59542C9.15387 9.86138 8.71264 10.3151 8.56557 10.8235C8.50501 11.0191 8.47905 11.7701 8.49636 12.8339L8.52231 14.5235L8.76455 14.899C9.0241 15.2901 9.57779 15.7047 10.0623 15.869C10.218 15.9159 10.6419 15.9629 11.0053 15.9629L11.6714 15.9707L11.7666 16.2992C12.2597 18.0671 13.3412 19.5377 14.9071 20.5781L15.4002 20.9066V22.0252C15.4002 22.651 15.3743 23.2064 15.3483 23.2768C15.2964 23.3863 14.7946 23.402 10.5381 23.402C5.26072 23.402 5.477 23.3785 4.8714 23.9261C4.42153 24.3407 4.32636 24.6301 4.32636 25.6627V26.5701L3.72076 27.0629C2.7864 27.8295 2.1462 28.7681 1.8607 29.8085C1.79149 30.051 1.38487 32.1083 0.952298 34.3925C0.398606 37.2868 0.173669 38.6479 0.208274 38.906C0.286137 39.5631 0.761967 40.1654 1.47139 40.5018C1.76553 40.6426 2.39709 40.6504 20.2018 40.6504C37.8853 40.6504 38.638 40.6426 38.9494 40.5096C39.6675 40.181 40.1433 39.5553 40.2039 38.8512C40.2472 38.3975 38.7764 30.4969 38.4909 29.6208C38.1708 28.6586 37.7642 28.0485 36.8644 27.235L36.0512 26.4918L36.1031 25.7722C36.1896 24.6223 35.8436 23.9339 35.013 23.5662C34.6497 23.402 34.5286 23.402 29.8741 23.402H25.1071L25.0552 23.2221C25.0293 23.1282 25.0033 22.5728 25.0033 21.9939V20.9301L25.756 20.3903C26.4221 19.9054 27.1316 19.2405 27.5122 18.732C27.6247 18.5834 27.7891 18.5443 28.611 18.4426C30.1855 18.2627 30.3672 18.0906 30.3672 16.7686V15.9081L30.7392 15.7125C31.2324 15.4466 31.5265 15.1493 31.7687 14.68C31.9591 14.3123 31.9677 14.195 31.9677 12.6462C31.9677 11.0035 31.9677 11.0035 31.7255 10.5576C31.4486 10.0413 30.9122 9.59542 30.4364 9.46244L30.1077 9.37639V8.75842C30.1077 8.41424 30.0644 8.06223 30.0038 7.96836C29.7789 7.57724 29.4069 7.49902 29.0349 7.76498C28.8099 7.92143 28.8099 7.92143 28.8099 9.07914V10.2369L28.2476 10.409C27.9362 10.495 27.6593 10.5732 27.642 10.5732C27.616 10.5732 27.5987 9.66582 27.5987 8.55504C27.5987 6.2005 27.5641 6.03623 26.8893 5.37132C26.2405 4.72988 25.8685 4.62819 24.0949 4.62819C22.4857 4.62819 22.2954 4.6673 21.3957 5.22269C20.4873 5.78591 19.9076 5.77809 18.9733 5.19923C18.1168 4.6673 17.9178 4.62819 16.3173 4.62819C14.6821 4.62819 14.3274 4.70642 13.7132 5.19141C13.4969 5.3635 13.2114 5.69204 13.0816 5.91107L12.848 6.31001L12.8221 8.44553C12.7961 10.2994 12.7788 10.581 12.6664 10.5419C12.5971 10.5185 12.3289 10.4402 12.0694 10.3698L11.5936 10.2525V7.85102C11.5936 6.52904 11.6368 5.18358 11.6801 4.87069C11.8358 3.79119 12.4933 2.87597 13.4969 2.32058C14.388 1.82777 14.587 1.81212 20.2104 1.81212C23.2557 1.81212 25.4272 1.84341 25.7041 1.89035C26.6817 2.05462 27.6074 2.63348 28.1611 3.41572C28.5071 3.90853 28.6975 4.44045 28.7753 5.13665C28.8359 5.73897 29.0349 6.03623 29.3809 6.03623C29.9346 6.03623 30.1509 5.69204 30.0644 4.94891C29.8827 3.22016 28.8359 1.83559 27.1835 1.10811C26.1453 0.646585 26.0069 0.638762 20.1585 0.654407C17.2343 0.654407 14.7427 0.677874 14.6216 0.693519ZM18.1773 6.13792C19.6048 7.01403 20.7295 7.02967 22.157 6.18485L22.8058 5.80155H24.1036C25.5484 5.80155 25.7906 5.87195 26.128 6.36477C26.2924 6.60726 26.301 6.76371 26.301 8.9931C26.301 11.6058 26.3356 11.7935 26.8115 12.0125C26.9499 12.0829 27.1748 12.1377 27.2959 12.1377H27.5295L27.4949 14.0307C27.4603 15.8768 27.4603 15.9472 27.2181 16.573C27.0797 16.9328 26.9239 17.277 26.872 17.3396C26.8028 17.4257 26.3962 17.5039 25.4359 17.6134L24.1036 17.762L23.7402 17.4569C23.2038 17.0111 22.8578 16.9407 21.7936 17.058C20.7728 17.1675 20.5478 17.2379 20.2191 17.5195C19.2415 18.3565 19.5875 19.7802 20.8593 20.1244C21.1188 20.2026 21.413 20.2026 22.1224 20.1322C23.2298 20.0227 23.671 19.8271 24.0084 19.2952C24.2679 18.9041 24.2852 18.8963 25.1677 18.8259C25.929 18.7555 25.929 18.7711 25.012 19.4282C24.2074 20.0149 22.8751 20.6016 21.8888 20.8128C18.4455 21.5637 14.6302 19.835 13.3758 16.9563C12.9692 16.0489 12.8913 15.5248 12.8913 13.7569V12.1377H13.1076C13.445 12.1377 13.8256 11.9265 13.9727 11.6684C14.0765 11.4806 14.1025 11.0347 14.1025 9.07132C14.1025 6.42735 14.1198 6.32565 14.6994 5.98147C14.9763 5.8172 15.0888 5.80155 16.3086 5.80155H17.6323L18.1773 6.13792ZM10.6679 11.3007C10.7371 11.3242 10.9707 11.3711 11.1956 11.3946L11.5936 11.4493V13.1233V14.7973H11.0658C10.4689 14.7973 10.1401 14.6565 9.91519 14.328C9.71621 14.0229 9.70756 11.3085 9.90654 10.9643C10.0969 10.6358 10.2353 10.6358 10.391 10.9643C10.4775 11.1208 10.5987 11.2772 10.6679 11.3007ZM30.4883 10.9174C30.6527 11.113 30.67 11.2381 30.67 12.5992C30.67 14.2263 30.6354 14.3749 30.1423 14.6409C29.9519 14.7504 29.7183 14.7973 29.3377 14.7973H28.8099V13.1233V11.4493L29.2685 11.3946C29.7876 11.332 29.9865 11.199 30.0644 10.8705C30.1336 10.6045 30.2461 10.6123 30.4883 10.9174ZM29.0695 16.5965C29.0695 17.0736 29.0435 17.2223 28.9484 17.2223C28.8878 17.2223 28.7148 17.2457 28.5677 17.2692L28.2995 17.3161L28.4552 16.8624C28.5504 16.6043 28.6456 16.3071 28.6715 16.1819C28.7061 16.0411 28.784 15.9707 28.8965 15.9707C29.0522 15.9707 29.0695 16.0254 29.0695 16.5965ZM22.8231 18.2548C22.9702 18.3878 22.9529 18.6694 22.7972 18.7868C22.5896 18.9432 21.2313 19.0684 21.0669 18.9432C20.9025 18.818 20.8939 18.5208 21.0583 18.4035C21.3005 18.2235 22.6588 18.1062 22.8231 18.2548ZM18.3936 21.9939C19.8557 22.2834 21.6552 22.1817 23.1259 21.7202L23.7056 21.5324V22.432V23.3238H20.2018H16.6979V22.4242V21.5246L17.1565 21.681C17.4073 21.7671 17.9697 21.9079 18.3936 21.9939ZM34.5199 24.6536C34.6064 24.6927 34.7102 24.8257 34.7621 24.9508C34.8227 25.0994 34.7189 26.9299 34.4247 31.1462C34.1998 34.4394 34.0095 37.1381 34.0095 37.146C34.0008 37.1616 28.7667 37.1772 22.3733 37.1851C11.0745 37.2085 10.7371 37.2164 10.5641 37.3572C10.3305 37.5527 10.3218 37.9751 10.5554 38.1863C10.7284 38.3428 10.8409 38.3428 23.2298 38.3428C34.0441 38.3428 35.7744 38.3584 35.982 38.4601C36.3973 38.6479 36.4578 39.0233 36.1204 39.3206L35.9128 39.5161H20.245C9.3615 39.5161 4.52534 39.4927 4.40422 39.4301C3.963 39.2189 4.03221 38.5775 4.51669 38.4288C4.67242 38.3819 5.50296 38.3428 6.46327 38.3428C7.39762 38.3428 8.21086 38.3115 8.30603 38.2646C8.53961 38.155 8.66073 37.7796 8.53096 37.5527C8.37524 37.2555 8.07244 37.1694 7.20729 37.1694H6.42001L6.3681 36.6062C6.25563 35.4407 5.62408 25.8739 5.62408 25.3889C5.62408 24.9821 5.65868 24.8648 5.81441 24.7318C6.00474 24.5753 6.0307 24.5753 20.1845 24.5753C29.2598 24.5753 34.4161 24.6066 34.5199 24.6536ZM4.75893 32.2022C4.89736 34.3534 5.03578 36.3402 5.07039 36.6218L5.12229 37.1381L4.54265 37.2242C3.82458 37.3337 3.3747 37.5997 3.0546 38.0846C2.85562 38.3975 2.81236 38.5462 2.82101 38.992V39.5161H2.44035C2.12024 39.5161 2.00777 39.4692 1.76553 39.2502C1.60116 39.1016 1.47139 38.906 1.47139 38.8043C1.47139 38.4914 3.01999 30.4187 3.16707 29.9728C3.3574 29.3861 3.63425 28.909 4.08412 28.4005C4.37827 28.0641 4.45613 28.0094 4.47344 28.1345C4.49074 28.2206 4.61186 30.051 4.75893 32.2022ZM36.4405 28.5335C36.8039 28.9637 37.0807 29.4487 37.2624 29.965C37.4008 30.3796 38.9321 38.4366 38.9321 38.7652C38.9321 38.9138 38.837 39.0703 38.638 39.2502C38.3871 39.477 38.2833 39.5161 37.9545 39.5161H37.5566L37.6085 39.1016C37.6431 38.773 37.6171 38.6009 37.47 38.2958C37.1326 37.6075 36.6655 37.3024 35.7917 37.2085L35.2899 37.1538L35.3331 36.8643C35.3591 36.7079 35.5062 34.6741 35.6619 32.3352C35.8436 29.5347 35.9733 28.1032 36.0339 28.1189C36.0772 28.1345 36.2675 28.3223 36.4405 28.5335Z" fill="#F2F2F2"/>
<path d="M19.5875 25.5216C17.5372 25.6937 15.7377 26.7967 14.76 28.4863C13.4883 30.6687 14.016 33.4144 16.0318 35.1041C17.5891 36.4104 19.7 36.9032 21.7591 36.426C22.754 36.1992 23.6797 35.7064 24.4929 34.9789C25.3408 34.2201 25.8079 33.5396 26.0934 32.6322C26.7509 30.5827 26.1713 28.5802 24.4929 27.0783C23.1952 25.9127 21.4736 25.373 19.5875 25.5216ZM21.4563 26.8045C23.2125 27.2269 24.5794 28.5411 24.9601 30.1681C25.1158 30.8565 25.1158 31.2007 24.9601 31.889C24.5621 33.5787 23.2212 34.8537 21.3697 35.2996C20.7728 35.4482 19.5097 35.4248 18.9127 35.2683L18.411 35.1275L18.6099 34.9241C19.1117 34.447 19.5875 34.3062 21.413 34.1106C22.4339 34.0089 22.9097 33.8055 23.1346 33.3753C23.2904 33.078 23.7056 31.0677 23.7056 30.5905C23.7056 30.262 23.472 29.9491 23.0827 29.7692C22.6242 29.5501 22.3647 29.6675 21.4044 30.5201C20.9285 30.9504 20.47 31.3024 20.3921 31.3024C20.3143 31.3024 20.2105 31.232 20.1585 31.1459C20.072 31.0051 20.1672 30.8878 20.9804 30.129C21.8283 29.3311 21.8888 29.2529 21.8888 28.9635C21.8888 28.7053 21.8283 28.588 21.5601 28.3298C21.1535 27.9465 21.0842 27.9465 19.4232 28.2125C17.9351 28.455 17.7361 28.5098 17.4593 28.7835C17.1651 29.0652 17.0786 29.3468 16.9143 30.5983C16.7412 31.8265 16.6461 32.0846 16.1616 32.5305L15.7982 32.8668L15.6857 32.6165C15.3829 31.9751 15.2878 30.7391 15.4868 30.043C15.902 28.5489 17.044 27.4068 18.6359 26.9062C19.2155 26.7263 19.4837 26.6871 20.1585 26.6871C20.6084 26.6871 21.1967 26.7419 21.4563 26.8045ZM19.5356 29.7926C18.93 30.3558 18.8349 30.5279 18.8349 31.0286C18.8349 31.6544 19.1809 32.1081 19.8298 32.3584C20.4873 32.6009 21.0237 32.4601 21.7504 31.8499L22.2954 31.3884L22.1657 32.069C22.0965 32.4444 22.0186 32.773 21.984 32.8043C21.9494 32.8356 21.3611 32.9294 20.6776 33.0155C18.9127 33.2345 18.5753 33.3597 17.6842 34.1419L17.2344 34.5252L16.8796 34.2358L16.5249 33.9463L17.0094 33.4613C17.8227 32.6556 17.987 32.2645 18.2206 30.6375C18.2985 30.0742 18.3763 29.6049 18.3936 29.5893C18.4369 29.5501 19.527 29.3702 19.8125 29.3546C20.0028 29.3468 19.9769 29.3937 19.5356 29.7926Z" fill="#F2F2F2"/>
</svg>
