<svg width="40" height="41" viewBox="0 0 40 41" fill="none" xmlns="http://www.w3.org/2000/svg">
<g clip-path="url(#clip0_182_787)">
<path d="M11.4286 0.015625C13.0089 0.015625 14.2857 1.13281 14.2857 2.51562V5.01562H25.7143V2.51562C25.7143 1.13281 26.9911 0.015625 28.5714 0.015625C30.1518 0.015625 31.4286 1.13281 31.4286 2.51562V5.01562H35.7143C38.0804 5.01562 40 6.69531 40 8.76562V12.5156H0V8.76562C0 6.69531 1.91964 5.01562 4.28571 5.01562H8.57143V2.51562C8.57143 1.13281 9.84821 0.015625 11.4286 0.015625ZM0 15.0156H40V36.2656C40 38.3359 38.0804 40.0156 35.7143 40.0156H4.28571C1.91964 40.0156 0 38.3359 0 36.2656V15.0156ZM5.71429 21.2656V23.7656C5.71429 24.4531 6.35714 25.0156 7.14286 25.0156H10C10.7857 25.0156 11.4286 24.4531 11.4286 23.7656V21.2656C11.4286 20.5781 10.7857 20.0156 10 20.0156H7.14286C6.35714 20.0156 5.71429 20.5781 5.71429 21.2656ZM17.1429 21.2656V23.7656C17.1429 24.4531 17.7857 25.0156 18.5714 25.0156H21.4286C22.2143 25.0156 22.8571 24.4531 22.8571 23.7656V21.2656C22.8571 20.5781 22.2143 20.0156 21.4286 20.0156H18.5714C17.7857 20.0156 17.1429 20.5781 17.1429 21.2656ZM30 20.0156C29.2143 20.0156 28.5714 20.5781 28.5714 21.2656V23.7656C28.5714 24.4531 29.2143 25.0156 30 25.0156H32.8571C33.6429 25.0156 34.2857 24.4531 34.2857 23.7656V21.2656C34.2857 20.5781 33.6429 20.0156 32.8571 20.0156H30ZM5.71429 31.2656V33.7656C5.71429 34.4531 6.35714 35.0156 7.14286 35.0156H10C10.7857 35.0156 11.4286 34.4531 11.4286 33.7656V31.2656C11.4286 30.5781 10.7857 30.0156 10 30.0156H7.14286C6.35714 30.0156 5.71429 30.5781 5.71429 31.2656ZM18.5714 30.0156C17.7857 30.0156 17.1429 30.5781 17.1429 31.2656V33.7656C17.1429 34.4531 17.7857 35.0156 18.5714 35.0156H21.4286C22.2143 35.0156 22.8571 34.4531 22.8571 33.7656V31.2656C22.8571 30.5781 22.2143 30.0156 21.4286 30.0156H18.5714ZM28.5714 31.2656V33.7656C28.5714 34.4531 29.2143 35.0156 30 35.0156H32.8571C33.6429 35.0156 34.2857 34.4531 34.2857 33.7656V31.2656C34.2857 30.5781 33.6429 30.0156 32.8571 30.0156H30C29.2143 30.0156 28.5714 30.5781 28.5714 31.2656Z" fill="#F2F2F2"/>
</g>
<defs>
<clipPath id="clip0_182_787">
<rect width="40" height="40" fill="white" transform="translate(0 0.015625)"/>
</clipPath>
</defs>
</svg>
