<svg width="40" height="41" viewBox="0 0 40 41" fill="none" xmlns="http://www.w3.org/2000/svg">
<g clip-path="url(#clip0_182_798)">
<path d="M11.8828 2.99995C12.6563 3.69526 12.7188 4.87495 12.0234 5.64838L6.39844 11.8984C6.05469 12.2812 5.57031 12.5078 5.05469 12.5156C4.53906 12.5234 4.04688 12.3281 3.67969 11.9687L0.546875 8.8437C-0.179688 8.10932 -0.179688 6.92182 0.546875 6.18745C1.27344 5.45307 2.46875 5.45307 3.19531 6.18745L4.92188 7.91401L9.22656 3.13276C9.92188 2.35932 11.1016 2.29682 11.875 2.99213L11.8828 2.99995ZM11.8828 15.4999C12.6563 16.1953 12.7188 17.3749 12.0234 18.1484L6.39844 24.3984C6.05469 24.7812 5.57031 25.0078 5.05469 25.0156C4.53906 25.0234 4.04688 24.8281 3.67969 24.4687L0.546875 21.3437C-0.1875 20.6093 -0.1875 19.4218 0.546875 18.6953C1.28125 17.9687 2.46875 17.9609 3.19531 18.6953L4.92188 20.4218L9.22656 15.6406C9.92188 14.8671 11.1016 14.8046 11.875 15.4999H11.8828ZM17.5 7.51557C17.5 6.13276 18.6172 5.01557 20 5.01557H37.5C38.8828 5.01557 40 6.13276 40 7.51557C40 8.89838 38.8828 10.0156 37.5 10.0156H20C18.6172 10.0156 17.5 8.89838 17.5 7.51557ZM17.5 20.0156C17.5 18.6328 18.6172 17.5156 20 17.5156H37.5C38.8828 17.5156 40 18.6328 40 20.0156C40 21.3984 38.8828 22.5156 37.5 22.5156H20C18.6172 22.5156 17.5 21.3984 17.5 20.0156ZM12.5 32.5156C12.5 31.1328 13.6172 30.0156 15 30.0156H37.5C38.8828 30.0156 40 31.1328 40 32.5156C40 33.8984 38.8828 35.0156 37.5 35.0156H15C13.6172 35.0156 12.5 33.8984 12.5 32.5156ZM3.75 28.7656C4.74456 28.7656 5.69839 29.1607 6.40165 29.8639C7.10491 30.5672 7.5 31.521 7.5 32.5156C7.5 33.5101 7.10491 34.464 6.40165 35.1672C5.69839 35.8705 4.74456 36.2656 3.75 36.2656C2.75544 36.2656 1.80161 35.8705 1.09835 35.1672C0.395088 34.464 -2.23517e-08 33.5101 -2.23517e-08 32.5156C-2.23517e-08 31.521 0.395088 30.5672 1.09835 29.8639C1.80161 29.1607 2.75544 28.7656 3.75 28.7656Z" fill="#F2F2F2"/>
</g>
<defs>
<clipPath id="clip0_182_798">
<rect width="40" height="40" fill="white" transform="translate(0 0.015625)"/>
</clipPath>
</defs>
</svg>
